<mxfile host="app.diagrams.net" modified="2023-11-23T17:06:36.332Z" agent="Mozilla/5.0 (Windows NT 10.0; Win64; x64) AppleWebKit/537.36 (KHTML, like Gecko) Chrome/109.0.0.0 Safari/537.36" etag="cF9_dOEH0g8U03uVyne4" version="22.1.3" type="github">
  <diagram name="Page-1" id="NSADhdFhZ4VWXWFQRbiV">
    <mxGraphModel dx="1050" dy="523" grid="0" gridSize="10" guides="1" tooltips="1" connect="1" arrows="1" fold="1" page="1" pageScale="1" pageWidth="850" pageHeight="1100" math="0" shadow="0">
      <root>
        <mxCell id="0" />
        <mxCell id="1" parent="0" />
        <mxCell id="S7oFmrqghf663vn2V5Jl-1" value="" style="shape=image;verticalLabelPosition=bottom;labelBackgroundColor=default;verticalAlign=top;aspect=fixed;imageAspect=0;image=data:image/png,iVBORw0KGgoAAAANSUhEUgAAA1sAAAGaCAYAAAD5F1k9AAAAAXNSR0IArs4c6QAAAARnQU1BAACxjwv8YQUAAAAJcEhZcwAADsMAAA7DAcdvqGQAAP+lSURBVHhe7J0HYBzF2f6f66fee7UkW+69YsA0G0zvLRACAQIkJCH9n/4lXzpJPhKSAAECofdicO+9N8myZfXee7t+/3nn9mxJPsmSfWefj/dnlt2ZnZ3dfW/3NM+9M++onAIwDMMwDMMwDMMwXkWtrBmGYRiGYRiGYRgvwmKLYRiGYRiGYRjGB7DYYhiGYRiGYRiG8QEsthiGYRiGYRiGYXzAkAEycqYvUrYYhmEYhmEYhmGY0bDmk9fPn9hKSU7Etx9/ELfccI2SwzAMwzAMwzAMc+Gz5Ob78fwzv+VuhAzDMAzDMAzDML6AxRbDMAzDMAzDMIwPYLHFMAzDMAzDMAzjA1hsMQzDMAzDMAzD+IBRiS2NRiMXlUol0+61J/rvk8epWdcxDMMwDMMwDPPFYcQKKCw0BAvnzcaCuTMxNisDer0OmekpiI6KlPuNBgPCw0LlNu3LykyT6fi4GHnM9KmTEBUZLvczDMMwDMMwDMMEOiMSW1qtFj/74Tdx9+034IF7b8Wrz/8VF8+fgwfvu1Okb0NoSDC+/uiX8eHrz0uBlZaSjD//5qeYOW0ynvvrb7B08WW47JL5uPn6q5UaGYZhGIZhGIZhApsRiS2bzYYf//KP+MHPf4ef/OpprFi7EfNmT8fOPQcwY+okGAwGTMjNRml5JSaNH4cxGWlobm1De0en7EL4z3//F/966XW8+uYHSo2jwyrO393dg74+E2haMIfDgT6TCb1KmrBYrejs6h6YZ7Gip6dX7qO83t4+tIjrampuEet2mEzmE2UH43A40d3Tg+YWV3m6F6vVJsvb7XZ5PVal3rOF6qH67eK+vFEfwzAMwzAMwzDnnxGJLRp/tWDuLPzoqcfw8x9+CzljMpCemowjx44jTaypq2B0VBRWrNmI+XNnYFxOJg4cOoKaugZRpgj/+POv8Y1HviyE2FgMPcrLMySsCo4W4U9/ewEffLoCZotFCp1lK9bh7fc/lQKKBMr+g/n42f/+GW++98mJvB179uO5l1/HobwCKa5eefN93PfIU7j5nkfx4BPfwycr1kiBNljg0Dkbm5vxzL9ewT0PPSnL/+Bnv8X+Q/lCwFlQ39iEPz/7Ig4fOSaF19lyKP8ovvbtn6BFCDuGYRiGYRiGYQKDEYmtIKMRT//mx9i0dbf0bjW3tEqB0trWgT37D+GaqxahrLwSxaXlmDtrOrIy07F99z4hHlrxq98/gx/+4vfQ6rT44VOPIzg4SKl1ZHR1d6OqphZmsxkmk0l6mgxGgxxDRsKrq4c8TDb09PaKa3Kgo6MTTeK85A0jb1FcTAxioqPw/ifLxb4uPPv0/2Dbmg/wvz/7Hg4eLsD6zdthEnX3p6OzCy+/9i4iI8Px2gt/leW/+sDdWLN+CwoKi2C3DRRY5D2rb2hCrRCXXUK8kVgj+1A9bu8Z5bW1d0hvG6XJW9jY1CKPofsSmUptDMMwDMMwDMMEAiMSW7ExUbJbXVlFJVKTExESEgKb3QGL2YJ9B/Jw+SULpOhqbWtHUkIcQkNDcSjvqDxuQm6OFBzknSLBodfrlVpPD4kS8kj19Pbhonmz5bGH849Cp9UiOSkBWo1GihXq7tfV3YOx2WPk+LGq6lrpgbIKYRMVFSHFol2Im7CwEOh0OumNGpuViXE5Y6SII0+YGzpnXkGh9MBdNHcm4mKjZf6MKRORkZ4ixV6fuB83tP3W+5/iq9/4Ae544Ak89583ZLdDEnD/eOFVbNu5xyUKhQj73z/+XYo1EoJ0jq9/96e496vfxJbte+AQQpFhGIZhGIZhmMBhRGKLugO+9f4n+NOvf4y7br0eb733CY4XlwjRYMX+g3k4mHcE23fvl13yXn79PdmdUK1SCaESg/vvvgXPP/M7XL7oIvzj3/+V3p2RQt4fEi4kiGbPnIL0tBQ55qq7p1eKuujoSDQ3t8puhTarFTlCQCWKfPJykaeJrsdoNEjBlZOdiR3iGl989W3ZrbBR1HvzdUtwx83XSc+XGxo/VVJajpiYaCTExcoxZwQJvfvvvhWLL78EYaHBMo/YsmOP7E74u1/+EO+88iyOF5UK8bRbji8bCvK+/e25V3D37TdhzSevC1EaDTWHxmcYhmEYhmGYgGJELXytViPFwS1f+hp+/ce/Y+PWnXj2hf9Kb1dRaQV+/pu/orKqVnqX/vvWB/jk89Ww2e1yvNZ3f/Ib3ErH/eFvKK+sRmTEyMO/9/b1yfFRJJ6oq57ZZJbCqr6hUYgoo/RC1QlRVVJWKa9l0oSx0ntFYqy6pk52NUxPTZFh6a++cpEUixqNGt//+e/wwGPfleO5qkQ58rgNJiI8FAbD8F44On99fSPmzJwmPX6pyUlYtHA+yiqqZQCPoSDBGRxklEFGKNLjlZctRFREBIaZtoxhGIZhGIZhmAuM04otCo4xZeJ4xMfFSoEwWkiwzJw+GU88fB9++v0nZYj4kUBCprGpFbv2HsK7H36Or3/353j67/+WHrTjxWWy3pSkBCmeqPtieHiY9KSFh4a5RJgQQbQvIiJMeqs6O7ukh+sXP/o21n36Jj547V8w6g3YsWufHBd2AnG/5MVqam6T4pHqckOeMhJyFDWQsNnsclwWeeDckLeNBNRg6Bh5nKiPuj1SPbTNMAzDMAzDMExgMiLPls1uw2MP3YsrFi3EmIxUOY4pOCjoRBc7T5BIozI0horGVS1bvk56vCh4xkigroOFxSXQ6bR45bmnsfrj1/DZey/jvjtvRllFlexOSAJQnAmV1TVQq1VyLFdKcqIco9UiBFhMdDSiIsKFcGrFshVrsWf/4RPCKEgIRwqAQWKKAmy40et0mJg7Vnb1q6yqkQEtCBrX9eGnK7F9194TY7zo2igSI4WWJ0FHawoUQtdC90/QmC6nwymvgUShQ5yPIjfSdbnD1JOoo3FkLL0YhmEYhmEYJnA4rdgiMUBR+6gbIc2lRV3xvv3EV3HTdYtlNzgKSpGWknRySU2WgmryxFxcv/RKPPKVe6Q3a/z4HClqKKLfSCAvEo27ihHCJC6WRBWkuAsLC5UBM0rLqxAaGiIDYVA6OSlRepSCg40yAAWJquioCDkHWHRUJLRCROUdOYZ9B/NQWFQqhRfNC0aRDalLYn9yx2VJQblblHGXp7nFjpeUyfFVJObcZGak4Whhsaxv2449OJh3FJMmjJMik7pM7t53SHanzC8olN41smecEGgUOn/txq3y2A2bd8h7YLXFMAzDMAzDMIGDSjT+PTbxc6YvUrZOQt4a6rp39+03yHFKcUJ4kMApLC6TXQxp7BN5d6g7n0GvQ3VtPTZt3YXPVqyVY7jGj82WwSQoUh95oL79+IO45YZrlNoHQt4rOjZ7TDouuWiukgtZ56p1mxESHIRrl1wmJ1auqW3A0sWLkJgQL0UWBcIor6zBwvmzTnjSKCLispXr8OnyNTIkfJgQQ3fcer0MeEHCaDA0XuyNdz/B+k3bZJe/FCHmHn3wXkydlIvW9g589OlKXLpwnhSbq9ZtwjsffibHYt1z+024QYhMGi9W19CIv/z9RRQJkXbTtUtQ29CA229aKgN50Fi03z39D1TW1MmgIyQsH7r/TinQ3F4xhmEYhmEYhmEuPJbcfD+ef+a3oxNb/SEv05SJuRg/Lkd2pxs/Lkt2uSssKpNdAPMKjqG4tEIpfSqnE1sMwzAMc7ZQV+72jm6YxN+nIKMekeGhMBr06O0T+Z3dMIv84CCDzKcfCXt6TTLfYrUhhLqbR4RCL/7Gdff0yXyrzY7Q4CCZr9Nq0NXdK/NpOpSwEFc+TUvS2eXKp7G64aHU0yEUGrUaHV098nqoS3lEWIjMp+i9VJby6Q8yXUuUyKc/z+2dorzYRz/BUVnaRwGhKI/qomMpn+qyi2ug/E5xTXQuyqdz04+dVHeXuAe6NqojLDRImY+yB929ffJeKD9U3APdO5Xv6TPJe6f8kGCjtBXl9wqbkq0on2xnMlvkeftMFmnbyPAQYWuDTFM+7Q+ifHE9p9helKP80dk+RA4boPuh66H7G2B7+kxE/gnbi+ukMdyn2F7kU7d/qpvyXbZ35dOPnm0ij/b1tz19JpR/iu3FuaiOE7YXZcPDguUQASrvsr0rnyIa071Q+VHZXlwL2e5U2/fI59xI+eJ6zsj24nx03pO2D5HDKuj66BmhZyVUXAedl9p8p9he5FMwtZHbPkRGYXY/32TXSOV9OMX2og7K7297KhMl8iNEPXIeU5F/0vYhwvb0PpDte8S1inxxDVSebE/j7dtE3fRc0TVTPtmeel9RPj2H9HzRO0i2p7Yt5ZPt6DOhfHIwmM2ufLI92ZDyyfZkc7oeWpPNKZ/WVI7yyfZUjs5rMOhEvSaZT7anz5Ty9cr7QPlke7oOyifb03VTPtmerpvy6T7ou4iuh74H6D4pn+67U9iL8ul7gz4Tuh6yfYewPeWTXekzoXyyK31OlE+Q7SlffheJ/HbF9vIzUWxPn6F8H8S7RPmevouoDrftKf/EdxHlK7an/O7BtrfSd07PifeB8qXt6X0Q10P76Xz0efsjbrGl+aVAyRsAdRscDjI8eWfyjxbKua/Wb9ouPVGUPna8RE54PBzhYaGYP2eGnIeLYRiGYXxBYUk1lq/fja2789HW3oWE2Cj5x7m0sh4rN+zB5l15skGQGBctBUhRaQ2Wb3CVp0ZQckKM/KN/tLgKn6/bhe17C+Qf+pTEWCne8o+VY9mandi5/6hsYKQlxcuG18GCEny6ejt2HyyU15GekiAb1fsOF+HjVduw9/Bx2djITEuUjZGd+4/ho5VbsT+vWB6flZ4kj9smzvfxym04VFAqG2KZqQmywbJ1zxFZf/7xCtk4Tk+Jl427Lbvy8dnaneK+K2WvjdSkWFCjbdPOPCwX119UXiMbJnRf1NjauOOQtENZVb1sKCXGRaGlvRPrtx/E6k17UVnbiKjIMMTHRKKxuR3rth7A2i37UdvQitiocMSIpbahBWs278f6bQdkmbjoCHlMlTh29aZ92Lj9EFqF7eNjI2XjmM61cuNebN55WDbSXLYPRnFZDVas3yNtT9ecFB8tbX+shGy/W9j+iLhHt+0NOFJYLu+VbE9iNzUpzmX7IyXiMxG2P1Ao2ipk+3jZSN2XR7bfjr2HjssfjMmW1BjddYBsv03Yvkg06PTC9omyQUmfNX0mVB8NH8hMS5Cf8dY9+fhE1JMnzk+9bKh+anhv2Z0nn4Wjxf1sLxrodJ/07BSJ+3PbnsQ42X4F2V48i27bk502CNuvcts+Qthe2K2ppUPanuxcW98i7R4bHY66xlb5edC+BmH72KgIRAvbV9c2SdtTXS1tnfLzo3OUVzdg1cY94nk4LBvJCeKc1AAvLq8Vz8FucQ/5UmAlic+EGvLHiun92YVt4nkjAZecGCOfwyPiuftc2H7HvqNSONK9kqCg53TZmh3SptS4T0uOk41keq4/Ec8r2Z4a+i7ba+T74Xrui8RnpMMYxfY79gnbryDbF8spfMaI94QE3DbxDJDt84+VyWEjGWR78T7SM0PnPVok3ofgYHleEkf0frtsXy3uU9heXD+975t2HBbP2m6UVtTJ6NOJ4llr6yDbHxL2EbavaRBi5aTt1289KGy/DzX1zcK+ZPsI1Df1s31Tm8yTtq9rlmXJ9s2tHYgj2wuRUFHdKD9XOjcJBWl7IciLxTXQc7BFXCuJkMT4GGl713eXYntxL8kJFKiObF+Jz9aR7QukQEsRzz3Z/vDRsn62dyA9Od5l+/wSabM9hwqlbTPEdxGJsz3is6DvFvpOoveDbEyCaYd4nz4Utj+QL2wv6qXPhETytj3iu0h8d+WR7cV1ZIjPkM5Ptv909Q4UiGeCrptsT8KSbE/v5/HSKtmbjN5buj+6f/pOLiHbi/eB3nMSWuul7fcIOzVIe9F3dXNrJ9Ztc9m+mmwv3oe4mAhp7zVbDoi6DklxRtfoj7z29keyt9sZe7bOFvZsMQzDML6GGhj0x3j6pGwlh2EYhgkEquua5I8AY8ekKDn+hduzxTPpMgzDMAFLaWWd9BAwDMMwgQV5s/1VaPWHxRbDMAwTsAQbjbK7H8MwDBNYUHdF6nLs7wzbjZAiD/qKxIQ4PHjfnbjmKt92V2QYhmG+uNB4GBqXQ+NqGIZhmMCBxo/RGLyFsycpOf7FiKIR/vFX/09JeZ/g4CAZHCMjzf/dfwzDMAzDMAzD+A8UcKSxuQ3337ZYyfEvRiS2ig9uUlIMwzAMc+FBYZIpAhdFtWMYhmECB4p42NLWgVuuuVjJ8S84QAbDMAwT8OQXlqOwpEpJMQzDMIFCTmYypk3w/0izLLYYhmGYgKWipkHOz8IwDMMEFjRnXVaGa05Cf4bFFsMwDBOw0GSa3IWQIWiSZZqgmCZrdS80CW9Xdy+GGFExLHQMTahLEwLT5Mz9ocleaQJhmtTWZrfLiXFJ+NPEvOcbuuaq2iZ5bRTNjaZGoImPabJsmqD68NFSHC2qlJNJ00S/NEHuaKHJf6kuqrNT2KZE2MhstpyRnRlmKCgSIT1f/g6LLYZhGCZgmZSbidysNCXFfJFZu/UAXnl3FVZv3of12w7I5b3PNmHXgWOw2mxnJASooff+8s0y6mV/unt6sWLDbinmSHCQ+DhWXAWH/fyLrc6uXnHvB08IzeMl1ahraIVJiKGtu/OxbM0O7Nx/FHsPFaKxuV2IrdHbZeOOQ9iyO0+KuZb2LhwSAq5XbDOMN6EfOug59nc4QAbDMAzDMAHPf4TQooApD911zQlvJ4mCTTsP45sP3ozIiFD09JlQVFojvVEGvQ7jc9Kg1+ngEE2l2voW1DW2yOMoLzsjSYqJl95ZiWsWzcH0Sa6xIySuCkur8NGKbXLKgcWXzoJGrUZPbx9ioiJQ39QKrUaD9s5uaLUaREWEyX107qjwMHkMTVdA3jLyQJEICgsNRlpS3AAvLYmg1vZOsXRJsdjbZ0aQQY/kxBhER4bDYrGK622VHiyVOH9yfLTID0NRWQ1WbtqLWHEtl86bLGpSITjIIOtZI4RofGwk5kwfL8SnQ9YTGR4Cs8WGypoGdAn7GcU5MlLjERocJD1iJCTJk0f3mJGaIK/l3WWb5PUtvXwOYqMjZDm6L52431IhTOneqPk5Ji0R0VHh6BPXTp5AtVolPyMiOyNZ2CYUdiFQ6Zq7hY3UKpW4v1gkiXthmAslGqHmlwIlbwB/e+4VfPOxB5UUwzAMw1x4UKPOKhqC1HBmvthQF0ISBTMm5wixpJV57Z09KDhegbnTcqUQoOhmm3cdRkNTm/R4kfhJiI1CixA1n6zahuOl1aiqa8Keg2KfEC4kXg4cKUZOZgoSFQFA3fTyjpXL85FQiI4KE0JFHHPouBB0Ifho5TbUNjTLX+XzRTkSMRU1jXKb1u454XYfLJTeofKqBpRU1ElhFh8TKdcE1U3nXrlhjxAq9VKQUEAYEj0kuOi4dVv3yzy67vaObikoK4SoofmJyNMUEmTEvrximM1WKcryRFnqOkjvy64DhQg26oVADMfR4kps33tEdgckD12wOI7KbNqZJ+6z2GWTQ4Uy8qfZasUhce8k3uh6qavXqk17kJudJj1odP+V4j6PyHP1ID05Hk2t7XjxrRVCiLahWtS1cfsh8XloZQAEurcPV2yVwrFU2IGuc3xOuhSkzBcb+uHC6YB8tvyR197+CDcsvZK7ETIMwzCBCzXoCkuqlRTzRadNCIC9h4/LbnK0kEDIzUpFcLBBCizq+nfTkovwzYduwYxJ2fhs3U7pvWpr75ZepSfuvwFPfPlGjElPkoLFE0FGA+ZMG4cJY9Mxf+YETMkdo+xxQWOgSKR95Y4lmDYxGw3N7bh4zmTcsvRiUF8jEkMkRgqKKuRkrV+77zrpRSPxRgJmMCRwZk4ZKz12WeK66kQDlMaI5ReWQS2E1323XokbFy9Ao8g7LgQZCZWJYzNl3bSt1aqlcKL05NxMXDR7ssx3/0BBIo26FE4ZPwaPf/kGXH7RNOn5I2+VODVuu/YSfPPBWzBv+njpnSLhScfPmZ6LeTPGS08YQeJww/aDiAgLwSP3LMWXbrlSCjUScuQFIztPEecn2y+YNVEKSRKu1E0sIjwE3/rqLXhYHEefA/2AwjA5GcmYOjFLSfkvLLYYhmGYgIV+ca9Vun4xDHmyKDDGrgNH8doHa2S3wKVXzJECqV6IHmrcU7e4HfsKoNFo0NXdJz0zWemJmD4pR449Io9Tb59JqXH00LkyUhNhECIkPCxYRlTLTE2QoiTIqBdCxiGvs02IHBJIeUfL5Ngq6p5H68GQcEuKixYiJhgxYpu6OJLXymS2IjEuSnbjI+9RbHS4HK9F9zgayNtEHkESPORtmitEFYnDcUKkUtdJ2k/2bGrtkEJyKOi8rUK0kgglzxh1RaR7r6lrlt00yS4k1IR+k2uCxFxqUqwUY/SZUNCOS+dN5aA3jIS8yfTu+DssthiGYZiAhX5FDw8NVlLMF50xQjQ9cu+10kNz8dwpckwSjUdyQ16io8VV0qtC3dYm5WbI/NLKOtmVjbxihwpK0NDcJvPPBOqueLpnkkQGde0rraiVAq9DiCQac6X30B2WRBqJl/5QIA4aO+Yelk9d7micGN3faCGh5UlEURcuGjOzbU8+9gsBS9EereKcQ0F1kGB0Q143HXXnVC6JtkNDBt4HXe+cabmyO6EUyfuPYsuuvBPjupgvNvTjA/0o4e+w2GIYhmEClsm5Y/y2Pz9z/iDvz5UXz0Bnd48QC0dkMImwkCBER4Th9usukV0Fr79qHqaOz5IeHeoySF4d6v72wO1LkJoYp9TkfShIRLDRgLSUeFx7xTw8KsThDVfNx6RxmdJLNRLIS0RBL7p7TdIzR90KqVGq12uF6Bpd048CeJAwoiAWFLqeujhS1z+yCdV945IF0i70rrnHwnnCoNfLcW4U4ZAEXLO4JtqmH0SGkoAkFmm82cRxGXjigRtx142X4aAQux2d/h/um/E9rmiEJUrKf2GxxTAMwwQs1AWJI5cxnqDgDVctnIlDR0uk54qelbTkOKzfflAGyvhk1Xbsyy+SHiIKktFrMmHb3gLs3F8go/JZrFbZ5c8T5JGhQBU0hok8ZKOBPFBJCTGySyCdi8Y5kQeJvG0mk0UpNTzUHTElMVaO8dqw3RWGnUQcjf0iUUkOLppfiyK5nS60e3RkKBLioqTHjyI3rty4RwYVITFH0JiqrUKwNra0y8iJZC/yttWL+6aAH5QmdDqNHJNVVFYtg5BQCH7qRjkhJ12KOU+QY44a1J+v3SU/k315RTKCIUUpZBh65sij6u9wNEKGYRgmYKHIatRNzD1In/niQl6YaNFIzxSNdRI0BDXayUsSGmyUUQAzUhJQVFotuwnSuCAKLEFlaCHhQh4ip/hHgS/I00XjjqxWOzLSEqSHpj8URILm26IIgJHhoVKckABSiX/pQtTROd3ChM5LAsgphA+NQyHhR0KEgmdQ4A6KCDh/5kRxfIxSu0uIULc8GvtFY5/Im0UeI5rIOzU5VtQTJQpBRj6k0O8UtGN8dprsikjjp0gw0nWFh4YgSZQlrxMFnogTIpS26WCqNzEuWubRddTWN8t9NGaLumSSuGoSDV4KOz9tYpbsHkn3RvdEoe2peyNdu1bYioJ3ZAmxR+9jdV2zvPYli2bLMTfkMSNbULASuj66DhJglE5NikNFdaMcX0dBNC6/aLq8HoahZ88p3icaP+iPuKMR8jxbDMMwTMBCv+hTlzGKisYwDMMEDtQNlX44II+0P+KeZ4u7ETIMwzABS21Dy1kFM2AYhmH8E5qA21+FVn9YbDEMwzABCwU8oK5SDMMwTGBBXYBpkmt/h8UWwzAME7DQJK252f7Zn59hGIY5c4ppaoSCUiXlv7DYYhiGYQIWiupGkeQYhmGYwIK8WhQAxt9hscUwDMMELPTHmKLIMQzDMIFFZHgIYqP9PzIliy2GYRgmYMkvLEdhSZWSYhiGYQKF7IwUOeWAv8Nii2EYhglYKBJh0wUwgJphGIYZHbHR4XIuOH+HxRbDMAwTsMRGRyBaTtDKMAzDBBJt7V0XxNQeLLYYhmGYgIWiEY7PTlNSDMMwTKDA0QgZhmEY5jxDkQjJu8UwDMMEFhT8qKGpVUn5Lyy2GIZhmIClobn9gpj0kmEYhhkdNGl9Qly0kvJfWGwxDMMwAcsRGY2wWkkxDMMwgUJ2ZjKmTeBohAzDMAxz3mhqbUdLe6eSYhiGYQIFCn6UEOf/k9az2GIYhmECFhqzFcdjthiGYQKO5tZO1Da0KCn/hcUWwzAME7BQNMJcjkbIMAwTcJRwNEKGYRiGOb/wPFsMwzCBSXtnN5pb25WU/6JyCpTtAeRMX4Tig5uUFMMwDMNceNQ1tkKtVsnuhAzDMGeLo7EDjvIm0YJWMjxBLeuh9g+3jwjQ/aoQIzQTU5WUd9h3+LgQXD248uIZSo5/seTm+/H8M79lscUwDMMELmu27IdBr8Ol86YoOQzDMGeO/XgtLJ/shaNCCC5PuFvVQwmSC3n/GR6rCjZAt2gidNfNVHK8Q4cQWlabzW/nUmSxxTAMwwQ87yzbiCCjATcuXqDkMAzDnDkktsyvboJ9V5GSw5wOVXQo9A9cBr2XxZa/4xZbPGaLYRiGCViS42O4C+EFhNPSB0dHPRyNxbDX5MFevgf2ku2udU0+HM1lcPa0wmm3KUcwzHnA6RT/OeEYtHYvlB5un6d1oO8X/1OM5z0aW9pRXTeEh9GPYM8WwzAME7C0tXdBpVYhMjxUyWH8Bocdjs4GOJpK4Gwph7OrCU5TJ2DuhtNqAuxWwGaBU5RTabSARgdoDVDpgwFDKFShsVBHJkEVmQpVdBpUIdHisxblGMaHkGfL9MpG2NizNWLIs2Ukz9b1s5Qc77BjXwFaxXf8dVfOU3L8C+5GyDAMwzDMOcVpM8PZVgNHQyEc9cfEdpUQXI1Ad7MQWl2iJWtRSp4GlQrQh0AVHCmWKCG0YkSDLh3q9BnQpE6DSogxWYZhvIxNiq0NsO1ksTVSVDFhUmwZvCy2Vm3ai8bmNtx/22Ilx7/gboQMwzBMwFNd1ywjEjLnFxJStuObYF33N1jW/gXWrS/BduBD2Iu2wCmEl7OnZeRCi6DfickD1lYNB3U3PL4Rtv0fwLrpOVhW/RG2w5/BQd0NnQ7lAIbxMuSq4GWEC/3P+8THRCItOV5J+S8sthiGYZiA5UhhOQpLqpQUc65x2iywVx2Cdcu/Yd38vBBBn8JRtgvO1gqAugp6E0uPFG72gtWwbv8PrKufFttrXB4zHzX2mC8g4lGix4k6hvEy0kUxnJfJyUzGtAlZSsp/YbHFMAzDBCztXd3o7O5VUsy5xNFeA9ved2Hd+A8hspbB2VjkfYHlCadDdk+0F66HdeuLsKz7P9hr8+GkMWAM4w1IQNDK4+L+52kfLRfy/uH20eJ5v9zj2vAqYaHBiLoAJq1nscUwDMMELKlJcUiKj1FSzLnAaemFvXgLrJv+Bduet+CoPiS7/J1zHHYZeMN+ZBWsa/8qruUdOHrb5C/tDHNWiEfoVO+Ne6F952Y/bZy6Pnl9A/O9sV9uesg/3X6R5wPqm9pQUd2gpPwXFlsMwzBMwDI5NxPjs1OVFONrHN3NsB38GJbNL8BeuBHOrkbR0DrP46ZsZjmui4Sfdc2f4SAvl4NDxzNnzvDaQaoN16ZHvLffXWrgWgicE1suvLefttx7R7PfveVdSsprcKigVEn5Lyy2GIZhmIAlIixEdjVhfI+jsQS2Ha/CtvstOOsLpcjxJ0j42Y9tkILLnrdcjidjmNGjCArqrupxoX3nar9rrUqMhDojzrUkRcGpUQ/YP3BNi7iDM9pP+e4yo9nvtpt36e41oaPrPHjNRwmHfmcYhmEClsqaRmhEwyMlMVbJYbyOaEbY647Ibnr20h1AX4eyw39RRaVCO+tOaGfeBpVWr+QyzOmxFdag5+X1sO4oVHIG4W5VDzXzwNns12mhSY6GJjsBmhSxToqGKswIVXgQVBqNq4zdAUevGXA4ALMN9oZ22MsaYStrEO9no7gBu6vcmZz/DK+dQr+HPHQFjDfMUXK8A3m1Orp6cOm8KUqOf8HzbDEMwzABz/L1u2E06HDFwhlKDuNt7DX5sO16TTTkdgKWCycYiSosAdq590A7+07RUNUpuQwzPNZjNeh9eR0sQ4gtd6t6qGnezmS/NjsR2qkZ0IlFkxAJVUQw1KFCYIUYAL1WlPVcmVMIK2evBc7OXjg6euXacqAM1v2lsBXXiZeXTkYLHe9akyxw1Tcw/2z2q2PCESzEVtCN3hVbPb0moR3tsgeDP8Jii2EYhgl43lm2EUFGA25cvEDJYbyJo+4orDuF0CrZNnKhpVJLj5Im+yIlY3hs+96HvXzP6ObhGiGqsHhoL3sC2klXi8vSKrkMMzQktnpIbG0fwrPlJVR6jXguM2C4dAJ041OgjouAOjpU5Gthb+mCo6YVjpZO2Cqa4DS5Im06mjqhjhTCQ+fycmnTYqFOjYE2K0EIM6N4xlWwN3fKcrbyRnkP5i0F4iXz7bhKdWy49Gx5W2z5Oyy2GIZhmIBn5/6j0Ou0mDllrJLDeAtHS4Ucn2U7slLOcTVi1BrolnwfOiG4RoL1wIewbX8Fzo46Jce7UJdC/TU/hjpjlmiM8lB2ZnhIbHW/tNanYos8WMarpkE3OR2a1Gioggyw17fDerAUloPlsNe1wdnVJ0WWs1us7YpY6hOiy6AV7xh5lMSKBBYt4UHQCMGjnZgKwyUToYkPFzdih72hA9aj1ehbtkfUXY4TbjUvo6ZuhA9fieAb5yo53qG2oQUmkwVZGUlKjn/hFlv8rcIwDMMELBSNMDc7TUkx3sLZ3SwnD7YdWzs6oXUGaDLmSA+Ur3C2VcOy9s9CzNXKLlAMc1p89JiookIQdMcChD5+DYxXT4d2bBLsta3ofmE1On/zvhwrZlp72NUNsKgO9qpmONp64OwUgosWq028m6YTaRJl1F2Qyps25KH3jc3o/MXb6HpmOcz7SqBJjoLxskkIe+oGhH5jqXjZLixZUFxei0NHORohwzAMw5w3QkOCEBJsVFKMN3BaTbCX7IDt0LJzEgxDFZEEdUIuoPfduAxnUwmsm58HaOJjFlzMCCBh7s1Fk5uM0MeuRsi9l0I3MRWOli50v7gGnX/6GL0f74LlUBlsQng5TRaPx592sdhgb+yAJa8Cfcv3oevvy9H1t89hK22Adky8eMcihIYcdIwXF18I1D6TGd09/j9OlMUWwzAME7CUVdbLiISM96B5qmwHP4Kzs17J8S0qjdbVxS/UtxEl7cc3wX74M185LZiAgZ6Qk0/JwNSZpfXzxyH0kcUwXj5FjrnqW3kAnU9/gt6PhMg6Ug1HZ5948VxHeTp+tGlHjwn2iib0rdiP9t9+gJ7/bpReL4pk2L+8p2PPJu1tkhNikJWRrKT8FxZbDMMwTMCSf7wchaXVSoo5Wxxt1bAdXQsHzaPl02bUQDTpM6WHa0CINm9j7YN1x6vcnZAZFnoySPc4xDNCi9tzcyZpp1YDw8LxCLn3EhhmZsHR1Yuuf69B13/Ww3SwFPb2HjgdrvmqRlLfaNP2bhOsxXXofncbLMdq4BA35t6P6FCE3L8IYd++HhG/uluOudJmJwxZ1+nS4j+vk5OZjGkTspSU/8Jii2EYhglYevtMsqsJc/Y47TY4avLhOL7JJ5EBh0MVFAF1ymTAGKHk+AYSWtbNLygphhkBJCL6C4lRpA0LcxFy3yLop2TAWtWMrhdWo+eT3XKc1okIgcMcL/FC2tEqRJ07yIZIa1JjEEUC666LEXztLBgvmYiQWxcg4id3IOjqftNoeKhr2LSXoUiz1FXc32GxxTAMwwQsY9KSkJ7su+AKXyScbVUyxLuzu0XJOUMcdiFq6qV3bPDi7OtUCg1CpXIFyvBxV0LCfnwjHGW7lBTDnIrbY3M2i37eWITccRH0E1Jhq2xG9383om/jEdd8WP08TOd6QZAekT+5HfppmVAZdDDtKETf6kNwdJugG5eM0AevgHZyusdjh118oLqq65pQVFajpPwXFlsMwzBMwMLRCL2D026Fo/YI7KU7KOXKPAtshz+F+ZOfnrJQGPmhBJc6eYIM0w5fz4dl6YV1+ytiw4c/yTMXPvR49H9ERpGmebNCbp4H/aR0IbSa0PXaRpi2FMDZ088LP8zxEi+ldTlJ0OUmSyFFS8jNc6EXYkql0aDt9x+g8+/L0fnCKrT+5A3pcdOmRCNUiMSR1O1rZDTCAo5GyDAMwzDnjeAgA4KMeiXFnCnSq0VCy1vRB3ta4WwpP2Whc5DXyxMqnREaCpQRHKXk+A5HzWHYqw4qKYbphxQSJ8cljXZRRQYj6LpZMMwdC3trN7re2Ya+TUdgF0LLU3lfLsbLJyPql3ch+tf3nlhC718kQ8BbaP6tjUdgrW+DtaED5qI69G7Ik/vI6+WpvqEW8mz5QnyZLVb0mUxKyn9hscUwDMMELPTLZ3lVg5JizgQaq2WvL4T9HHStc1QfhkMIOziU8SMDUEGTdRFUYXFK2ofYrbDufUdJMMxABuoGqb5cm5Lh08ZLJyJo4XgZ+KL7o11C0OTD0dd/XOnwx3szrUmKgjY9FtqMuBOLJjoMKpUKzj4LnGYam+k+VqytdrlPZdSdzDuxn/Cc7p/jTVKT4jB2TKqS8l9YbDEMwzABy5FCikYoGu/MGUMTGDtr88/JnFowdcnuio4ez+PCVJHJUMWPBXS+HxTvKNkBZxdPG8CcysDxSJTunzd0WjclHUFXToUmMVJ6jXrXH4a9o+fE/tMd7/W02iUDLIU1qP/yM6i7589o/+cKuU83IQW68aknyqpCjTBeMgFOmx3mg2Wu44ere1Ba/F+ey5vIaIQTORohwzAMw5w3TBaL7GrCnDnOjjopgM4NTjgq98uogJ6gObc0mXOgColWcnyIpRe2gjVKgmGGYrCQGCKt08A4bxwMk9JhLW2UHi1bdYvYNUT5E/g6LVJ9FliK62EVS9d72+Tkx+ogA2J+dx+ivnMjIp5Yirj/+yp0mQlwWu0yYqJypLK4OV3auxj0OhmR0N9hscUwDMMELDmZKchMTVRSzGiR4d7bquFoOK7k+B5HZwOc5h4ldSrqzNlCbPl+3BZhy/tc2WIYF2754HTS/FeuObBciyt9cpzSwP0UddA4Y4z0EPXtLITpUBmcNtuJ/ac73hf7xf+Ue6J/rv32rj60/vYD2Jo6oE2ORsiNcxB2xwLoc1Pk/vbnVqJvV5HcHvm5xSLP5F1owvpjxf7fc4HFFsMwDBOwUDTC8dn+36ffX3H2tsHZXCLHMJ0rNFnzoaaog0NAATLUaTMAY5iS4zucLRVwttcpKYZx4xIPLtGlLEraveFO0z7otDDOHQv9+FRYCqpg2nXcNWGxsv90x8s6DDroxiTCMDFNLsaLJsAwLQs6sa3LSgT02mGPd6fdG3K7H/339+0+joZvvYjOV9bDnF8Ja3kjuj/bg8Zv/BtdH+2Ew2xxlRf/G6puudA2bfgIGpN7+ChHI2QYhmGY8wZ1M9GLhTkznD0tcDSdu8aMKiwemrGXQBWRrOScikqlloLsnHQldFhhr+aohEw/FHUxwGtzmkWTFgtdborLq7W3GKajVTJAhqey7kUVFiQE1XjZjS/pv99C8jvfR/zfH0Hc0w/KJfYXdyL29/chXmxTfvK7Yv+fHkTk49dAPyUdTq3GY70DFimJ6J4G3o/DbIXleC3ahdhq+tkbaPjeK2h95jOYDpbJ+bb6lx3pIv7nOpcXsdpsMFvO7QTrZwKLLYZhGCZgOV5ajdIK9kycMUJsOZvPndjSTFgMdcpkOTZrONQpU12CTKVRcnyEaB/aK/YpCYZxQ+LBtTrBMGnjtEwYxqfAWtkEc14lHO29w5YPEiIr/vdfRtwv70bYLfOlR0yXGgNtYiS08RFy0cSEQxvn2tYmRIr9sTLKYfg9l7gE2O/vhzY9jn6dcFXq6Xz9GbzfIURXVx/szV1yDJeDPHE2u2ufp7qGS/uI9JR4jM9OV1L+C4sthmEYJmDJ52iEZw798t7XAWdXk5LhW1QxY6AZMxeqkFglZ2hUWoMcu4XgCCXHVzjhbCpSthnGhctRc6r3xtOCEIPs5qcRwshSVCcEV+OwXi3yZkU+fBWMM7NlGHZrVTM6392Gpv95G7Vf+ycqb/4tKq/91YCl/skX0Pq3z9C95iAcPWZxXCiCL5qA6O/eDHVUiMfznFiUexKJU/d5axHCzRfai6MRMgzDMMx5hrqZWN2/xjKjwmnpgbOzUWx4mvPK+2gnLoY6aSJUSjjqYVEpc24F+74roaO1WtliGAUhINzQVn8hMTitTYqGNjkKKpoouLgOFiGehiuvS4+DJlGU12nQd7AMbS+tQduLq9G9fB9M+0pgrWiCta4NNmWh7d6dx9Hx9ha0/Xs1upbtlh4plV4LXbJ4P0Q9w51vMP33Dy57Vun+O7yETqu9ILqJs9hiGIZhApbcrDRkpycpKWY0OC29cHZ7nu/K26iTJ0OdPhMICldyTo86dgzUMRmARq/k+AhrH5xdzUqC+aLjFhAnI++5lqHSuhQhtoR4sta1ykATDposuN/+weVJkNlbuuS5jBPTEPfjO5DyyreQ8NevIuaHtyLyoasQcd8ihCsLbcf+9A4kPvsokp57HBF3XwJ1mGseuu61B2V0waHOJzZkOZHjcX//7bNJy0VazbuUV9XjyPEKJeW/sNhiGIZhAhaKRpibnaakmFFhNcFp6lQSPkStgWb8FVAnjpfBL0aKShynzlkIBEcqOT6CGoqdPO6POcmIZYNOC40QW5qYMNgaOmBTRNRw9O4vgaW0QY6PIu+UJjIE2tQYBM0di7Ab5yLq4asQ/fjSAUvY0lkwThsjx26pQ4zSO2xr7kT3yv1w9JiUmk9l1PJHpYI+JwlBC8bL+cJUwSOb48r7MstFcUUtDheUKCn/hcUWwzAME7BotRq5MKfS1dWFkpJhGirUffAchHxXp8+COm06oA9WckaOJnshVCExSspXCLHV265sM4FOe3s7ysrKlJQnFE/NaRbjnBwk/vEBRD+8RI6hMgpxEvvdmxBy1TQ4tWqPx8jFakPvtqNyrBbR9sZGtP5zBbo+3yujAZoLa6SAUhm0sNa0wHy8BqaCSnR+sB0d726Dvb1bHtf54Q5YGztc46U8nUcsJxCbnvb3X1SRwYj/3/uQ8vKTSPzTA0j+12NI/+BHiHzgco/lT12Uc3kRu90Bm93/u4mz2GIYhmEClqNFlSgqq1FSjJu+vj6sWbMGt956K370ox95Fl0ktpw+bsjojNCOvxLqhFyo3FHTBkFCx2kzK6mB0JxbmtQpQqiFKDm+gQKFMIFPb28vli1bJt+Ln//85ygvL1f2eIDEwxBL0JyxiH70aoRcMhHqiGDpaaIxWPqxyYh58nqELp4O0I9AHo6lpXdPkRBSrSIhGupGPbpWHUDjb95H7bdfRM3jz6Hi5t+hdNFPUf3AMzJNS9PTH0OlUYnzaKVXq2vFfjl2y1P9J5b+eNqvLOrIECT/5WGELZkGTXgwNKFBck3REaMevArRT1zr8bgTi48Yk5aIieMylZT/wmKLYRiGCViOHOdohJ4wGo3Izc1FYmIinn32WVx33XX46U9/itLS/mHeRSvJFz9H90OTtQDqlCmikeh5kDtNqmzd/h84Go4rOQMhgSa9W77sSki/yp+L7pTMeScoKAjjx49HdHQ0/vKXv+D666/Hr3/961NFl3w1BntuXIsmIQJhV89A0MxsWKtb0PT7D1B23a9Q881/w3SoDLq0WCFaZkCfnejxeFpsTR3o2VYgg18EC8GmiQuHo88s57iixd7ZC3tHjxyP5c4zjE9F0Oyxsmtf+wfbYW1sH9ar5V7ceNonFxUQcedCGb6e6mv600coXvhDlN30G3SvPyzFZPjN8+REyx6PVxZfkJ2ZjOkTs5WU/6ISBvBogZzpi1B8cJOSYhiGYZgLj3eWbUSQ0YAbFy9Qchg3PT09eOedd/DII4/IxpDBYEBmZiZuv/12PPTQQ0gPscOy6Xk4izYqR3gZYzj0Vz0FzeSlcvyVJ6y73oB191vQXfxVaCddA5XeNfC/P06rCaa3noSz+hClXJnehCZRvvhrMFzykJLBBDKdnZ145ZVX8NRTT8n3gn6YyMrKwt133437778fCT0qtPxjBbo3H1GOGEjQjCzEfn2pEB/paHl+Jdrf2ASn3QGoVQi/bjZiHl4i58aylDXA1tbtemTJqdtv3fbyWimk4n9yh6yv9flVaHtrM+ytri6Cnkj+80MIWTQJtvp2IexekOO+En5+lxzHNbh+95qEnz49Toi1PvTlVYg8kTm4nPhf0KR0qMOD0PbmJjT9dRlAEV7FPp2oO+3170AdakTrS2vQ+u81dMApaIVYjHniWkTefpGS88Vgyc334/lnfstii2EYhglcDh8tg06rwYSx53biyw0bNuDll1+GzWaDeiShzM8TLS0t2LlzJzo6XN3kyFOk0+kwZswYfO32JXhkqg7q4s1yn7fRTL0Buou+AnVUGp1YyT2Jo6UClhW/g6Nyn5zsWHfp11zRBwcjmjHWbS/BuudtwAfd/RxOFTZax+GtIo/NpS8U1M1Or9dDqx1+0ukLnYaGBuzZs0cKL4LeC7rvnJwcPLbkNtxkSkLPEGKLBFXsk9cJcaVG87Ofo/PT3coewDglA3HfvB7B83NdYsZzExy1P3wVXav2I/HndyP8hjkwH61G/W/fk2tPhFw8AQlCmNHExg2/fhcdn+2Bs9eMMZ/8GPrMBKWUB+i9c796jmGebyEUnVY76n/xBjqX7VUyRXZEMNL+9TgMuSnoXncYtT94RdkzkL4gNQ7kaLFOXa/keAeVjrpoauEwn1/PM/1wRaJcoxn4o9H6Tdsxd/Z0FlsMwzBM4OJQGhBq0Vg4lzz22GOyQTpnzhz5R9hfOX78OP72t7+hudk1GJ+uOSoqCnPnzsXjdy3FJboSaEu3yH1eJSwe+iu/LUTUVbIh6wnLhmdhO/AhYOoSrdQwGG79PTSZc8QeD8Ks7hjMn/wEztZKJcd7OMT5DocvQFXcF+tXeU80NTUhLCzMr59pb3D48GE8//zz8scIgn6AoK6FF110ER696hZMyu/pJ7bczWjXcxk0KxuxX78WxtxUNAmx1f6Wuy2tQtg1MxH72DXQpcXILob29l6RP/B4Sjf/cwV6dx0Xomwc4r93CwzjklH3szfQtXI/nGZ30JqT5ZP//FWEXjYZltJ61HzvP7BWNIp8FZJ+/2XokqJcxfqVd6GSXi9dcpQUZqaiOkVw9b8esS1WxnEpUBn1aH9vGxp+866yD9BEhSDz3R/I8Vutr64X171c5g8+lzVUj4bLMtAyI1GmvUVpbQd6TVZMzjr9ROi+hMQ5fW+SIO/Pb57+Bx554G4WWwzDMAzjbagL0uTJk3HHHXcgNDRUyfUvqCH50ksv4X/+53+kB44aC/Pnz8d3vvMdXHzxxbA2lMC06TkYyrcqR3gP7Zx7oJ3/ZajDPDeSHDX5sKz9i1jnKTmiwbvocWhn3OpxfBY1ZczvfQeO0p3iYJuS6x2cKjXM8x5G5GVfVXK+uJCdhxLHgQI1nJ977jn84Q9/gN1uR0xMjHwf6J2eN28eLMdq0PyP5UN6tmgS47ivL0XEzfNhLq6XIqR7cz4MOUmIffRqBM8bh55tR2UdfUeG+HHAQcFpAHWQHkm/uR9hV05F18Z8NP3fp7L7YX9CLp6IRPJqpcWi/n/eRsfne6V4ktCPTMN8XjEPXonYJ66FSVxH5aP/gNPi4d0RdcQJ8UjdH51C2DT88QN0rtgvhVr8UzchdNEk2b2x6skX5Jg0T2hiw6UA9XY3wtWb96GxuR333XqlknN+GOq9uPqWL+O5//sNB8hgGIZhApcjheUoLPHc9cbX0B9fWqgboT8uxcXF+Oc//ymDAixZskSO3/roo4+waNEi6eFyimu3Or3fTFDFZkGdOQeq0CFCtjsdsOV/DkdjkZLhwl62G87uJiU1ELKzZuylQFCEkuNdLNB5tOEXbaFuUp7yA2nJy8uTP0KEhITgxhtvxPvvv493331XerXovTi1UU0+i5N+C1tdixQjprwKIbASkfSrezB2w2+Q/uI3pNCi4Bedqw7AdLRKPNQ0vYJdWWhbSSt+EJoAuZsCZdS3IeSi8dBnxgvlQuc/eb7IWxdI4WMW9fXuPi6EFs2rpewnT5Wn+t1pt7+F1p7209pqQ+trG2EuqoPKqEPiz+7CuG1/QNaH/08KLRJgnZ/vUYQW1afUKVHSUvN5/7swJyMZUyeI7xMP+87lMtR7ceKeXcZgGIZhmMAjn6MRDgl1Bbvsssvw4Ycf4vPPP8fll18uGw3uxqRDNBFsYunfdDp7VNDmivOkTffQaHVhL9sFR3WenFS5P47qQ3B21osN0QD0gHbcZVB5WWy5m44WBPYYJeYkwcHBuOaaa/DJJ5/ggw8+kF4td8PZjVP8czgdykLbA9NdW4+g8dnP0bu3WDzHdqg04nhRh7m4DvW/ex/tn+6C3WI9UX7w8f3TnesPw1LVDE2wAcGzc6COCj2xn6IABk3NhNqgQ+t722Bp7FD2DV1f/7RYKfdDusxTede2tbkTFQ/9n/SayTD24n6EQWAXwrHxb8tQ9/v3B5QfXJerE51yMi+SMyYF0yf5fzRCFlsMwzBMwOK5Oc8QM2bMwH//+18puDxB4didWiMsNoeSc/aoUyZDnTELKmOYkjMQmk/LVrAajiYP8345bNK75ehxjaMZjCokStZPc3d5DdFI7LM4oQvxYWh5xq8gcfXiiy/K9ZAI3UACgjSEa3GHOD+Z7tqSj4qH/46GZ5bB1tKJnn3FqPvfd9Gxcj8cQmid7nh32tbShb7D5bC198juhLqkaFGAuhgaEHHdbGjjw9G1MQ/dWwpg7zGdDPcu16LoMOkB0L4hyzuE4OpC9Q9ewbH530PZA39F+X1/QdF1v0Lzf9Z6KD8wLf4v//M28jx0Ej+HxRbDMAwTsEzKHYPcrDQlxYwGrSFIThrca/GS2FJrZVc/mlfLE9Rosh/fBEftESmsPGEv3QVnV/OQDSyqX2UMV1LeodPsQHBilpJivvBI3aCIB6km3Nunph1mKyzVzVIw6eIjoYkOHbD/dMe70+Tdsop69GlxMIxPEe+lXkYg1KfFQqXRoO397bA0tLnKE8rqdGl5HwrynTrd8Q6HFH09u46jZ3+xDE8vGaq8kpZVyy3vUlxei0MF/ecG9E9YbDEMwzABy6RxGcjNTlVSzGjQBodDHZGEHqt3xJY6Y7bLqzWU58nUBVvhBjhbBk0g2w9nS5lcYFMCAAxCO2YeIMeCec+n2WZyIDwtV0kxX3TcQovWJCBci/vfqWnqAmitbZXCyJARD5VeO2D/6Y6nhSY0lnN1CcijBY36xJqwNrXL4BayvFA28p9cD58ezGiPH2la/F8s3qe0sg55x1hsMQzDMMx5w+FwyIUZPRq9UXq2TE6d0mA6C/RB0OQshCZxgpIxEKrfdmwtnLUFlFByPWMv2Q5nN4Wq91BOCDkNCS5DiJKhoBLNHY2O+kYqGafH3Vg0B8WKw0d+HBP4yGdDPByutXvbc9pc1QSzEFu0TSHctUJ09d8/uLzHNHXFE/8pJ5dp2WVQ6eIry8q12DeKtNxQ1u6xVf33ey0tLtO15V1oHJ2K3m0/h8UWwzAME7Dkn8dohIGAikRLaCzO1rmlGbMAmoxZYsNzoAlnRx3sRVvEulbJGRp76U44uxplg84Trq6EYdQScwksQxjU46+A/tY/QDvzduofqZQ8PRa70G8JOUqKYU4ihcQIFltnrwyMYWvulPNVkXdrNMfTIssrYkWKF7FYKpukx+tEnofjTrvIo0/isYw3FjrT4JN5AYpGOG2i/3fxZbHFMAzDBCxHiytRVF6jpJjRYgiPhiYmHR19ZzF3VVAk1FnzoY7zLFqcDgfsR9fCUX9MyTkNpk7YKVqhWHtCkzIFqugMqBMnQLfoMRgffguGm34D7dhLoJl8tVBPQUrJ01PXZUVsrhCJDNMPKR5GAQXH6MuvgCE7EUGTxbMZOrogLgPOpxL/aTUyKqFKp/x4IQTNGaEcRisSRYOh86gMOjmhsUp35t7dM72805GVkYQp48coKf+FxRbDMAwTsGjUarkwZ4YhPBba+Cy0meweG2OnR+XqPkherSFCvTuaimEv2wnIroEjw1G6A86e1iFbcYabfg3DAy9BRxMnRyTIcNWES4iliWs5/TNBNdd32xE7wbsTsTKBwQDPzWkWU0kd+o5Vy3mzQueNQ9Ck9FHV0R9tZCii774EKT+9C4b0ODhMFvmDhafjTrcM5kS+WgV1WBBi7rwYyT++AxnPPILYB650RUIU+/rXMZJF1i3/713sdgdsNBeYn8N/gRiGYZiAZTJFI8zmaIRnijEqAcFpU9Dr0MFsG31zSRWRKMdQqaNdjcvBOO022CnUe91RJWdkOKoPwtleIxqZnhtaquBIoac8d1nUTlgs/qdXUkPTbXHAHpqA8HTP48yYLzDiVSANMdLFbrKia1sB+o5UIHhmNkLm50ox46nsUIub+K9dg6Rv3wRDZjysLV2o/9symCubPB5z2qWfBHIJI9d28Ixs5H72cyT/4h7E3L4Q4RdPRNL3b8XY936I4GljFME1qK5hF2XDy8hohEc4QAbDMAzDnDfG56QhJzNZSTFnQnBUPHTx2Wjscc0NNGJUamhyLoEmY46SMQhRF01U7Kg8AJi7lcwRIkSWvXwPnH3tSsbI0Y6/EtAHKynP0H2Wt1qQNudqJYdhTuJ6C+j/I1+6D5Sie2+x9G6FXzpFiJYsKVo8lR28UCRCCoZBa4fFJkOuU10V33kRjf9ZC1tbt/Juuj1JI1zTpoLMFhma6DBkPP0Q9EnRsHf0omNDHjo25cttbUw4Mp55VI47G1H9J9a+oby6HgVFQ0cv9RdYbDEMwzABi9Vmg83m/91M/JmQ+DQEjZmB1l4HrPaRN5xUcdlQj5kLVViskjMQmsDYXrgejoZCJWd0OEp3Aj0to27MqcLjoU6dJlpAQ49B6bM5Ud/rRMaldyo5DOPGJSDosRvN4jBZ0bnlCHrzyhE0MRURV02DPjnaY9nBi7m6GT37itBzsBQdaw+i4kevoORrz6JrZ6EUX1RGXtlo166VHPuljQuHNj4CkdfNlt0FaY6wkof/htLH/4myx/+Bogf+AltrlxBcYYh78Cp53IjP497wMlqNGlqtZw+2P8Fii2EYhglY8gsrcKykSkkxZ4IxKhFROTNh0YWhqYcadiNoOGl00GQtgCZ9ppIxEKrDXrYb9qpDQ86ZdToczaVwtFQAdouSc3qo26HT3ANNxmzRAvLcSKMQ2GWtZsSPnYngxEwll2Fc9BcQQ/6jfR72d+0qRNuKfbA2tktRE37VdBkso38Z+W/Q8fY+M6r/+AEK7/w9Sp98TtZB3i25112u/7r/8cPtlyHlnQiZNgaTN/0eU7Y/jbSf3wOVWoXOTXnoPlAiyzlEub7CGrSt3C/HPxpzkl3HD67XvXYvJ/LFaVxm8yrZGSmYNoGjETIMwzDMeeN4aZWc+JI5O8KTsxE6dh4ahdgaydgtddJEOVZLhmD3gNPUBXvRJjibipWcM0OGi6dAGcNBjT0h6Jy9bXA0HId1x6uw7XpDiDzPIq3TbEd1pw05Vz+g5DDMQMQjRf93bXha3PLCw7625XvRsTEfaqMecV++AuGXT3FFFexfbpjj5dJ/v6f1CPdbGtphbe6EtanjxCLn7xLlHFZ3jwDlOLE4rTZQNERNVOjJfE9r96KkqT6Z5WUy0xIwcVyGkvJfWGwxDMMwAYteq4VOyxPSni0hiWMQN+VS9DgNqO+ySu/PkOiCoc5aAHXqVCVjIBQ5zVGyFY7qw3Ls1dlgL9sFZxcFBzh1IjDpxTJ1w9HZAPux9TB//muYX3sYtu3/UebzOvUebA4njtb3ISIlB/EzrlRyGWYwJCDE/89gIUHT/O4WdO04BkNSFBK+ugThl0yCSq/1WP70y+BrGXm69eMdKP36P2WXxJKv/V2um9/aLO8w4tLJMGYnSc+bOjQIusQohC+aIseO0bV7qm+otOtVk//zKlYh/swWq5LyX1hsMQzDMAHLpNxMjkboBdQaLSIzJiAidz6aeu3oNrtCTZ+KCuq0qdDQWC2d57mEnN2NsBdthZO6AJ4t5K2qyQPMPa60uCan1STO0QJH7RFYd7wC8+uPwrLsF3AUbRnSm0WQgKxsN6PTrsHEm78hcjyHqmcY0g3iSTvjf9Q9r+mtTejJr0DQ+FQkffMGhJHgMgjBNep/g69ldOnuw+XoEtfTdaBUruteXCkEYSc0YUHIeeXbSHjkGiR+bSlyXv4WjFkJsLV3C7G4uV8NIzufL5DRCAs4GiHDMAzDnDfGZaUiKz1JSTFnQ3jqOKTMvRYmfRSqhCjxGCxDq4c6JgMqfbAcT+VpsR9ZJYRQvijsnQaYvWSbEFfNcPZ1wNFWDfvRNS4v1ptfh23Hq3B21IlTnf5cHSY7iprNSJ68EAmzOAohMzRSRLhUhFxoe7Tp1lX7Uf/cCvQqgiv5mzci4rKpUAcbRKFTyw+VPulJov+dfdpS34aKn70Gc20LtBEhSPr6dUh84loYUmJhqW5B4xsb0Z1XMeTxntK09gWVtY0oLKlUUv4Liy2GYRgmYDGbLRdEN5MLAZVag5ixM5A0ewlazCrUdVlhpwH2/bGZYdvzDkz/vhum52/3uFg3POsSQF6CuiPaS3fCuv0VmN9+EpbP/xcOIcBgMyklTo/Z5kBBfR80QeGYfOcPlFyG8Yx86qWocC20fSbp1pX7UEeCS4gXElyp/+8ORN80H9q4CEBzcvJgd3lPaXkxyvpM05rwYBnWnXbR/9rEdRU/9g80f7ANPXnl6CuqRdu6gyj93kuo/b9PTjn+dGlxpTLb2+h1Whj0p58z73zDYothGIYJWCgaYSFHI/QaQTEpSJq5GMaUCajttKKl13aq4DrXCIFnXfsX2Ha9Lic6hofxW8NhsTtwtNGEbrsaE294FMFJWVCpuAsh4xn5tAsR4RYQruXM01JwPb8c3fuKoYuPQMbP70HKd25GyJQxcryUeBgHlD+lPve1yPXo0iqDDoa0OCQ+vARp/+9OaKNDXWXEv+6DpSj/2es4csOvkLf4Jyh+/B/o3EljtU4eP9LzUY0y4WWyM5IxbWK2kvJfWGwxDMMwAUtxRQ3KqxuUFOMNosfOROaiO2V3wtIWE9r6/EBwnSHUFbKsxSyDfsTlzsGYxQ/Ixi3DDAnpBkU/0IYUFWeZblmxDxW/egttaw7A3mdB3B2XYMwfvoLY2y+GITsR6mAa/yieS0/Hu1YuRphWGw1yjq+Iy6Yg5/lvIPkb1yP66pkIXziRCp0oL88lN2TyjNNiJdZKphdJT4lHbnaqkvJfWGwxDMMwAYvRoIdBr1NSjDfQ6AxImHQR0hdch06HAcXNF6bgIqFV02FBWZsZoQmZmH7fT6DW6tmrxZwGKR9OCguCts8yTd31Kv7nLdT9exV6j9fAkB6HjF/ei+w/P4zYWy9C8PhUOfEwRS10HeI6ntb96xsqTceR54oiDEZfNxtjfvcV5PzjcQSNTYa5pgWN721B554iyNdYOZ6Q9Xgh7QvMZiv6TGc2T9+5hMUWwzAME7BMHsfRCH1BUGwK0i+6CclTL0GHVSMEl1l2KaTQ6RcCFpsDVe0WFDb1wRARL4TWjxGSlM1CixkRpB3oST8hLGjbC2lLYztq/v6pEF1vyu6FpvJGBOWmIPN/70fOc9+QQTQiL5six3fphRjTxkfIqIGqEINrMepkgA3aVot8bWyY7CZI5SOunIaEh6/G+FeeQtafviq9WNbGDnTuOIrSH72CcnFOc00zXdSA6yPOOq2svU1xxYURjVAlDODRAjnTF6H44CYlxTAMwzDMSHnqqacwZcoU3HHHHQgL8zyxbyDQXLADRz95Fk1FBxCudWBMtAGxIVroNP77W26flYSWGaWtZujDYjD5lm8g/bK7ZXh7hjkd3YfLUPXnD9G27pCS4xvUQjhFLJiA2JsXIGRyBnQx4dBEBEOt08Jc2wpTWZ1c9x6rhqPX5d1x9Flk+HiVWg11kEF6x4KyExEyKQPayFCRr4Kts1fO9dVXVo/Gd7eic1uBzBOKSNbhC/QJkUj7zi1I+NLlSo53WLVpLxqb23D/bYuVHP9iyc334/lnfstii2EYhglcevtM0lsRZHSFUz5XfFHEltNuR2P+Fhxb9i+0lOYjSG1DeqQBSeE6GDQqv/IUORxO9AqhVdJiRm2nBcaoBIy/5gE5Tou6DzLMSDhXYqs/IVPHIHLhRIRfNAGG5GjpzdKEGKWgUuk0Q75nTrtDCjBbdx/sXbT0omtfMVo+242ug6WA2H8u0MVHIv273hdbm3YeRnNrB2679hIlx79gscUwDMMEPLsPFsrwwNMnnduIVV8UsSVx2NF0ZBuOffY8mosPQe2wICVcj5QIHUL0GmjV519wUWj3TpMdx5tNcj6tkNhkTLj+a0i/5HaodSy0mJFDYqvyaRJbB5Wcc4faqEdQdhJCpmQgOCcZxqxEOReWhroOiu85GUNDEVjkqXL0mWGqbELPkUo5gXJ3XjmcVptS27lDera+eysSvSy2quuaYTJZkDMmWcnxL1hsMQzDMAHPO8s2Sq/WjYsXKDnnhi+U2FJoPrYLRSteRmPhHth6uxAZpEFapB4xwToYtCqoz4OXi4J2kDeLPFk0RssGDcKSxgih9SiS517LHi1m1JDYqnj6A7StPXeerdMhvV1CdKk0ath7zbBUN8FhsSt7zz8ktsizlXjfFUrOFwO32OIAGQzDMEzAEhJkRPA57kL4RSV2/DxMuv07yFhwA4xR8Wg3OXGs0SSjFbb02GASosfhw3Eh/aG5s7pMdhnSPb++F6UtZjj1IYifMA+zv/pbJM+7noUWc+aIx5jCSPjFP/FOmWpb0FNQie78cvSV1MFuscl8935/WPsCikTY3dOnpPwXFlsMwzBMwDIpl6MRnkvC03Ix/qYnkLv0q4jKnASHLghVHRaX4Gl1ia5ei116nLzd/CIhR8EvKAx9ZZsFeeKch+t6RdqB4JhkZF50A2Y9/DtEjpnKwTCYM+bEc0sb/rAQfr4Wr+aJLG9SXH5hRCNkscUwDMMELGPSEpGWHKekmHOBMTIBWYu/jGn3/gjpc65BaHwaLCodyqUA6kNRs2sS4U4TCS8HrDTGhFpjo4R+Mae5skhgUV2N3VaUtJhwoKZXjs1qN9mhCw5DTNZUTLzpcUy6+/8hKDpJRmpjmDOGhAN5a9wL/RsqPdy+L1Ba/E8xnnepbWhBaWWtkvJf+BuHYRiGCVi6evrQ02tSUsy5gjxHMblzMemuH2DSLd9E8vTLERqXCgu0qOl0ebry6/pQLMRRdYcFTUIotfba0CFEU7fZLr1f1O2QAlvQQts09qpb5FOACyrb1GNFTYcZJUJY5QsRd7C2F5XtFphEeb0QWVGZEzHm0tsw66FfI+2S26E1BClXxzBng0s4KFLipKhw/+ufHm4f/fuCpH0FdREPCwlWUv4Liy2GYRgmYMkvLMexkiolxZxrDOExSFt4M6bf/3NMvPnrSJ11FSJSx0JtDEWHxSGF1tFGEw4IoXSwtgdHGvpwvMkkw7PTPFgVbRaxmFEmFvJa0b4jDb04JMruq+5FgTi2UtRBXiyotQiOTkDsuFkukfWVX2HSnd9HePoE7jbIeBWhIU4spCVIVLjWJ9On2/dF2u/e9jbZmcmYOvHcRpo9E1hsMQzDMAFLZU0DauqblRRzvjBExssw6zMe/DWm3/0DZC26HYmTFiIyLVcKJI0xBGaHCu19dtR3W+U4r3IhsMjzVSyEV5kQXhRNkLofUpk+m2jA6I0whkUjLDETMTnTkTJ7CcYv/SrmPvoHTLrrh4jMmsZBMBifIOSD/L9ry6Ui3Hnu9On2fdH2u/d4k+SEGGSlJyop/4VDvzMMwzABy/L1u2E06HHFwulKzrnhixj6fbSY2hvQXX0cnbXF6G6qQV97Eyy9nbCbeuGwmuGwWWC3WUVJJ9RqrRBOOqh1BmgMwdAaQxEUHi2FWqgQW2EpYxGSOAYasZ9hfEnXoVKU/fF9tKw5IFLUhKYpDTytiaH2fbHW+oQojPnB7Ui+/0qR9h7dvX3iO8KBiPAQJce/4Hm2GIZhmICnsqYRGo0aKYmxSs65gcXWmWHtboOprQHWnnZYTT2wicXpsEOjD4JOCCwKeKGPjIchPFaKL4Y513RKsfUeWleT2HJJCoJkBRFIaW/VZUiMROYP7kCKl8XWoYISdHT14tJ5U5Qc/4Ln2WIYhmECnvSU+HMutJgzRxcahbC08YgePx8J069EyvwbkXrRLUiafQ1iJ1+MiKxpMqIgCy3mvCJUhOwapwxGovUpaU95F1jaa/W4Nr1OfVMbKqrrlZT/wp4thmEYJmDp6OyBSq1CeOi5jVjFni2GCUw6D5ai6oXl6DpcJlJn6/M5u7RK/CNhQ7mU469pXWQIEu9chJQve9eztW3PEbS0d+LGxQuUHP+CuxEyDMMwAQ/9MdbrtZgzLVfJOTew2GKYwKSvolERWsxo0ArBFX3JZCXlHcizZTZbkZEar+T4Fyy2GIZhmIDnnWUbEWQ0nPNfPllsMQzDfLHhMVsMwzBMwBMZHnrOuxAyDMMwvqezuxet7V1Kyn9hscUwDMMELJNzM5GbnaakGIZhmEChpLwWhwpKlZT/wmKLYRiGCVgoEmFSfLSSYhiGYQKFxpZ2VNc1Kin/hcUWwzAME7BQF5P2zm4lxTAMwwQK1EU8OjJcSfkvLLYYhmGYgCW/sByFJdVKihkNra2t2LlzJwoKCmC322E2m1FUVIT8/HxYrVZZpqGhAZs2bUJeXt6JvNraWuzdu1euKY/Kv/766/jXv/6Ft956S9Zhs9lk2f6UlZXJ4+i83oaur7Cw0ON5+2MymfD555+jrq5OyWEYxl/JyUzGtInZSsp/YbHFMAzDBCx1jS1oaG5TUsxIsVgsOHbsGN59910ppnp6eqRwOnjwINatW4fu7m44HA4pnEhIrVy5Eh0dHTLvyJEj2LBhA2pqaqTIIfGya9cumb99+3Z89tlnOH78+CnC59ChQ1ixYoUUad5m48aNUjjSfQ0H3eezzz6LkpISJYdhGH8lLiYSqUn+P2k9iy2GYRgmYImJDEdUeKiSYkYKCScSPZGRkdKrVVpaCoPBgJiYGJlubm6WXqCuri6EhoZKIUbiitaUFxsbi+joaGzdulWKqu9+97tSxFBIfPJc7dixQwqbkdLS0oJ33nkHzzzzjFxI9JGnjbxu+/btw/Lly6XnbP369VLUvfTSS/jvf/+L6upqeb1EX1+fFHN0HXRdbk8cXR+Jsb/97W/Ytm2bzCNoZhy6J/c5//GPf7DHi2H8COoi3tTSoaT8FxZbDMMwTMAyiaMRjhryTpG4IdF0ySWXSOF09OhRKT5SUlLkvGEkxEgskYcrJycHcXFxUojQMZRHZcLDw2E0GlFVVSU9XJRPx1955ZXyGJVKpZxxeKjOtWvXSoFEnrTNmzdLcdXU1CS9VW+++aas//Dhw3jllVfkPvKckbAiEUWikCCBRvdBHjvyxlVUVMh73b17N9577z1ZN4nK8vJyWZ5EIXV7PHDggMwn793q1atP2xWR+WJS39CEHbv2oaSsAnbxXF0oHDh0BK+++T5efv1dudTWN8h3ndi7/zA+X7UeJrNZpim/pbUNGzbvkD92ULqjoxOffL5GHvvqmx9g3aZtMJ/Gg+wtZDTCoxyNkGEYhmHOGxSJMD42UkkxI4G62jU2NkqP0OTJk5Geni4FT1tbm/RskSeLhBWVoQbXxIkTkZiYKMuQJ4k8RlSOvGLz58+X+z7++GP84Q9/wN///nfZQJs1a5YUYyOBBFFQUBAeffRR/OUvf8H3vvc9Kdza29tlXb29vbjhhhvw05/+FBqNRl7fj3/8Y1x77bVSUNE1Ep2dnbjzzjvx+9//XopD8q6RECNRNnbsWPzxj3/E9ddfLwUiQaKK7uFPf/oT/vznP+Ohhx6SwsvtEWMYNyRG8gsK8enytVK8mPpcAt/f2X8oX4qpyupaNDQ243hRKV5/+yPUNbgi/K3fvB1/+tsLKBT5BL1vJCo/WrYKveIeOzq78OmKddiz/5A8vrq2Dlt37MWaDVvFe+d7wdXc1imutVlJ+S8sthiGYZiApam1A63iDzIzckg0UVCLNWvW4MUXX5ReH/IKUQALEj0hISFS6JDHisTN+PHjpSeLhAvlUXfD5ORk6HQ6TJ06Fd/61rdw1VVXSdFDXiOql+pze5xOR0REhBRD5MX6v//7P3k9/YNojBs3TnZZpOsiL9ykSZOkYCKhRNfnZu7cufK6SIxNmzYNlZWVUrSRQJw+fTr0er30vJFAJOLj4zFhwgT85z//kWKLrpthPNHS2o629g7ExEShu6cXNXUNMr9PPOOHjxwTAmSPFGLkQSJhsmP3frz29odYvnoDGptaZNn2jk6ZfuGVt+Sy72CePP54cRne/mDZiXxa8kSd5D1qbm3Dex8vl3krxLF0DVabDbv2HsBOcY5X3/pA7tuyffcp4od+TFi9brN4X/X4zjcexo+eehzf/9bX5Pm279ynlALCw0Lx2cp18vr64xZeazZswfVLr8T/+84T+O6Tj2DenBmyfGOz70UQTVpP47b8HRZbDMMwTMBypLAcx0o5GuFIIW8WCSaK3EdihbxBJJpIiFAXPNqfmpoq82g8k1vUkKeI8sjjRXkkfmjcF3Xvo+6G99xzj/Qc/eY3v5GCh7rykdAZCTQ+jIJqUDdB6t5I1+Qeh0WQh0yr1SqpoVGrTzZ56NqosUiQ58wTJMJo3Bd1mSSv3kivl/liQc9PQ2MT6Gm6aN4s8a7oUF5ZJUVPX58Jm7ftwso1m1BVXSu9X+9/sgI79uyX3iTyHJFwIpFEgowEVnNzK44WFsuuenX1jVJUdXf3SC9SbV29FFXlldWy+95nK9Zir/QqNWHDlh2yjk5RbuOWnfhs1XrxjtajqKQMb7z7sRCA9QOedbre0NAQeR37D+bLfTHRUXjg3tsQHxfjKiRYfPnFUqiRgBuMVquBQXw3kLAjz5ZefAfMmjYJS664BLoRvJNni4xGOIGjETIMwzDMeYMiETa3+v8Aan+BuuQVFxdLwfTzn/8cv/vd7/C///u/uO6666S4IjFFXQRJqJAYIY8WCTHyKJHYIhFDwosEGHVHpPFQNNaKBBJBv6ZToApau8XO6aDuitQd8Oabb8Yvf/lL3HjjjdLbNVpILJLXju6RgmiQ6CNvGHWVpH10vfX19bKrIEHnJOH5s5/9DL/4xS8wb948mc8w/TGZzGhuaRVCQ4sJuTlSqHR2dYtnzSXOqdtpeHgobrpuMW69cSm0Gg1yxmTg4S/fhfTUZOmdojpCxbN48/VXS+/QV750u/xBobWtHRNFnQ8/cDcee+hLmDltMq6/5kpMmZgrz5F/9DiWLrlMeqYWCKG3bec+6SlzOJyyvq8+cBe+/sj98hporFV/sUVi6IpFC5GWkoQPP12Jf730Ov754mvSG3zJRXNlGRpXmZgQj2uXXI61G7ZJ8efm5L7LUF1bj2dfeBXPvfwGlq/eiIvnz5b7fE1MVDiSEvx/0noWWwzDMEzAEhcdKSMSMiODugeSJ4fGaZGAIshrRNskkKj7H3UlpAYZdQtMSkqS2yRayHNEjToSYCS8SHBRF0MSaBTp71e/+pWM6kceIsqn7nyDoeiCzz33nCxLy4cffihFGXnKPv30U/zzn/+UYpAEG4mjkQo2gu7jo48+wm9/+1t5zQsXLpSikro4kvgirxuN33J3PaSxZuQ1e/rpp2V0Q7pu6vrIY7aY/rR1dEhPFHmp/vvWB1izfgvyC46fECbB4n1JSU5ERES4eHeMSBMCKzU5CWHi+ad3icRXSEiwLJOXf0x2+/v4s9VobHZ1LyToWd+0dSdKy6swb/Z0WZa69UWId41ETZB4jkmAWcSz2dPbK9+LcTljEBIcjCjxHsaI96e/Z9cNCbknH/sKFgpxROKup7cPK9duQsGxIqWES1RNmjAOSYnxWLtxq/TYufNDxXXfeO1iPPqVe8U5ImW3R/LqUTdC8sT5Gpq0vr7J/6f2YLHFMAzDBCyTZTTCVCXFnA5q/M2YMQOXX365HHtFUCMtMzNT5tGYJhJJc+bMweLFi6V3iKDjaKzUxRdffCKPBBeNk6I8EmDUACQBtnTpUuklomP6QwJs0aJF0jNGZd0LCT3yrI0ZM0bWuWDBAhkQg8ZUzZw5Uy7BolFJwmnJkiXIyMiQgik3N1eem85D13HvvfdK0UblKFBGdna2LEeeLaqf7jctLU16z0hs0vKlL31JHk/76Jx07XQNDEPQDxDFpRXSmxQvnlOVSo2E+Di5r7S8UnYjJJFPYmi4bnXUjXDDlu04XlJ60uur/I5gEyJo74E86T26eMFs5GRnymeQigxHWFiIeL6HbubTDwcknuh8t920FN96/CF8+4mHEB0ViW27To7ZIkgM3nDtlcg7Uii7QhJ2uwMVVTWyCyIJu28/8VVZxx03XyfFGnVt9DXFFI2wwP/nxFOJD9Tjx5UzfRGKD25SUgzDMAzDjBSaT2rKlCm44447pNBgGCbwIO/SR5+tkl6c++66BbHRUXKMFY2rqqtvwoJ5M7FPCKWoyAjZFe9YUQl27jmAuTOnYfy4bLzx3ieIFvtysjLw4bJV0mt12SXzsWPXfhnUYqk4hjxOeULgzJo+GZMn5MJodP0IQmLuXy++JrsVzp45VXrUdu45KMdckWds9swpQpzNgcVixW/+9Czuuu16TJs84cT4Ruq6+Nd/vIjpUyfJcVmUT56pP/z1OaQkJeCRr9yDPz3zPMZkpuO2G6+RERc/+GSFDKpBP1j87pc/QI0QgG9/+BmefPQB6fkir++h/KP4z2vv4ttf/yrGZo+R5/IVqzbtRWNzG+6/bbGS418sufl+PP/Mb9mzxTAMwwQuDU1tF8SklwzDXHg0NjVLwZWWnCS79BEkWuLjYqW3qrC4VHqmTkd4eBiioyOxedtuvPCfN1EoRBkFpaAugRRKffe+gzJE+7P/fhVP//0FbNq6S3ZPpO59y9dsxF+efRHbd+3Dwvmz5Jgxtfr0c9iRaFt8+SWyC+T//fNlWe+f//5v2T1w4YLZSikXlGc0GHDVZRdLz51JXBt5vKlLZO7YLLz+7kfyeKpnxeqNmDNrGhKEDXxNdGQYEuP8f8yW5pfkL/fA3557Bd987EElxTAMwzAXHrsOHEN7VzfSU3w/WLs/q1atQkJCguxa5+6OxzBMYGG12hAeGoJxQnBQ9ztCLYQJjc2irq0kfFKTE+UYq9iYKGi0GkQIYZWcmIDQ0GAZvS85KQEpSYmIjHCNLaVohtOmTEBWZob43kpGRESYDHZB3iQKRiOnKEhOQEZqCsZkpsmxkyR8pk6eIMdehYWFyjIUfIM8ahqxj4RSVma6jD5IwskNnVun00phSF0Tg4ODpAduwjjXpOMUbTA9LUVeO6WpS21qqrgfcRyJLBqzlZmeKo+32exiP50nTdZBAtLXBIvzUej3kGDX3Hj+xmtvf4Qbll7J3QgZhmGYwOWdZRsRZDTgxsULlJxzA3cjZBiG+WLD3QgZhmGYgIe6mMRFjz5MOMMwDOPf0LQetfUnozb6Kyy2GIZhmIBlkoxGmKakGIZhmEBBRiM86v/RCFlsMQzDMAFLbFS4HETNMAzDBBYdXT0XxKT1LLYYhmGYgKW2oUVGJGQYhmECi9joCCQn+j7q4dnCYothGIYJWPILy1FYUqWkGIZhmEAhJzMZ0ydmKyn/hcUWwzAME7C0dXShvatHSTEMwzCBQkRYCGKiXCHz/RkWWwzDMEzAkpwQi8S4KCXFMAzDBAqNze2oqm1SUv4Liy2GYRgmYJlM0QizOBohwzBMoCGjERZwNEKGYRiGOW9ERYQiIjxESTEMwzCBQldPr+wq7u+w2GIYhmEClqq6JhmRkGEYhgksEmKjkJYcr6T8FxZbDMMwTMByREYjrFZSDMMwTKCQnZGMaRyNkGEYhmHOHzTpJXU1YRiGYQKLsNAg2VXc32GxxTAMwwQsaUnxSE6IUVIMwzBMoFDf2IryqgYl5b+w2GIYhmECFhmNMJujETIMwwQaxRW1OHTU/6MRqpwCZXsAOdMXofjgJiXFMAzDMBcmFdUN2L63ALUNzchMS8RFsyYhKSEaJRV1Iv8IGpvbkJ2ZgotmT0R8TCSOl1bL/Ja2TinULpo9CdGRYSg4XoHt+wrQ0dmNSeMyZfnwsBAcPlom8o+gp6cPUydky/yf/uT/IS45C4ZwGrytxswpY2U9Br0Oew4dl/XbbDbMmT4eC0V5jUaDnfuPynz6s7xAXCPV43A4Zd6uA0dFGbXMnzdjPKxWG7aJe9p3uBB6USfd06ypY9FnMovyBTh4pBjBQUZ5zmkTs9Atrm2bqCf/WBnCQoNlPgnRdnEvVP5oUQWiIsJk/vicNDS3dsrzFpVVI1bY5KJZEzF2TAoamtpkPWWVdUiMj5bnHZOeiJr6ZllPZU0DUpPiZD1pyXGoqGmU9dSK/RmpwvbinsjTWEq2F7ZsaGqV4y6ofHws2b4GO4Qtm1s7MI5sL85Lk5YeLaqUNm7v6MZEsr3IpyiTeeJ+qJ7u7l5MmZAl6wkNNuLAkRLsEOcle8yYTLafCKNBj71ke1EP2W/2tFxh+0nQasn2x+R5HQ4H5s+cKMsTdE879xdArXbZfv5MYXubXd7T3kPC9jodFoiys6eOg8lskeUP5BchyGiQ1zJ9Ura0PV1j3tFSaXuqZ8r4TPEc9Uhbku0jyfbiniaMTZfPHdVzvLQKsdERsvy4LGH75nZ53lLRwEyIE7YX581KT5IBYCifnvOUxFh53vSUePFZCNuL89bUNYl0gsxPSYwRn129tAF5BbLI9uK8CXFR4rOukfWQ7cdmpWKhOG9MdDiOFVfJfIr6NmFshjxvZHgo8gvLZX6XsP3k8VnyOQ4NCRLPnrC9qL+3zyzuP0eeN8ioF89qkTyvxWIV9sqV9eh0WvFsH5P5DrsD8xTbq1Uq+XzvFPkqsU11zJ85ATY72b4Aew4ek8eSbeZMGwezsD2VJ9sbyfbinmZMzkFPr0mWPywa5HRtVH7qhDGyezHlFxwvF89RqKx/orB9a3uXvKfCkir53FH+OGGLxhayfQFKymvEcxol87MzklBHthc2Lq+qRzLZXpw3IzVBzv1E9VQL26eJz4KeM/psykQ5qqe+sUW8N0myHpoHkEKYU/kmcZ6xY1JF/kT52UvbCxu0iesan5Muy1O3ORqLSuftFPcxOXeMLE/P1qGCUlm+V9z3NLK9uJ7gIAP25RWJz6RA2mmWeFapHr2w3+6DhfK8dmHXeTMmyHroWadrpM9QGF/UMUnYbYIo45Bldwvb0ztD+XOm58IsPk8qvz/vOAziHaP8mVNyxOfvsj2FZg8JDpJ1TxXvaKd4Xij/SGGZfIfpM5k0LkPanq7xWHElosn2Ij83O1XYpEOet1ix/QJxTzmZyagTz++6rQcQERaMGxYvkO+rv7Hk5vvx/DO/ZbHFMAzDBDb0x50altTwogZJkhAJIaJBTo1d+oNNDfIIIZooP0g0TNpEg57KU+M5UjRsKJ8a6tQYqBONJIvFJsUX5ZPQIWFC+TbRCKcGGgm5H3z/+8geOx6z5y0UDRAj4mIiZHkSVQ1C3NF5nUJIUeOB8tVqlTwn5RMkZCif/kRTHokc0e4R+TGycWYXoqC+oVU2AqlxRGVJrNA1UHlqMFODiOqJE402ixAXVD815KmRSuXpWqmhVCfqoYY0CUHKjxL31meyyHsiGxlFQ5nyqYFNDSiqv7OrVzbiKJ8EJwkKyqc12TZJCKow0bilhjjln2J70Uik/D7RIKfjKZ/qIzFF+dL24nxky5O2b5UNdbo+Kk/XS/dD+SSepO1FPt0fNdDo+qmBSLYnO2il7dtlQ5dELNmLypP9pO2F8INoEZF9qTxBdZPtIWyfFCdsHx8lBRnl04Sq9Lklic9E2l40WMmWZHv6nKluOjddG5X3aHuRTw1peo4on54rk7R9qxTCdO+UT88hiRfKpwY22YqukZ5bsi3da1e3YnuRT7amNOVL24vPgsqT4CDb0/1SfeGioUrXL20vzkf10/nJ9lSeRBLZnsrT9Q5neypPDfgmcf9Unp5FEgxUnp5FsheVJ/sNsL2wL30m1Bol0Uf5JLDIlvX0mQgoj+ofbHvKo4h0JBYonz53+lGC7ukU28v3IUZck8v2dI10b3o9fSYxLtuL547K03NItqf6SdyQrag82Y6END2XJ23fKp9zsj2VDyfbi/eAytP7QDan66c1vTf0mZy0PT33xgG2JwFC+XQeei8p32wWtle+i0jQ0P1Q/fRekzChfLI9PXtU3pPtyZau98Fle7ITPdtUnr5nBthe5FH9BN0T5TtEGfrOoe8vKkN5dAzVSeVJKFKdVJ5+tLLaXN859P1I10Dl6ZroHabybtsnxrneB7I9lafvX4OB3ocYec/0/Uzl6btI2l7UQzYi25Md6Bmle/JHWGwxDMMwjI946qmnMGXKFNxxxx0ICwtTchmGYZgvCm6xxWO2GIZhGIZhGIZhfACLLYZhGIZhGIZhGB/AYothGIZhGIZhGMYHsNhiGIZhGIZhGIbxASy2GIZhGIZhGIZhfACLLYZhGIZhGIZhGB/AYothGIZhGIZhGMYHsNhiGIZhGIZhGIbxASy2GIZhGIZhGIZhfACLLYZhGIZhGIZhGB/AYothGIZhGIZhGMYHsNhiGIZhGIZhGIbxASy2GIZhGIZhGIZhfACLLYZhGIZhGIZhGB/AYothGIZhGIZhGMYHsNhiGIZhGIZhGIbxASy2GIZhGIZhGIZhfACLLYZhGIZhGIZhGB/AYothGIZhGIZhGMYHsNhiGIZhGIZhGIbxASy2GIZhGIZhGIZhfACLLYZhGIZhGIZhGB/AYothGIZhGIZhGMYHsNhiGIZhGIZhGIbxASy2GIZhGIZhGIZhfACLLYZhGIZhGIZhGB/AYothGIZhGIZhGMYHsNhiGIZhGIZhGIbxASy2GIZhGIZhGIZhfACLLYZhGIZhGIZhGB/AYothGIZhGIZhGMYHsNhiGIZhGIZhGIbxASy2GIZhGIZhGIZhfACLLYZhGIZhGIZhGB/AYothGIZhGIZhGMYHsNhiGIZhGIZhGIbxASqnQNkeQM70RSg+uElJMQzDMAwzUp566ilMmTIFd9xxB8LCwpTcLzY2mx0miwV2uwNajQZGgw4asbbabDCbrbA7HNBpNTDo9SJfDatV5Fvc+VoYqLxaDQvlmy1wiOaLXify9TqoKV+UpfIn8/UiXyXzaKHmjkGnk/WoVEq+qIcaQVQHLZRvEnm0j6A8o0Evj3XXo6J8kUf7ZL64drNV5Itj3fU4HFTeIq9VreTrZb5D1nEiX9RD10r3SPWQLegeqbyO8oWtqB6rsJ3MF9dOtrDbhS1FeZtYk62M4l61wnZkY6qf8snGVM/JfIvId9me6qH1Gdle1EP3d/a2F/niH9VBi8wXtjeJfSO2vTu/v+3lZzJy21M+2ZJsQfdiFGVP2r7fZ9Lf9iKfbDrA9iKf7smz7fvln5XthY1F/gDbU/6A98Fle/pM6DrJTnphe3rfhrc92fLk++DR9qJuup6hbE/5ZEuLeB/OxPayvCfbi3zP74Ne2s5fWXLz/Xj+md9C80uBkjeAvz33Cr752INKimEYhmGYkbJq1SokJCRg0qRJokFgUHK/2BwrrsIbH63HB59vQW1DCxLjohEZHor8Y+V4/cN1+GjFVjS2tCM5IQbhocE4eKQEr76/Gp+s2o7Wjm6kJcUhJNiIPYcK8cq7q7FszU50dfchIzUeQUYDtu87ipfeXoHl63bDZLIiMz1RNtI278rDv99cjpUb9shGWnZGkmwEr996EM+/8RlWb9onrk6FsWOSZYNvlUj/67VlWLf1gGgUazEuK0U2Cles34PnX/8cm0R91IDMzkiWDdTP1u3Ci6L+7XuPyOsYk5aI7p4+fLpmF15+eyV2HzyG4OAgZKTEo03cB90PXf+B/GKEhQQhVdxXc0sHPly5Da+9vwZ5wh4RYSHSDnWNLfhg+Ra8IexzVNgvOiIMCXFRqKxtwnvLNuOtTzaguKwWMdERiIuJQGllPd4Wee8u24Ty6nrEx0QiJiochSXVePPjDXj/882oqW8Wto9CZEQojhRWCNuvxYfC9g3N7Ugi24cF41AB2X6NvNaW9i5xjbEIFfew9/Bxce2rpO07u3qRnpIg73nH/mN4+Z2V+FzYorfPgsy0BGn7rbvz8e+3VkjbU0M7S9ieBMSGbYfwgmJ70T4Xtk+Rtl+9eR+ee+0zrN2yX35G47JSZQN+hTj++dc/w8adh6VwyMlMlvV9Lj5r+my37ckX4kDYXnzmPX0meX1k+10HjiEkyCiekQS0d/aI+9khr39/XhFCQ4KRlixs39opn73/ivs9fLQMEeEu29c3tQp7uWxfUFyJKGF7sltVXbOw/Sa8JexZVFaDaGFfsnMZ2f7TjXhHLGVV9fLzINsfL60Rtl+P9z/bjOq6JiTGRou6QlFwvFK8D+vw4fKt4lxtwvbR8nM/fLQU//1gLT4Wz0NzW6d8PkLFc7JPXPOr763Cp6t3oKOTbB+P4CADdh44Kmy/Cp+vFbbvNSND2J6E0tbdR/DSW8ul7aTt04XthWDZuP2wsP3n4jnfKwUa2ZJE3hph8+fEc0+2px9ByPbEig178bz4TDbsOCSOd9meRJC0/RvL5WdM56P6e/vMWLZ2pzjvCuzcfxRBwvaZwvYd4lmh6/6PuM59h4XtxbNEtm8R9/fRqm3473tk+1L57KUkxopnsU3ahZ7NI0UV4lkNQ1J8tLTfe8KOZM/jZPvIMMTHRsrr9Edee/sj3LD0SvZsMQzDMIy3Yc8WwzCMbyGvIckYEpH+iNuzxWO2GIZhGIbxOfTrOv0izjAM4w2Ky2txsKBUSfkvLLYYhmEYhvE51E2IurwxDMN4g4qaBhwrrlBS/guLLYZhGIZhfE5hSRXKqxuUFMMwzNlBwTFoDJ+/w2KLYRiGYRifQ40inc5/I4cxDHNhQUFqpk3MVlL+C4sthmEYhmF8ztQJYzA2M0VJMQzDnB0UZXJ8TpqS8l9YbDEMwzAM43Nys9Nk44hhGMYbyLnEzBYl5b+w2GIYhmEYxuf0mU5OFswwDHO2UDTCQxyNkGEYhmEYxhWNkCaBZbwLTbjc0dWDytpGVFQ3nFiaWjpgtZ4+1H5Xdy9a27ukl2CkUBh/mniWJm+m848Eqr++sVWuh5jidUioPHkw6sTxdrtdyfUtdrsDnYptyI6dwsa0PdL7ZXxPVV0TjpdWKSn/hcUWwzAMwzA+p7i8BlW1TUqK8RYWiw1bduXhz8+9h2df+QQvvPE5/vnfZXj3s00oEjYnYTQcuw8W4vN1u6SQGSlNLe145d1V2J9fDLM4/0iobWgV17Yc9U1tZyC2gDpx/Ecrt6G316zk+pZekxnb9xZg2ZodaOvowuGjZdi5/yh7Z/0Ig16HIKNBSfkvLLYYhmEYhvE51CgyGvw/TPOFyoRxGfjmQ7fgNz98CD9+8h7Ex0Rg8848VNc1SW9Me2e39HiVVNSisqZReqV6evuk94Y8Y20d3VJIdIs8EsVUrqyyTh5nH4U3hzxPtQ0tKBXHUh1DeaNIsNXUN8Mm9pHXiqYFoPJ0jTbbwPIqFZAYH4UbFy+AMUgvvXF0jVW1jSitqJP3Q9fu9oBRHXTtVD+dn7xpZAM6rqyyXl5bfZPruuiYPiGs3PdMdVK53j6TFFld3X1i24yJwr7zZoyXUTXJ00XX775eshHVT7asa2zpV1eTsLFJuQvG21A0wqkT/D8aoeaXAmV7AH977hV887EHlRTDMAzDMCNl1apVSEhIwKRJk2Aw+P8vr+cCmhMnPjYKEWEhSg7jDUiYkHighv64ManSvkaDXooCEgIkVMJCgrBJCK/Vm/di3+Ei7M0rksK3z2TFrgPHUFxWA434fOKiI5B3tAwrNuzGnkPHsW3fESEinEhOiJF1uiExQt1C05LjkZIYKz9bggQHnfOdZZtkveQ1KyypxPjsNOlho2OmT8qGSYgf8qYdL61GTmayOGc53hXHHCoowfZ9BUgX9cZEhYtrFxcvIM9WSXmt9KZNn5iN/MJyvPLeKjlmh7xNOw8UiOuIQ3RkmKirFK++vxpHjlcg/1iZrDMrPUkoNmDzrjx8uno7Dh4pkcemJsWJ91Mny733+RbsF3Y5Wlwpz2c2W7Fhx0HZXdJuc0jP3NGiSoxJT5Tbn6/fhbVb9iPvWKkUVPGxkfJcn63dhYN0H3sLZDrYaJA2UqvZv+Ft6Fmn58Rfee3tj3DD0ivZs8UwDMMwjO/JGZMiGudxSorxNSQ8wkKDpWggrxGNQbrnpivwkyfvxeTcDNktLyk+GrOnjsOCWRNx+YJp0ArR1NjSjqWXz8XPv30fllw6W3qHyOs1Ekj4HSwolXMf/eiJu/HkgzdLQVdV13zCO0beok9WbUN6Sjy+cscSmMT+D5Zvxi3XLMQvv/NleezbyzZKb9NQOIQaIm/TTUsuwne+dhviY6KEUDoux1Vt2ZOPhbMn43tfu0NGwCRPF10XibVDQmQ9eNc1ePKhmxEqBOjarfvR2NyOIrGPRODPn7oPN1+9UHq8MlMTcNmC6Zg5eSyuumQm9HqtPHdXTx8O5BdJEUr3d8PiBdKzduBIsRSbdG0Xz56Eb4pz0D3SWLqunl55LONdKOjOheA5ZLHFMAzDMIzPoUbRcA1oxruQGCCBRd3kJuSk45K5k2U+ecH6+iwePS0kvkhYhIYYZTn6zFy+pZGh1+tw9aLZyM5Ikt0XG5vbRK7zRB3UZZA8VzQeat708VLcUZdD8npRV7/jZTVIFtfQ02MathGtVqkQGx2B1KRYhAQZkZ4aL++3pa0T3eLYaUI4BRn1mDwuEyHBQbJ+GitmtdnQ1d2DBrEdGR4qy5JAIlFKXSqpS2JwkAGXzp8Ko1h7wiQa+GTX1MQYJMRFCUGVgLiYSDS3dsrxa7FREUgU9xAdEYa46EhpE8Y3SAHN0QgZhmEYhmHc0QhrlRTja2jMEQkW6hJXU9+CT9fswGsfrsUHK7bg8LFSj/MTtXf2YOWGPXjjo/WyK+AOIYw6R+GVIQ/SnkOFeO2DtXj70434dPUOKYDcATH6zGYpQoT+kmOnSOgQVnHcyk178d5nm7Bt7xEhYiKFQBo66iB1LwwPC4ZO5/I2EeRRIk/HUNEK6RqaWjuEHXbik9XbZWTMqIhQKbTmTBsnA428I66ZgnDkHSuXAs0TlN/Xz3bUhZK6WGoU8RoSbJACj/E9NQ3NKKnw/winLLYYhmEYhvE55CmhLmmM76EADhQYgsRMZGSojARJeufLty3Gdx65HfNnTJBjlQZDQR1IHN2weD5+9MRdWHLpLESEjnyMHQm8bXuO4KJZk/CDx+/EV+++Rnp93GOvwoKDZZdF6rq4btsBdHb1wmjUIzEuCo9+6Tr89JtfwmP3XS+78iXERspjRopGrZJdJykQS3tHt/Q+UeAPEoBqsS8sJBgTx2bgWw/dgh8+cTcevOtqXH7RNOkBo7J0zh994x5xfRPkmK5OITw9ERJkkF0Q5bxxQnRRcAzqGqnRqOV5mHMHfXYXgrBlscUwDMMwjM8JFY0i6qLF+IYuIVxIVFGwhz2Hj8sgEhS0YeyYFBlIgDw+JHgPHS1FdV2zHPNEedSVjzxgNFaLvDMkGiiK3mFRD5Wn6ITuqH39oW57JJ6PFrkCURQcr5ARDsNCg2RdBUWV2H+kWOaR56r/8RTkgrxSNL4rSQitiPAQ6UWjej5etR2fiMWT5204qFtklBBbNC5wy+48ef15wgZmi0V25aMuh3QNO/Yfxd5DheI820S5fDlma/POw3L8VsHxcrS2dSEpPgrh4j5IwFHgEep2SPdLkJijLogUOIPqooAj5O2irpMUipw5d2RnpMgxfv4Oiy2GYRiGYXzOlAljkJOZoqQYb0HelLiYCGh1GhkB8LN1u6R4oMiCly2YhoTYKIzPSZPjiw7kF8sIgCTAMlLjpceJIg2Sl4sEFo2DonDaFJ2QPFRj0pMwLisVWo1mgFgiUUHBHyhM+urN++Q5V27cg7bObsyfOQFt7Z1YI/K1Wi1mThkrPRC0ZAlBQl3uQkKCcPVls2X4dRJCd91wGWobmvH5+t1S3N17yxWye98JVNQ9zyifHxJpkRGhyExNlOKQRBZ5xug+yOu0aP5UeQjZgMZ2BQcZ5fWmieulfSQOt+7JlwKUAoBQRMUZk8dK4bhy417Z1ZCuOVwIQKqXxGdZVb3scpiUEC2vizxzZEOKXkiia+70XBkanjxrSfEUuVEHtTiOxG6isD/ZgfE+KYkxUuT6Oyrx8gz8qUIhZ/oiFB/cpKQYhmEYhhkpTz31FKZMmYI77rgDYWFhSi7DML6CmrM01xZFBqQAHBRwo6SiTubded2lCBZijQksyCNLUS7D+wtzP2LJzffj+Wd+y54thmEYhmF8D43PGS7CHMOcLfR80bxb5FXbsisPFqsV110xj4VWgEJjDDkaIcMwDMMwjMAVjdD/I4cxFybUJZImuP3y7Yvx/cfuxHe/dgceuH2J7GLJBCYUBKa8qk5J+S8sthiGYRiG8TkVNQ2yccQwDOMNaBxfeNjIo2WeL1hsMQzDMAzjc6hRRJPlMgzDeIOcjGRMm8DRCBmGYRiGYTB1PEcjZBjGeyTGRyMzLUFJ+S8sthiGYRiG8TkZqQlIEo0jhmEYb9DV3Ye2jm4l5b+w2GIYhmEYxudQo6iru1dJMQzDnB2uaIQlSsp/YbHFMAzDMIzP4WiEDMN4E5pQmibW9ndYbDEMwzAM43Oq65pE46hdSTEMw5wdYSHBiIrw/0njVU6actsDOdMXofjgJiXFMMz5wmJxoLXVjPZ2q5JzbgkO0SA+zgijUaPkMAxzOp566ilMmTIFd9xxB8LC/L8xcC5Yvn43IsJCsHDOJCWHYRjmzGlsbofZYkVacpyS418sufl+PP/Mb1lsMYy/4nA40dBgwt69rSg42on6epOy59wSGanDhPHhmDs3BikpQdDp2CHOMKeDxdapkGdLr9MhPjZSyWEYhglc3GKLW00M46eQuHrvvSq8+t9yHD/ehdAQLeLiDOd0CQ/XornZjLfersRrr5ejtLQbVqtDuUKGYZiRk5oUx0KLYRiv0dHVg5a2TiXlv7Bni2H8kJ4eG1asrMObb1Zg5owoLF2ahLFjw4T40Sklzg10HXV1fVi7rgGrV9fj0kvjcO89GYiP54lJGWY42LN1Ks2tndBqNYgMD1FyGIZhzpx9eUVo7+zGlQtnKDn+BXu2GMaPIa/Wnj2tSE4Owr1fysCsWdHnXGgRISFa5OSE4e670jFDiL6dO1tk10aGYZjRQtEIizkaIcMwXqK5tQO19c1Kyn9hscUwfkhnp1V238saE4KM9BB0d9tkkAyz2S739/ba5H5aE+SB6u4eGEDDbneio8OKtjaLDLJxNkRG6uW4ra4uG2pr+0R9rutgGIYZKXWNLWgSjSOGYRhvQAF3YqMjlJT/wmKLYfwQu8MJjUYlvVkVFT347LMaGSijRgid2ro+rFvXIPJqsXFjoxQ/+fkdYn+bcrSLgoIOrF1bj/0HWtHcYlZyz5yQEA20WhWamkj08bgthmFGR2xUBHchZBjGa+RkJmPahGwl5b+w2GIYP4eCY6zf0ACVWgW7zYk9u1uwfUezFD6HD7djt0gXijKH8wbOX0PibPeeVsAJaMSx5eXdWLOmXh5z9GgH9uxpkYJsh6iLAl/kieNJ2NH+lSvrUFTUJfdv2dIkxVxPL3uzGIY5c6ZOGIOxY1KUFMMwzNlBXq3kxBgl5b+w2GIYPycmxiDnuWptschug5WVvYiI0OHOO9OQnBKEyqpepeRAEhKM0OvVshthR4cF27Y1S08Xiay1axuwYkWdEFe92H+gDXuEMFsu0vv3t2HT5kZ89nkttm9vxqpV9diytUl6xpwOj7F0GIZhRkRSQswF0eWHYZgLg7aOLjnXlr/DYoth/Jxx48Jw6aJ45OW3Y+vWZmi0KpnvcLjGZXmOJwrMmROD2bOjhZBqw/r1jVKkGYwahIXp0NllhcXqkGItV9RPXRGpeyCN/epotyI6Sg+dToVWIdSSkoyYOCEcoaFapWaGYZjRQ42i1vYuJcUwDHN2FJfX4lBBiZLyXzj0O+Nz6lscaG5nr8hoOH60DZ9/UoYF86Jx3XXJOHCgDQcPtsuugxMnRciuhOPHh6O4uFukw4VIsmPfvlYsWZyInJxQ5OaGo6SkW3YP3LChEYmJRpgtDhlJ8OKFsTK/t8+O225NQ1CQBi+9XAqtRoVFi+KwYWOj7HY4Y2aUPO+kiRG48soE2d3wuedLcMftabjpphQp2rzNkVL7kOKR8Ux8tArR4Sr5+TED6WxyoEt8/5wPXn7pZSSnJIt3apF4x4KUXP9Hb1QhIl4NfbD3n6e1W/YjPDQYc2eMV3L8h9rjNjh5KOqoCItRIyRKdeIHQOYkzd11aO6pV1LMSDBqgxAflopgfaiSc3pWbdqLxuY23H/bYiXHv3CHfmexxficTfut2LjPBrNVPGr0tNH3Mq+HXfe1dqC9rBoLF0QrQqdF7szODkNaWrAUPvv2t8kJhm+9JRUOh1OO46KAGjQvF3m15NisY52w2ZyYODEcJiGuyst7kJERIqMU0rHk+YqK1uOzZTWIitJj2vQo7NvbKqMhZmWHoqamDynJQfL4TZsafS62nn7dhNYO0eIZgY38fk2MtOxZrG+6TI/pYzUw6CmD6U/RTiuObbPCZiaDnVtqamrlnFKxsbHQaDRKrv8Tk6bBjKV6hMV6v+PLGx+tQ3RkOJZePkfJ8R/WPN+H7lbx3XPuH5ULlmlL9EibooXOwN89g9lTsR5bSz+D2eZhqhT3MzaU2byxf7iPxE/3p0Rk4dqJ9yEmNFHJOT27DxbKroRXL5qt5PgXLLaYc8Ynmyx4d40ZnT0eHzXGA3pLF8JNtVJs3X9/phRH5NUiMaXVqqUYOiaEVHlFD3KEABs3LlTkucLAh4VppRCi8V0Uqt1gUMs0veqUVos2lEqlkgItOEQLvU6N9naLHN8VHKxFnxBlXd1WhIXqhFBziPIq6f1atarO52LrW3/uQWk1B+IYDd/5UhAumqplseWBQ6vN2POxGX1dPvzucTccLrT1EKRO1OKqR4J8IrbWKJ6teX7o2Xr3F91oKFW+e0Zqw7NdX+DQc5IzT8diywPrj3+Ijw6+gE7zwCjBEvr8iaHMNtr9g5+rC2U9iNz46Xh04S8RG5qk5Jwe6pZssdqQGBel5PgXPKkxcw6hN4sWZqT0t5bBoEF8vBHR0QYptAgSXTTR8RWXJyAtLQihQhjRBMi0uEUQCScKkkFzZFEYeTqWvFcREXp5POWT0CJom8oTJKwoIAetqS6a2JgE1zmB+xAy3sb99eOrhbgQ10Mu7g3v48/RCE989ZzL9QW+0IoZArJPP1sNWNx42keLG0/7aHHTP30hrgctZ/LnPzoyzG+FVn9YbDE+h14g10LBHHy8ODzk9V/8fb+yyG+e00ACKjbWgDghjAIFunVP9pDLObL9hbaM5Fn5IiOs5NFuXlncdV+oa0+LYjdfkBAbJRtH/on7/s/x+gJe+LtnOFz28WQ3XjwvZ0JLWyfqGlqVlP/CYovxOdInQi+S/O6htXvbB2n6n9f2999W0nJ/v7S39/dPfyHpd/+DbXPKvkHps91/IaeZIVD+kJ8wlGvba2mlbldDwftpWtM/yvdJWvlH2yfScp9voEZRc2uHkvIv3LZx3b9YBtvKV2llcf+7kNLM8MiPmhkFozeYjEZ41P+jEbLYYnwO/VGR3zoU6mnAtr+nh9vn67RYnyNoHi6aEHnnzmYsX16L99+vwsefVMuAGIcOt6O6uhdm8zkaR3WKPTzZhtMD0tzoGRJpIvonNhzKIhu5F0h6uH2+SvvyeTp8rBRFonHkn3i2R/9tTg9MM0ND5hFWOmEvXk6/iP9GTXtnN5paeJ4thhnI4L/l/pwebh/h67QPoUiERUVdePudCjz7bBH+9a9iPP9CCV58qRQv/0csL5fhhX+XyHza/4LY19JiwV13pmPWrCgZdMMnDLaHm8G24fTANDM0bCe/gbxa7R3dSsq/OJOGHsMMBz9To+NMzBUbFY6khFgl5b9wNELG53y8wYR3VvW5ohG6nzZ3vAWRTohVY3yGFuGhIwvCUN3gQGG5Db0Uzpnqo8PO8zrYoMKV8/QicXrsDqCu2YG8IitsFECQ6iGoLkKk9dZuRFobZDTChx/OVnZ4BxJaO3a2SC9WRUUPIiJ0SE8PkZMXGw0DQ1R3dFpl+HcSZhRAY/HiBFy9JFEG6/AFT/6h42Q0wtPY3GtrgrYFevERRoSqERasQlS4S1AGGcV2mKugVXxeXeI5Nlmc6Olzorndga5eJ8zu0OKD6vNpmrbF+nsPhOCiaXqORuiBA+J7Z9eHfejrdBtwIHGZGsRnatHb4UB9sW3EUQtTcrWITtGgo9GBumIrrDK6c78P5YJYeyZtkhZXPxaKsFjvh6tfv+0gwkKDMWfaOCXHf3jzp+1oKBUvuPNUW6nEZs4cPUIi1egU392l+80D9p/5+sJmyWMhGDffwNEIPbD22Pv44MDz6DR5iEboI6JD4qHTGBBujIJRGyyeW9ffML1Gj8jgWKhVrne6va8ZZmuffAqJHksnesydsNhMaO1tEo+n2DPcR3q6x/cM949PmIHHL/3VqKIRkmfLarUjLiZCyfEvOPQ7c86QYmulIrZOvN7uN82JW64wYskCA0KChns7T7L1gBUfrjPJhq6n+lx4Iz3ysrGRKvzle+FKenhIbB2vsOOlj3rR2ErC4tT69Dbfia2qql7ptSIBddWVCZg1OxqJCUbExOiF2BjYwOrpsaGpyYyysm6sXFWPanHsd7+bi2nTomSADm/z5O/7iS1pj9Pb3sXo09SACg1WIzlOg+R4NZKE6I+OUCNUPIcksMLEPsIgBBiJL8ImLq3X5ITFCim4Oroc6BZiq7XTgVrR8C6rsclJvC00p5xk5NfjYvRpFltDQ2Jr5we9HkUUWWuK+O6ZepURTRU27P28Dy39ph0YbOn+LLgtGOMW6FF+0Iq9n/WhR34XDWS444mR7D+bY4kz2Z82SYdrfCS2yLNFc49Fho980tJzxZs/aUd9GYmtU+1D02Vc/60wxGdpUV1gxap/dfvE9sSFtJ9EOYstz6w99gHe3/8cunwgtqKC44QgSUSYEFW0TRMB67UksiKhUesQog8TAssgPizX56IVeaGGCCG2XH/Tus0dsNot4jN0fcoma69YekSeFV3mdnSbOtBt6UB9R6UUX609DVKM+RopthaNTmz5Oxz6nTl3CD1Pmt7pdChr97YrnZaoQXqSFjGRGrnodCpYxN88k8XzYrVR/96Txw+uz3vp4fYNTFN/Y0/X6l5IYLnvLz5aNO7j1Agxkmk81yf+pxjP+9TXm6S3SqNWITsnVE5YnJQUdIrQIijse2ZmCObOjUFSohF19X2oqPDhGK5T7HGqbc42bdA5MVE0mkjkf000mh+4MQh3Xx2EWy43YulCIy6ZacDsiXrkpGukANNpVSc+RxJb9KNARpIG08bpcOksA65eaJB13X2NEQ/dHCyXK+bqxeesEn/cTn89Z59WbMecirANmeekvU4u9M5qxTsYHKmGIVR8VuKv4eD9rnEEpy76ICHU6bgQFVRqz2WGO56Wkez3lE+LN+oebr+vHqnY6Ai/FFoE3bX7/k+xj/gXFKZGaLQaxlD1Wdk2sPYrxmNORbFPf5u57TbadIgQSlmxk7Aweylun/kY7p37bdw56+u4bcajuHHqV3DNxLuxZMKdmD9mCeZkXI6JSbOREz8FOXGTEREUA4P4oiNxZbb1yUmWdeTpEvlZsRNlmcnJczFbHLcga4msZ+nke3HDlAdE/Y/hntlP4svzvifPe5E4P11HsBBzDnFvrutzrc887bpPuZDZXNYbMTReq7quWUn5L+zZYnzOx+v78PaK3iEnNf7Wl0JFg/Vk+PKGFjvW7DChrMYOx6k/GKO53Y7qBjvMovHrL1D3sxm5nrsRhokG2RXzDJjeb39ptQ1/+W/XkBP46u09iLI1+sSztW1bM55/oRiVlb2YNCkcM2ZEITsrVM7RRXNr9ae93Yqq6l7k53dg9+4WKdK+8fWxPpvU+MnftqNE2MYX6MTlZqdppRdo/Bid9GiRJ4smd6augHVNdvnsNbQ45LPa0+eQz1ifaeBzqxEmCjaqEC4+1yhxfKxodKckkDDTCCGmlj8GUD30/B4+bsWeIxY0ijp9xfceCMPCGezZ8sSBlb3YIT1bnuyvwqxrgzD7hmB0Ndux+Y1uVB+zKvuIoX/jv+z+UEy+zIjSAxZsebtbHO+5fhdDNR9Gsv9sjiVGv196th4PR7gPPFvUKNLrtIiPjVRy/Ic3ftyG+jLx+UuTDLSPWpjizp9GISlXK72ZH/2RIip63/YuLpz9Vz8WhtwFRvZseWDt0ffx3v7nzrgbIXUDTIvKwbiEqUiLzkFsSKL0YkUFx8KgC5Zeqj6L+O4xd6CxqwbtvS3SK2Wy9ontJtgdrr+jdH67k7bpM6LP1LXWqvUINYSLlOuzSwhPE3WqkBiRLsRZEGJCEpAUkSH3kUzos/agrbdZ1t3a04iS5gIUNR5GVVuJEHLUrfbsGZ84A08s+jXiRuHZ2rGvQE5sfN2V85Qc/4K7ETLnjI/W9eEd0ejp7Pbc4PzWfSS2gmQjlX5dtlic2J1vwfur+2S3LE+C60IhVDTIl14chOsuNcoxQNTljNalVSS2OocXW3YSWzE+E1vUDTAuziADX9A4rtBQ7YlJjt309NphMtnlJMg0IfK+fa340r0ZPhNb3/htm7SNt6HP4bLZRlwyy4CsVA2CROOgvcuJghIrjldYpcBq73SgQzyjHSK/z0xdBYdqbLgg8RYqxBWJaRJt5LFMFaJrXKZWijqjOEdzm2tsHv14QOey+8Ah+L2vkNgysNjywH4ptnrQJz5bT0y42Ij5t4ZAL8Tzupe7ULx3cKPB3UAZyGVfDpNii7ofrv53J9pqqf6TDZkLZ30q6ZP0uOYJ34it5et3IyI8BAtnT1Jy/IfXf9yK+lISW6faSq1x4s6fRSNZii0LPvwDRT8byqajXQ9mqHw3Z7uf8M45SJSz2PLMGhJb+0YvtsjjNC5hGiYlzUZ69FgpflzdA7WyrvqOKtS2l6O2o1yInyb0CsHVYWpFr7kbJluv9GBRlz/q/TMayANGvQ4jg2Kl54u6HdI4rzBx7mQhupIjMuU61Bgh66ZzUzfDBiH08mt241DNjrPuakhi6+uXjU5srdq0F43Nbbj/tsVKjn/B3QiZc4j40j6h6Wnt+UucvD2HC62yC+HcyXrcvjgImckaqAd8jw99vAtf7h/dsaHBJLSMJ4TW8XIrPt/Uq+z1xOnq9y6548JkdMEHHxyDG25IxpQpkUhINMJo1CA6Wo+MzBDMmxeNO+9MwyMPZ+GG65Ok4PIpnn/7EZzONkPvp89h8XwjbrkqCJOytTKwBXlb//l2F978vEd8JiZs2WcSosiCyjq7FFynCq1T67eKdlmbaMTTMQePWbB+l0n+sPDqxz149ZMe7MmzSFFH3RLpWR4vRNjQDH39Lk63nxkS8UwNZble8flZxPMQJN5PCn6gOeUjch07+PjeDjvs4hmJStTIhubJM5y6dh1/Zvsp373lwtv7T+ac5NQcb9HW0YXOruG+A88nA21Da9fWwPz+ez3tP1lupPsHc/Io3+wnXOc+2/2M9yBv0oy0i3HHrMdx28xHcdm4GzEhaSasNjP2VmzC23v+gf9s/yPe3PM3fHzoZawueBdbi1dgX+VmFDfmS/FFHqcuU/uohRbR0dcivWPlLYUoaszDgaqt2FD4sTzPxwdflud9afvvxPrv2F22TshtFSYlz8GisTfg1hkP44H538VFWVfL8WLnkviYSKQmxSsp/4XFFnMOEF/M1OCh8SUOZduhjD3p57ZqaXNg+eZebN5rcgmuKXrcsSQYGclq8Vq7y596/MC1L/dTPu0fnO9en9xP47GWXmLE9ZcGuYRWhRVviIb9oUJX30dRSinv+XjxP1nOl+j1aqSnB+PihXG48cYU3HN3Oh54YAweeSRbCLAs3PelDCnGrl2ahOnTo2QEQl8ExRjIYJucapvR7FepnEiNV+OGy4Jkd79jZVb8+70ufLi2B9v2U1dVK3r77EMef7r6++8n72Brhw0FJRas2d6H15Z14zMhrltFw3zqOD0WTDMgOlw0zD3WQXXTOQbnu9dD7yebMUNANhPmIdtRd1E5LsC9FktLjQ1drXZodSqkTtAhPF4zYD8tbtv3P76m0CqDbpBIS8jSQifed0/1D3X8SPe7PvNB+T7eL/7zGalJcUjwwy6EBN33CVsoS//0SZR9/fcPXvvL/iH2yf0ifdb7FYswHiAbKYu01zDrhLBULJ18jxRZC7OvkR6kytYifCREzn93/QXv7XseKwvewY6S1That18Iq0r0WXthp78BHurz5rrP0iPPR+fdLs6/+si7eG//C3h5+x/wwf5/o7S5AKlRWfK6b5nxVSkWUyKzRlx//7X4b9RkZyZj2sQsJeW/sNhizhH0l+zkpse12KCxWJ+s68WWE4LLgDuvDhGCSys7LkhOV895XocYVbj2UpfQihSNsSISWst6cFgIrQHdyIatx53wHVarU1yP6zwGvQaRkXokJwUhOzsUaWnBiIszyq6CGo3ra6K7xwabbfS/mI0Kj7Y487VW7URirEYubR0OfLaxD9sPmqWwl4ywntGuTWan7A65fHMfDhy1gExI47qiI8RTPMI6RrxmhoRMJP6Ei/+5tgasxUJCq67Iip52OzKm6BGbLr5n6HFX9g8o329dX2ZBS61NJqdeId5z8dlCCPsB5dyLh+P9eb+0l4+YOmEMcsakKCn/wnXnii0G20YsVvf0DsTg/YPX/rJ/uH2nO3Yk++XCeEJap5+phlrTWKklE++SgSmyYiegpr1MiJgX8cbuv2N53pvSq1XZWiy7CbpEyfD1+XJNS68QX1WtJdhTvgHL89/C67uewavbn0ZZ8zGkCpF16djrhOB6DGPEvYy03hPrMyA8NBjRkefWm3YmsNhifI/yIrl+ufCwUAE3Il3dYMNHa3uweW+fHMdFHq67rgmWXQplh53Bx/vREmwErl8UJJZg6dEiofXap904VGgWQkWU6Xevno4/uUiz+ZS9+1rx+fI6HD3agd7eocdJtbZaZHCM99+vQl2dnFDIZ4g792CLM1+oCyoFLyHsDtG47nFIgemprC8Wk8khRS2NRdSJ9jiJLk/lzmpx3R4zFJ5spiwOmwPleSY0V9sQHKHBhIVGxKSqPZbtv1h6HTi2rQ/dQqwlZOqk4Aomr6X7+b1Q1h4WsctnREWEycaRPyJvnWww2Eb0T3x3tIm/S/SDX3iMZuhyZ7K+gBdxC8wwCCt5tJt7iQiKxhW5N+PinGvk2CjyHFF3Qeq6V1C3T3brs9uVnhdDLe5znOM1Cb/OvjZ5nWuOfihF14r8t2WY+RlpC2VEQ4paOPi4U9aDFpE9Kuqb2lBR3aik/BcWW8y5gV4i14ayeEBmu/bXNNrx8dpebJKCy+Xhuvta8nANHsM1mGHql5zN/uGPpQh1118WLBcptCqt+O8n3f08WuLYE3bwxPD1e5v2NgtWrKjFn/9ciN//4Sie/UeRnH/rzTfL8cqrZXL7r38txO9+V4C//71IRiS0WM6RZ+sUTmeb09uOPpNrLgmSwStO5WzrP3U/hYifP82AyWP1QmwN+9AKRl+/m9PV/EVnsOUGp5srbSg9YEZXix0Zk/XInW9ESNTJP41DHV92yIQi8sCbnBi/wIgZV4cgKIwEl9jvPkCszyZNa7npq/TJTYkr3T/Hu1CjqK6xVUn5G647JxtJxFpu0losjeVW+bJR+Hf5OffbL1dnmlag7QstzZyG0xiJvD9TUuZJUUJdBJcdeg15NbvRZeoQz8cILewudh7XFFKeRNfnea9j2eHX5Bxfk5NmY3rqgtMf3x+Z52nH0JSU1+LQ0RIl5b+w2GJ8juvXCrHQ+BIHrd3byqJ8qdCfOllW2V9Tb8VHq3uwaY/LwzWHBNd1oXKOIzXNyODsV4esh9b96vf6/n77Bu0P0gM3Xh6EG4TQigxTo1gIrVc/6kJeoRl26nrnPl65V4ms72Qdp5y7X1FfMHNWFO69JwPTp0eiudmMAwfasGZNPd56u1J6sbZsacKhw+3QG9RYem2SjEKYlHQyRL8vcH3+yv33t80wth9uvxzTRPkCo7iPmRP0+MrNobj6IiPiRaPpRPn+tve4jHw/dV3MStHgrmtCcOc1oUhLcok72ZQ75TM/9XjPy9D7qUrGM/Q8ybFtYqFfYl3dcAamLWY7Crb2olSIJ+pCOFm8w9SlUCPeaU/l3em+bgf2rehBbZEF+mA1pl0ZjJlLQ2AMdZ13YPkzS9Oa0if3eTvtupeBaVc5X5B3rBTF5TVKyr9w24bW/e1Ba/KK14jvcpVKBa1ehZTx+hPlT5Y927Snz8LP0+7vNOYUyCxkGbe9PC0UdS/cGCWj+B2s2oHyluNyYmFPZYda6Dnyh7VD/C1q7KrDvorNsNjMcm6v2LCk0x/Xb6F/o6W7tw8dnd1Kyn9hscX4nFH98j7oXatttOHD1d1CcJlkdyzycN1zfaicBPmUege/p+coTSG+b7qCPFohcowWCa3/fNjpElrKmChJ/+Npe3B9/Rlun5dIiDdi4cJY3H13hpw76+tPjMVTT+XiO9/Jxfe/Nx5PfmMsvvnkOBl6/qYbU6QoCw4eLqLe2XPiMx18/2ebFtAAb5oja/oE8pKG4uv3hkvxPmmsTnqhzgaqNylOg0tmGfHQrWH4+pfCcfXFQUinsYaiapvyHNAfGK/jgyoDEzJUf2OdTHc225C3oQf1JRaERWswWzwXY6bpoTXI3QqnHt9WZ8W29ztlQ9wYpsb0q0Iw/5ZQhMeKP600hutEefe2v6XdDE77ho6uHnT3+LYr8pkz2DYD0+0NNtQVW6DRqjB5UZCST3guP/q0mwso3T+bOYXTfd/T3FUWuxlB+hDkJk5DbGiismfkuM/gD2sKFb94wu3i76FWpJ1CdJk8luu/7o+nvNORGBeFjNTR2+1cc8HNs9V9tBJ1725Bb3GtkuMfaIx6ZHzjRoRMSoda6/35SS5kSCy99XnXkPNs3X9TGC6eFYQDBWYsEw2eGvFHbTDUkL3t6lBcNjdYfoH9/fUO7DxoOu1cSL6GGtI0v9KPH4tGToYOJRVWvPR+B/KLLLB7uN2sNB1++EgUqupseOWjTlTXex4rZXD2IRqtuPgi382zNX1aJO6/P1MGwhgJRUVd+NWvj+DqJYk+m2frif9pRIkQq96ChPBlc4Pw1Fei0Nxmw4ZdffIzmDJOD41ahc4eB5pa7WjrsKO1wyGfvfomG7p6RENamQi3p9chjnVFNgky0pxaGmhFg4smNU6K0yImSoPkeK0MwkFim/aHBqvR3mnHDvGM0jMyb5oRpVVWvPZJF46KBr03+cHDUeL9McKg59/OBrN3eRe2vtspQ7yfDvJYZEw24NK7w5EwRi+DYGx/v0t2FxwQHGEQNB4vJdeARUK8J48zwNLnQGW+GTvFZ03zNjn6/+ByAZAxxYDrvxGNCPFse5utu/MRGhKE6ZO8+53mDf7zgwbU0bs5xMdFExvPuT4MV3w5Ar3iu+LDp1tQJf5mfZGh52TCRUHQGfm7ZzCrjryLt/f8Cx19Q3ebnZN5Ge6a/Riy4ibIcoeqdmJ1wfsy9DrNl3WhoFVrMSFpFpZMvA0z0y+W4rGluwHPbvgFDlXvUEqdnolJM/GtK3+DuLBkJef0kGeLeg/R/H3+iHueLc0vBUreAP723Cv45mMPKin/ofNQKWpfXSvEVh0cZits7T3nfekrb0BXXjkiZo9FSHYy1Drf/vp/oXG0xCzEhxlm+u5w/yFzOxJEmhq7NE8RCZRmsS3HN/XbT9BkwCRQtMK0h4+ZceCoWYo3p7sNNai8V9IjKSsW6s1FgReo8f7WZ104UqwILQ/lKUodhR8/UGBCQ7O4V9JaHurXwoYg9CE9LRgzZ0YrO7xDVVWvnJyYAl9Q1MH4BKOw6/B/LLu6rPh8eS327GnFtKmRGD8+HAaD939U+HxTt4waKCF7DGd74jRpEkWZKTosmB6E5nY7PljVjd15Zil86DmLE0IpNVGH5AStjHiZna7HxBw9ZkwwYI5oeM8XIomOJTFz+bwgXDYvGJfMChJ5RswV+2ZOMmKyEG7jMvVScNHEwrVCrK3b0YtP13XL+bsob2K2Xj6vNH5PCrczvB9P6YUzXR40rc/D8l94UBe/yiPmYcWSG4f4WLpabLAJrR+bqkOcEOVxmTopltob7LBZPNdBP1dSVMPWWpucHJmOi0kV4lt85iS0O8R7bh3iWH8kUrwL4+YGwRji/QZ0pGgQxUZHQO+HfyMPrulBt/Kjiifoc6b9WeL7ICxGg1Dx3XF8V598br6o0HNCzzt5+5iBlDQdQV7NHphtQ3tyDRoDxifNQGJEGoy6IMSHp2Bs/CQkR2aI73OdDEBBni//RIVgfSimpMzFdVO+hKsm3CwnJab7ILpNHXJi5w5xDyMlLiwJ87OuRIhh5NEF9TodjAYfz/95Frz29ke4YemVF55nq3nVPpT/9WOEz8pBws0LlNzzS9PKvah9bT2yf3oPEm5bCC1NssSc4MPVXXjzs050Kp6CsyFe/JEzi4YLiRsSOf4CNagTYjWoqRcCisbWnCXk2YpRt/vUs1Va2oOsrBBMnRKJ3NwwZGSEIDh4oIBqEYKstLQbBw+2Iy+vHS0tFtm90Feercd/WS+9g96CPFuXC4H01IPRqKy14vcvtEjPGX1eJLRiozVIiNFijGhcpwtRlioamgmxI28Imiwur1d9ow1l1VYUVVhQ12SXPxq0d7l+OFi6KOT/t3cVAHYVV/tk3d1dk924u0MIAQIJEFyLU6BAKdaWtvRvCy2lSHEtElyChAhJiLvLJuvu7pr85zv3vs3b3fc2u8nb5CU732Zy3/V7Z86dOd+cM2fo+vke0lnwwbdVFrdsPXanj1iGlWWrK7b/WEPrP6+i+uqea8TObjYUP86Zxl/iTgGRTJLL2mjvqjpWxmuoposyDiUT3/sAsXB5B9lR4hQXGn2Bm7gjgmiVsLzBOpa8rZ6qWDa0Jvf4eWd22RVRw5xo/v2+fWLZsma8+7tCKkhr4vIxn2ewbg2f5UoX3+sjgVF2L6+ltZ9WMZlHY2T+vO6XZy8gJ4MnuyjLlgksO/A5fbLt1Q6WLZQ4YCh1kKpbJv+WxkfPpMKqHLEIIUJhXVONTFBcVJNH6SVJdKRwr4RWB3E5yuzeWGowjhB1Cjp2NLE6vo6qxrL7B5C3qx9F+saL22OMXwIFeYQLScIYLbxrfUsdhXpFUX5lJj38+dVCNru7vgHYPThkND14/t97ZdnKLyqjxqYWiomwTldCg2XrrCRb2a/8QP4Xj6Pwuy7St55Z5H24itKf/YJiHl2kyJYJfL1cJ1tm3Aj7Gh6sPCESXSQr0+j9jwyxl0az/dvXl0UlrdTADSgsE3ABg9J8pnA6yJarKxOLQCfKzWElsLpFJjmGJcgYCF2OGiIs1JmCgpxo3foSuubqiL4jW39ismVBN0JnuBF2IlupRmQOb+tgP4DcWUbcXAaQq4sNn2MjJM2PyRj2mUIjE/7KqjaqqT8q1soGzifINzoBED3TGPOmM9m6VJGtMwGNbFX2yI3QGI4sC+GJTjR1kQeFxDlSXdVRyjnUSNv4egWpCHqjH2gCLp42FDbIUchaWIKTkDBYRKq4Xknd1UDpexqpML35uFXeytCXZCsju5DrGXsKDfLVt1gP3tHJljQG3cCF25Lp13jRmAvdRK72ramldUK4TnDiOQhFtszDFNnqDBCUO6f/ns5LvIy2Zf5Ce7I3MQGLorGR04TAoIVC8IzKhjKqaaykirpSIWCFVbky91Z1QyWV1RVKQIq+QKBHGHm5+AqhCvYMY5I1kDycvcnN0ZO3+/DSg0mTDZXWFNDalJ+YGB6i8VEzacagSyiz9IiQrd4AZOuhXpKt9Vv3U1lFNS24cIq+xbqgyJYFochW9/h6eTUt/v70kS1YLeIiHWhIvCPFRtqTr6etbHNztZHeFIynQW9NZ0BhRkCLeiZcGAtW33CM0nKa6WBKEyWlNgsBO11wpMY+J1tDhnjS/Eu0Sq2ouJFKipvEklVW1kRubnbk5WkvEx0HMslCMI3Kymb69/NHaN6FwX1Htp4qsPiYrVkTXY+TrTdAtk5MdjAfliOfay5kO+QEMqKF9O8e82a46WSrhT74pi/Ilq9GtpgkKnTE9h+rad1nvbNsGYAxXJhDa8J8D4ob4yIdNMVM1PevraWD6+u6JXC2TNJ9gu0oJNaB4se7UNxoZ7Ln8qmtbJO5uUrzWij3cCNlMPEqY7k03QqfGYBsXfqAX5+QrSXLN3G94kYzJg7Xt1gP3nmkgPJ7QLbQdMCCefG9vhQ51EnGb+1fV0fbuI0Doe5PgJwosmUaIFuLt76iu9EZhMrQnhxfv2Pa4zRv2FVMttbSFzvelLm1fF0DKdY/UchHYvAo8nEN4DbJViIVNrbUU0NzHdU118i4rsaWBiF0MifX0RYqrS0SgobofoCQtPoSbR1JNymF+8TJNTUcIyd7FyZVYaIbeTn7kperHznbu5KDnSMvXcTqBnJla2PH1zpK5XUllFSwm/bkbKGc8hQqqs7nc23oN+f/lYYEj6EdWevp2Z8e1l65/b7827BuIi+GgGzN6R3ZWr52BxWXVtCNV8zRt1gXztoxW/VpBVS1PZlcB4bKGClrQM2+DKrYeIi8pwwht8ERZOPQv9wvTgSM2UJkPrj/9TUmjHSia+d70gVTXWn0YCeKZ9IVHGBHfj525OFmK8pxeeVRCXpQ39AxQXkOD7YnHy878ufjEZQDVrDBcY4S4ABWj8ycFmo9De2po20r2bXWk4eHPU2Z4q9vtQwMY7ZCQ5xp0iQ/iopyo7BQF4qNdaOEBHcaPtyLRo7wpqFDPcW9MCLClXx9HYWEbVhfSvHx7n03ZmtNLVVw+VgKsNRFhzrQpFHOVFVzlDbsaODyP7HijbaghTlfM8usqQQZ6KllAjI4PMFROhv2Hm4SF0NLYioTgQiW085WSQWivJQmyj7YfYALc8BYHBAjWKHgJuYX7kC+nM8BUQ4UGq8FwsDcXKbG7EA2oISXF7RSfnITE6smauX6xTfUXsZE+XI9gzFdMSOcKZLJjZuPrYx7acSk22dYX8fzDZqAMVuW/7537k9mObWj+OhQfYv1YNeKmm7HbBkD5VSc3SLy4B9hL+XqH+EgZVyWa7nOImvHQJYTf/4u1JitrkgtNjVmq3M+DaAY/wRJIDkH8nZQVlkKldUVUV5FFiUX7WfSskG251dmMYmqErKDqIV+7kHk6xZIgR6hFOIVQRFMnmL8Eik+cKiQtKGh42gYp+FhE2hM1HSaED2LJsTMbl+OiZom461wDJZDQ8fSoKDh/CyDKcpvoFjYcA9vFz9yZZIFcnUwbydtzfiFftr/Ga049BVtZ4J4pHAfE61cIX0gZRcxccRYLrz77uxN/I7HyZSGzusGDKAA92CaFNu7MVsNjU3k4uxEEaEB+hbrgmHMliJbFoAiW93jUCqTreQGahK/dnxolkqA9hvjI6+91JMWnO8uFi24gGFuruTMJtq4s55Wrq+TsWMrN9bSum11ss1U+mVrHa3fVk9HMpolUIOXuxZAAWPFosPtaVCMIx1Ob6TaOkOjbPp5erZuPvl52ZC/+1HKza0TshMcrA06tQRgzN6/v4pSUmvJ05OVviAnCekON0JnZzuxWMHF0MnJluztbcS6k5dXTz/8mE+HDlXRxReHUEy0m1mrz6ngh9U1TIYM2qZxngC9X0dg0Cgut0mjXGQM1YYddWau33cJUSqHJzjJmMU9SY1UUo77mz72ZNKUsS7SKaDIVlfkJTdS5oFGaua6R5vFpZd//K001LZRSU4LFWc1k4OTjZAuP1auQwc6UgCXLYh5NZdpa4vGvo3OpqNc1PUsd+UFLZTP9WDK9gaxZNnZkyipsB75MPEKZuIVzcQrcbIrhTEx9/CzJSc3G3JwHEA1LK+G63W+/qmum/rzCrCjhIkufUK2ausbuW72pEB/b32L9WDn8mqq4XJEmeMPMORJl3U+pq4SRLxJxg6Hxjm2l2NgpAM1cPsAK1f78fzX4Xz+67x+Nv4lTHAVkqnIVlekFB2g/bnbhYR0hzAmNXFMkGwG2NCe7M1UUJUt22G1qm2qlqh++ZXZlFFymA7k76QdmetoQ8pyiVwIElbIRKe0tpDajrZRE98L5QKS5Al3PycPWfq4+ndJ7k6est+QSmoKmMzVUn1zLe3N3UYZpUdoddIS+jnpW1q6/1Nam7xUyNVBfoZ0fpbi6nwJgtF69Hjnghtf86pxd8m27fychwv26Ht6Bli0ehsgw8PNhQL8vMQ92RpxVgfIUG6EZxe+WlZNi7+r7FM3wsmjnem2q7yFGGEy5NVb6mgfK7YI3w0rFlwEMR6rJ8AYC4z1cXWxJU93Gwrla86d7kZjhjiJ9Wv15jp6/p0y/ei+wfCBDjQq9ih98WmGBK6YPz+Ehg3zEmJ0qmhuPkqrVhfSxx9nUVVVC0UymYNLIa4dEOBI3t4OVF/fJpYsTHackVEnQTLganjxRSG0aFEE+ft3mIDIYrj7j/mU1gM3v55C3AgnudLDv/KjrPxmeua10h65EVoScCO8YYEX5bCS/b9vKimJlW5L4rG7/GgaEy7lRtgV236oorWfVmgufyY6Vm3teJV3iXXKxH6Bvg63QpCg+DEuNHK2uyiZba3HJGhGaW4zZexroNSdDVTB9U9310OUPzcvrluY1GBcWORgJ1bSHcnBeYD0bjdzXdVYd1SWiICI37CQNTeAtLVSE9dn5YWtYm1DpMQSjEE8wbP3Zj1quBMt+I0/E0HLKy8I02zLFayzU9/UH6eCt36bJ4RY8sQ4f/g3JruevMCT92vlbNgHzyh3lomY4c40eaEXE3F7CZwBGYBFFMem7KynBgSHMpHXwADmtGFM3Gdc4y0y1hnwxsja30Bbf6imJpaF7spOcBrXL2M5GTzFVTohFDoC1p+P290IzWMSk4trxt8tQSVeWvUUrUv5Sd/TPRxsHSViIaxJ9rYOMv4Lbnz4vhzsnIW89QYgWaADKN7a5hpZIlAHSF9zD8LQ435wfXz+6k9lbNl/V/9ZXCN7gyEhY+jhOX+nAI+euxFaO9SYLQtCka3u8dWyKlq8pFLcuE4FGHeVGOdIWXma1UlqA0gvL+++1ocuZKXWzdWW3v28nFZsqBV3MYlYaHTcySxx35hwB3riXn9xSYQb2LW/yelwHAIpDOMGE/NmFZW1dnu99mU3GDPMiW670pN2bC2hr77OoRYmSO4eCHF66r3NQ4d50vnnBcpEuxs2lNCe3ZVUUtIo61DYYc2SMUl8TySQr4ED3WnyJD8aPdpbXApt+yjM+N1/yKPUTK7YT5R3PVxiXqyZE13pt7f7i9w881oJpRhf/zTginkedP1lXpSS0Uz/+7qCDqVYiGzp7/D4PSBbropsmcBWIVvlZsdXjTzPnWrLWymdlWJT7oCmALIEKwbGYQ2Z6kZ+YVrYYYwLq6ti4pXTTGl7GijzQANVFbdqdZAJQBdC5ENnd1u5pm+oAwXHcGLiBfc0dx/NQwJNNNwgQaygyGMp67gu72uqZyGALDDaWph8ZXevGNVUtNLeNbUykbMpRA9z1shWgHX2FPcV3nw41+yYLQxtuf6pYLFEFjCJ2r2ymtL3HrdY2HM9E8Dkexi3QcOmu0sQDZQRZALTApTltVB2UiMVZzZRNa8b572jsw2NmO1GF97hZ9JbAOWfe6SJVn9UfpzoWQkue8BfvgFFtrpiKcjWlv+ekGwNDBxGt0x5iIaHjWeC8hdaeehrsVKdbbCzsadx0dPp9xe/KOPGnln6MB0u3Kvv7RlAtn57wT96RbZyC0qpsbGZ4qKtk6CpMVsWhHIj7B7oyd9/pPGkx2y5syIyc4Ir3XS5N10wzV3cA2G9Mr7e1LEuFBPhyEQBIdjtyMfbTnqsa+uOUgsrICdzZzR7YUF2dN5kN7p0joeM57K3YyJy9Bh9xkqcATguiO/50O1+8hzB/vZC9E6FXIYG2tHMSe40JNGdhg7xIj8/fje+NwJWnGoKD3emxEQPiolxo0FMoiZM8KUZMwJoMG+L5/XBgz1lvNbUqf40/5JQuvDCYJoyxU/OwRiyvnAfNOCHVTUywbClYM+kMJqJ8qTRrtILXVt/lPYdNj/viaUB+ZnN8jMwypHKKtrk3kVmlNyTxdRxcCN0UG6EJpCX3CRWgeOhuQG9NmCBGHk+f1/T3MRaVMXl0iYeMcf3C9r7I7X11uajVFvZKmN2UndrliycArLkxd++d5A9hQ5yokHjXSlyiJNYsVAHNbDirY3zO349KOTYjvm9yvM1V8O03fV0cGMdHdpUR7nJjTKOCK6M0L+cXGzIw8+eXDFxNl/XzctOCIBxwhxhmJTZXHJhcpfGRAFucJ3fDc/mzXVPwkTXPnEjTM3Mp7r6RvJ0t74JSA1uhFI8HcoeFkeiodPdKIzLFUQ7ItGJwhOd6RgTX8hNC5NglFMhkzUQbZQn3EADwh3Jw9dWyHPYQCcJtAJyMnymm0S5bHdDxL7RLiJL25dW0YH1tZSyo16uGRLrRI1c/jlM1mBBNSeX2oMzTuN+yAlIpnIj7IoUjNnKxZit7gkyAk8MD59AoV6RlFp8SNz3+iq6YF/C3taRxkZNo5ERk6iqvpw+2fYatcKPuhcIcA+hybHn98qNcPfBVMrIKaDB8ZH6FuuCciO0IJRlq3t89VMlfbykotfzbDnY29C4kc40b4Y7xUY4khcrGPZcqa/aVEPvfV5BhRL5SRPfB3/lx0qtO7k4az1sdQ1H+X5t4kIIYoZIcKXckELhLWNFydRUWM5ONqIcOzvbMrGy498O5M339GTlBOHjDdacam74Lr8rk39hHeOCBtDY4S705K8DxG0NCj2ebdveelq6upqKYekSaMf3BGOGOdNv7wigAF87ams7SnV1bdTYaBkSgrFZGJMFC5YxmpraqJWJrAF4Xxzbl+SqM+56Mkd3I+ycVye3rrkRuklegiRDBn7eUMsyWSXl2JeIZ4J1xTxPmjjKRSyu2fnN9M5n5bRxR51+hGXw+D0BNG2csmyZwtbvK+mXT8qpzkw0wvn3+tOoOZ5UWdQiCu7un6uooqjnCgL0TkdMF8D1gzt/qxEJThTPZQHF2p7LAySvsU5LIDdZSQ0yjgwhxg3WDeMW2FiK4c6MKG8OXKfZ2Q8Ql0e4mWECcplUl8kW3A5xfxA8QPRgTk5utkKaTAHjx1Z9WCbWFlOAS9zCBwP7xLL19U8buE51o1mTR+pbrAdvPJTDZBdzAmnryEvjssHkvSNmebC8eEjeIxgGyBCCqKTtraPk7UyOjzTpFktbcuVjEAgFbqchcU7idmqwAEHtggx8858iqub2YfQFnjSX27DcI4209M1iGSMIJE5ypcsfChI5KsxopnRuUwozmsR6iXLEM5xJQE6UZcs0lu77jD6CZYuJR3dwcXSje2f9kWYlXEI/7vuUvtzxLhVX5+l7ewBDpXGGly6OrnTd+HvpstE3UWZpMt2/+IoenWeMIaFj6JG5z/TKsnW2RCM868hWa1UdNZdUkZ2nKzn4e+pbzyyay6qpqbCCHIO8yd7LjQYgbrRCO4Rsfds7shUZZk8L53rR6KHOEhkQFqskbgh/2VxLOw+wwlLYLNHiDHjwNo1slZS3UHJ6MyXEOVIwKwsgQk3NR8UKht5lWMVAKEwJvS2TCrgMQsnBnEUI/Y1tR1lJ37qnnskH0fgRrhrZuhNkSwMaZYSVT4h1pDlT3WnyWJZNfl6QLriuLV1TQ+u21PbKsidk606NbPUnCNmCm5+F4OR0nGwBKEsQcBC6X7bW0pbd9VTaToZPHXZcXCBZ0ya40chEZwpjZcvQAZDPCv07n5bR2q0WJlv3KrJlDiBbaz4pM+tGOHyGO824xkcCXjTUHhXLwQEm4wc31Ij7V2/QTrzcbTXrx2AnIV1RXIeBeEH2MOamqUFLGMdTxgQcCn5pbouEg4dFpCeAJQHkCwoLOkMMY32EbDFsuN4zNf4HgKshxplhaQrRTLYu7yOy9fE3q8jHy4PmzRqnb7EevPFQNuWlmnYjNADugZ5+9kIwYBH1CXagY1yuDVyu9VVtVFncItZIBGUpYlLUWNcm8gBXQSwRtRDnwwIJkrX752qJajlmrgeTLX/KYTK+5L/FEowFwD2uegzzLXG5cbsFuWlpxHg+EL1WJmXNVMT1JdwfIbuw0J5OKLJlHiBbH26GG2H3ZGsA/z1w/p9p7tAraX3yclq89VXKKkvV91oGXs4+NG/4VYQQ8ogc+POhJUwCy7oT9V7D09mLHpv3bxocMoq2Z6ylv/34kL6n5xh6EmTrYHIW1dTW08TRifoW68JZS7aaCsupamcqtZRU61usAzYuDuQ3ZzTZe7vpWxQM+GopyBaXWw/IFkjKVFYcL57tQQNjnGTMTQY3KD+urqbdBxvEMoEw7Z2l9sHb/Om8Ke6UU9BML75bIsdEhDqI+9agWCeJJhga1DNXqwY+N5uvk8vpCDdiyenckHHDdtkFnrToYm8hWwvvyNCPPg4o2t6edhQd5kBzpjPpGuMq94Nla/POOvqS86G4hy5kY4VsBVKAXz8jW09ka2O2LARYtkDCQVzr6tvEwonygbIKy2dZZRtlMyFOzmik1AyUOSu9XNY9BaIdYqqA6AgHGsKKdQLLWpA/K1PuCAJgIy6RjU1HydfbTn6/DbLFxNuSeOLeQJo2XpEtU9jyfYVGtjDG0wRAjsITnGjifC+KGeEicoHogWUsEweZdB3eVitR5Xo7hAJjfHBtQ4oA8Wb5gLsYxnjBagzy1drECjQCYfAS4zJBgEC6mhow9ouXvK+G6wyMs0KdBze3noYnP1nAsgVrSl+Qra27D5OrixMNHRSlb7EevP5QlkwV0BMN1MXDlty8uU2Jc6JhM90pkssX47YgJyBPjUx64PoH61MBky5YTouymoTQN/M+zMOGY0HGQFTGzvWkudyGZYNsvVzUgWxd/XiIjP3CNRxd4UZqR/YOTN71sXuItIl7Yrwg7leU2cTvwWSP69GTmV/OAHcfW3nGBv4ezI07vPwhkC13RbZMAFaqDzedmGwB146/ixaIRSiF3tvwPB0u3KfvOXU42TnRIxc+K0TG3s6RWtqaaFfWJvrvqqclKIal4O3iS3+/4h0JRb9s/xf05rp/6nt6Djzj7/hZe0O2mppaZN4vawy6A5y1ZKv8l33isteQWaRvsRLYDKD4/7uZ/OeOIVsX6yz0M4Weki0QLRCai5howSrVyIrG0l+qac2mWiE+jdywmJbWjmTr6RcLqbC4VVwOoWxD6cVvB/T08r/YSETx0U80AhRtkLQ2fkwtOMQxaoAbUOMxcQ25ZZEPXXeZj1myZYBBAR+WwErLPE8aGO0o1pQd++vpzY/LjNwKzUORLcvAmGxBht5cXEauzjY0b5aHhPGHxRTWTkSrhHyhzFG+GFdl+F1Q3NHdCm6lIFSwZqJ8IF9OLFvO6L3m37CmgrBt21MnxCqOCT+stIhkqcjW6YWQLS7z7pROECxEBkyY4EajzvOUkOywEEHJREh3TD6ctqee0vchqtzJKa9QRhFt0MHJVqwj4lbG9wmNd5Y5u2CJMgAuYxjbBfKFJSwaSID2W34KoHAjlHxzL1yMYVHB+KSqEtNuhNHDXYRsefUB2WpobBZLnKMVhml+7cEssTL2prvfnusXFw87KdO4Ua5iFQyOxTg9O3EVBHlu5noF7n6wSKH88BvymH2ogXatqGJifcwE2dLG7Ayd5i5kqzi7iTZ9W0GZ+xvEPTGI25TQeCcK4jrMJ8hexteBvLdxnYX7IZIl5AiuojuWV8o4QIMMmQPK2yfEngIj+NoDNbfHXSuqae8vVUwcTbfdC1lOhiqyZRK9IVvzR1xHV469TcjPG7/8QyYKthQSg0fS4xf9m/zdg8S9L8wnWgJw3PPhZVRYlasfderwcwukd25dRs2tjfTJ1tfp613/0/f0HCdDtqwdZ3U0wswXlpDXpAQKWjRV33pmUfz9Vsp9dwXFPnmNGrNlAl8uraCPvwHZ6l4huPxCLyYn3hTobyfWhi9+qKCtrLCCpKEh6Q4P3RZI53Gln5MPslXQRUE2BlwEBwzA9aDgHF/CLRHjekwBPdG3LvKl6xZoZGvB7Wn6HvNw4vuEh9rTQn6vudM9JPT81t119MbiUiouNf98AMaAPXJnUL8jW3c+nsVky3KDg52YgICEg7hm5TbRP14pouz8JvLxtKPQYHsaNcRFrFEIruLBJAqArIGAoTcXv0GSjAFZAHmHWykslza671YRK6/7jzTQflbOk9MbmVS3SICWOdM86KYrfKiVxf+tT0osT7Z+HcRky03eVaEjNn8HslVqdsyWAeICyGQZVoOBY7WIcoHolGEyDuUV7lkIipFzuEEU4vzkRiovxATn3ddLpoB7QTmFm58DlxksIo7OthLYwh8BFfgZ/PUIh2EDu59fD803wsOb64QyBSju36BDKsP0dwYL3xUPBfcJ2bJmvPqbTDIes9UbiPzAiokOF1cbCoxxonAuuxDM+RjqQK5c3xiAMoPFKI/vteSlQqritmDMXC+ad1uAyNa3vA1WMGAYk61rngjlsmqkVR+V0qHNtdpYPpYbB5YbO14i4AmCVATxPYOjHIWAGe6Hud+2La2k9V+UCwELG8Tknok+xhc66gQJFjo3HztNJlneQSANv1fzt7P1h0qz3w9I+TCu3xTZ6oof935KH2x6uUdka0rcHLph0q/Jn0nGCyv+QBtSVuh7Th0jIyYKgfF1C6CM0hQK846UUPH7c3fQD3sW08bUlb0OZNEZcIUM84mit25ZKmHf/7PyD7Qtvff8ARMr/27esxTYC7KVnVcsnTiDYsP0LdaFszoaYfXOVPIYFUv+F46VcVtnOtWnF1Ll5qR+G41w165dlJqaSpGRpqPBHGLFZD83Ik2stJgDgggsYFISyUpGKisB731WRlt21Ymy2pPGD9HmoDDDNQzKLM4zB4Q1b+W6BYqS8bK7+9hwYzpqiDMNS3CRsVefLuk+nCuAUOqVVW2UkdUs5wyOd2LyZE+O3IjtZ6XNuIe6M0IC7WkyK32u3ICfS3jnnXdo0KBB5OCgKZOd8f3KKonkaCnYMyGKZgUWeVnFCsP6rbXiyonxdEWs5BxOaxQ5+2VzjSwxLhCWR0x8DPKNcYYoRwS4AMlCgBWUaVlFq7iXbuVzVm6ops+/r6BvllWKu+gRJlolfI2GBo2wxUc70YjBzhKUZdf+eiZ9lrPcASBakazQ9cdohHv27KEjR45QVJRptzQEHMjgPIe71YkAiwOUSii6SVyH4FzUFd78Lbp720lQBH+uY2KGu9BQJmPxY1wlUhwiA8Lyjd5/c+5WnQErA56pkespuH/BPbA0r5nv2SBWtIMba+jA+hrazjK15YcKVrJreHudLJNYhjFWB5HsDME2Cvg3yJO4PLKg4ZrmElzNYOmAu6QpINjG4EnufRKN8EhaLtXVN5CXx+l3t3/ooYdo7Nix5OLiom/pCOQ1LJmmgPKdsciXIhKcxUUUYwA7W4ogP0LKOY8xFi+b63jIEYKu7OKUc7iRsg41iLUJpC4vpUG2QcZg6YznNgyRDZO21kg5ASD8Q5nMgOhn7KunEq470E7h3hi3BZnD2C2M18L9jmyro31rqyl1d52QP0RDhDxnHqwXEjX+Ym8ay+0srGKBTMwC+Pq+IQ7kweTL1cNOyhzXzmd5OrBBk7VKTM5sRq4TJ7nJM/bHaIT79u2jQ4cOUXR0tL6lI5KLDtC+nG0SjdAgKYZc6rzu5xZEQ8PGUpBnGG1N+4XSS5Nlu7nje7Pe2FxPw8LHkT/fw8PZU0K0I7COr2sAbx9LY6OnkaujB+VXZFBzm0byjc/vyb1sbewoIXgkzUy4WKxzKw9+I+HfDfuB7s4HsA6L1pT4OeTWi2iEuw6kUHp2AQ2xQtdkwBCNUIV+twD6c+j3gwcP0osvvkhvv/025eTkUGhoKPn5+el7NRxKAdmqZ7JlusZ240bhyot9aOxwV7FMffBlGe3YW9ergBKTWPGJiXCSYAQpGayAFDVLI2YRcC2A8OEL5noLWdLI1ol7qwA0jLV1bRIcAcE3hic6S2RDKPzZueYtOMfJluUVnjOFzz//nP7v//6PfvzxR3J2dqa4uDgmCB2/le9XVgrRsRTg0gkS3k62ttVQOcZkcblAMYarYD0rSJW8r7CkhdJZMdnHCtE2VlbWbqkREraaydTS1VX0w6oqWrkObq01tI63b95Zy8fWi7wVcvmC6MP1VQKwGIlefIwjky0XJlvHmGzVURYrypYEgnFEhjr2O7KVlJREL730Er355puUnZ1NISEh5O/vr+/VAPKSDrLF5dIjcLlBaQYJKi/ApLT1onTmpTZIQAu4h2H+K7iOIcw73LliRrrS0KkeNG6el4R7R0AMWDMQkQ5KqIRtN2MxN8CgQLewPBomNUYyEKRKlk0o2rBKQXmGhQ0kEq6NximFZfIAE7X9LKfm0pHttULuzD0TyGVfka01m/dIL3RMhBb04XThqaeeovfee48++eQTysvLowkTJpCjY0d3/23LKsTFsl37MwLI1qxr/YT4JE50o9FzPClhgruQFgS7gLUKCWOnAG08lVaGILUSzILre5AsEB+UVQ7LJtxSYUECaY8fzXUUOoC43qnVO5wCIh3EclTDdSIiEZbkdG0zRHbkfhrZE0Jd2CJjA6OHulB+WiPLcZ1Y0wK4LnRhuUQwDxxXyu1tJtd3IPj7fqmmDV+X0cZvymkv/07nNriyGNMhmJddyEl/JFvo4Hn55ZfpjTfeoMzMTKl7AgK0IEwGgGztyd5KjS3HQ79jymAtN4//j+Ro5yiEKNQ7ktJKjlBmSTKTtMb2/QaYO98AU/ubWpsoKX+vECxgfcpy2pK2hjydvZnchZO/ezAlBo+gSXHnk4eTDxVW5clkxsCJrm3YD0vZyPCJMs8Woi/+b+NLYi3r6fkA9iP0e2/JVnJ6Lre9ddzGxupbrAuKbFkQ/ZlseXh4UElJCS1btoy2b99Oa9askconLCysnXRpZKvBLHmaPM6VzmNlBUEEvvmpUpRcuNz1BgayhfE4I1mxhXLt7KiNx4ESfAJdxyzGDHehS7lhvf06fwkFD+tGb8iWAaLQ83MMTXAWwgZryaYd5t3JzkWyBZlYunQpbd68mbZt20Y//PCD9DIPHDiQ81V7T41sWc6yBQLSkWxpk12bAsgXiBLKF/KH8XtIGG9Xw0pTTa3227BdxnixIgL3QCg85hAfA8sWyFYfWbb6KdlC3VNWViZ1D+QJdU96erp0+BhIF8hWBhNcKL69hbiT8nl11a1UykouFOS9a6roMBP2IiY9CEwA9yk3rre0cTu24noH5TOSy3sQl8uImR40/iJvmnyZj5CwxInuQtCCmYBjnBaiD0JJNwfMqTVkihtNWegjSv7ES3xo2hU+4uoYOcSZYpnoIbZqVUmzKM8galC4u0s4BhH0zEGzbHn0CdnaczCVHBzsKT46VN9yejBkyBBavHgxpaSkiEUCv/Pz82ny5Mlkb6+5S8KyVVNu2r0beirKNDgalkwua3etrIN4XSydTIjGXuBF4+Z6yfxb0cNcJOy7NycHjOvi4yU4Buc9ZAoJpB5Fb+/AZCvO+TjZ2lrLZal1OEGWQLY0y1adELaeAOUbNcSFYka4amSL651qfjeQvYMbq2kfk24kWFBB0LHfMF4N84PBnTV8kLNUbCCLII+m0F/Jlru7O1VWVtJPP/3UXvekpaV1qHtAtvbqlq12VqETnuPr2gJEY3TkZIr0jaPUokN0pHA/NTTXte8/0fnd7Uf9UNNQTYcL9tLG1FW0O3sLJRXsE/dB3MfHzV9Ino+rP8UHDaFZiRdTuE+sTMYs1qke3NvB1pEmxs2iIaGjqaWtmVL4HQqqctr3C3rw7HAf7C3ZamlpJXc3VwoN6tjJby1QZMuC6M9kC5YJV1eu0Lnh2rFjBxUUFIi1a/Xq1ZSVlUXh4eFUVOYsFgBEZZPWpVNCOPXR3DhhnNaPqyopJ6+JN3c9rrs0iZUPkC3MC4UgBb5edjSEG4tZrDTMmeEh43JCmCz5e9sKgfH1spH5ttAohYc4UHCAnYSYT4hzYoLlSlewgnT3jf40a7IHX8eFvFiZAtEC4A75ybelJp/DXML7IPQ8LG9j+F2hpO/cC3dHXVPvlEC2poxzP6fIlpOTE3l6etKqVaukdxmWUDRU33//Pbm5uYl74Q8/V1F5BSs8JvLkZBIICKySkzkvQbbWba2hMihUJo7tq4Somu1ka28dZaJ32sRxJ5umTXCnyLD+R7YMdU9hYWF73QO3HtQ9hg6fhjIXJkl1GsHgc04q8X/itsX1VwN/r5WsEBewYpq8o5b2rK6i/eur5TesBAjNDZcrWL9g2QJhgaKN5BvsIJYFKLHRw1ypluUx61CdWCU633PIFHead1sgzbzGjxLGuzE5c5JzvbhegNuip782viuIFV0EZhg1W1PyQabwHMbXQlTBBfcHi/UNCfcv4ToWFjfj4wzJO9CBhnC91xdkq7m5lfx9vTid3mlbICc1NTXSIVhdXS0kfe/evfThhx+K3EydOpV2rawWy5Z8VnyOccK3m8Vt2I4VFZS2p1YiDErAC97hG+xITlxPy9xaXDb+oY4UEquVsTb+z4NGzvakCRdrpHvyAh+xgmJcHqyULS1HdTdCjWwlbakRSxbuq5EtT7GMwdJUzHWH8XN1lxDoJJbbVlhl8Q1gqoCRszzp/BsD5DnGMDkcy+Rw3Dxv6RCYcIm3bBsx01NIVNwoPE+rjBeD7Ju6xxBuX/sj2TLUPUVFRSJTxnUPOnxQ95S3FtIeJjaNzUaTGhsyTvuvfR1WrHFR0yguMJFKagooKX8PVWJ+rvbjdbSv6xt7uB81DO5RzwQOEyYjImF9Uy3lV2TRltQ1lMykC3IfF5BI7k6eFOEbS1PizqcRERMk4EVpTRG1tDabvDbgZO9MFw2/SoJvONhxexcxnoI9wymnPINqGqu0g9qP73q+gH/DjXDqwN6RLS8PVwr09yY7vcPW2qAmNbYgDJMaf+eQRz9VJ1NNS6O+p3+gtbWVamuZOHA6qg9agKUCvT+//vWvKSz+Jlr2C5kNkPHQnUF08fletIUVlvc+K6E0boB6i4fvCqLzpnpSZXUrrd5QRSOHuErId0zcKz3UcNHhBMWmTX8MkB8IP6LHYdAxgCnSQKoQGRHEDZ8HrBk70Vjx9qnj3cVSdtmtmk91b4BrThnnRk89HCauZ8+8nE/p2abfdUDrYaovfpMK8g7pW84NNDU1UUVFBStdmnUHrg2QFfQGwr3wlY89LDvPluMAsZo+ck+IBMj424t5nPe9l69TAWT7piv9xJr51kfF4ppoSdg2fEg5ad9TY4N1TYdxOtDGHzOU6M51D8j7PffcQ5PibqG9y7WxWH0FuJjJXFf8fSOkN+oJRBqEEjp4ogcFsyINstV5cvC1X5TSzx8Wi+ugAUMmu9PUhb5CrBxZgcc1UQcZ3AfFzY2BeyJqHFwZ/Zho4xhYSkCgMM/T2s9LZHwQAEvar1+Mkd8AIt19+XyeEAZTKGnYR9uLXqSqhgJ9i+WAXmh883amwsH2MSAnsEZ0VnkgK++++y7lrxnBeYKOGH2HGYC02NrZSIATjN8CKR06xUMsSQncPvQEeAaEZ//yP3kSFXLchd500e1BlJVUT1+/kC9lDQxnonbdk+FUkN5IK1lWMGavpzjven+aw8Rq+7IKWvVxicjMBTcFCJkyjn7ZHXDPzd+Xm43mmXVsMe3N+p7qGnSFuh+hu7rnjjvuoMQLwmnpkU/5OyqTfRoM+d5VyG6Z+iBdNup6IVrvrn+BUosP6nuMYf58DSe3H26ATvYuQpYuHHo5zRg0TyZbhisgSFlZXTFtT19H3+z6kMr0sVjG8HD2pqcXvkZDQkfJOuQb5C6/Mps+3/oOrUpawltP/GzDwsbSYxf/s1cBMqwdZ3U0QmslW353zyXXuSPIxtn04P9zFbBQvPbaa/Tpp59yY9oiwQ98fHzo/PPPp/vuu48yC6Np8TcVZsnWb7iRmT/HmzbvrKH3Pi0xS0C6w2/vCqbzpnlSbn4T/f2lPKrgxsHDzVZIF0JvR0c4UUK8ExMenVV1A7iIZfIzHDhSz6mBDvESivI1l/nSNQv8hGxdessR/eiew8XJhs6f7snEMJhSdbKVmmWamA9PtKc7rnUhb09zFdPZiU2bNtGDDz4oPYEAGiYQrfvvv5/uvvtuuv+PnCcWJEPOjjY0m8nW7+7VydYLeYQ5tU4nQLZuXuQvLopvCtmyLCn69c1uNGaYDcu2vqEfITc3V8ZNfPzxx+11j7e3N5133nlS97QWxtKaT0rFxa4vADdCBBgIG+gi1idYhQKYaIEooaPVnuUPBAweNIYxEwas/aKEVn4AsqUpahf+KkiUblhI0PmDgAf71lZRMteLUHZhXdN0OtQJ2qTGtrY25OFrSwkTPMTFEIE8EHgHFpItP5bROiZ0GD921e/CcaIAY9F+ZjkszTP9nYUl2NH5t7mSu8+J68qzCRiz9dxzz4llywBYKBYtWkT//e9/6eM/lVNuipHLlwmgCAMjEVzCicITnMmHyxsRIxFVEuQL5d0TNNa30aFN1fTzx8VStij3i+8IFuvZV1xHFentwnBuL67/fYROtoroIJ/TU5x3fQCTq0DatqycVnF5o9Nx6kI/GjvXW4Jh9AQrPihismV+6oQLbnen2DF2/O76hn4EeGe89dZb9MEHH0jdA3dU6D2zZs2SuqfEKYM+3PQKVfYgGiFw7YQ76Iqxt8iYp/+u+j/anb1V33P6YMOM3MXBlbxd/WlC9HSaN2IRRfrG8icBl/lGqm2qETfHpfu/pN2Zm6m+RZugH5EOP75rlVjNftr3pRC1WQkXk6OdExXXFNC3TNK+2P6eHNsdQLaeuORfvSJbmTlFrLM10uCBpgO0nWkosmVBGMhWzKOL+mXodwQ+ePLJJ4V0QdEBybr99ttp5MiRYmr/dnk1ffRlqVmydT03AFfO96F6boBeeKuQtu/VPuDewEC2cphs/eW5XMovbpF+FMyjhDDdsF6hlxhufBjfYnAJ1NSW4ziYXC9uQCBXsHw1s4IDJRkdsbdeE0DXX37yZAvzM11+kQ/dfJU/HeL7PPXPHCo1M0HpuBGuQhAwvutcwlVXXUXfffedNEwGkoVtkBsEzbjzd+lCtrrRd3oFkC2xbHFeFhY302v/K5IxgacLiCYJmUG5IzBHX5CtJx8IpekT3ftl6Pevv/6aHnvsMQmQARmCooNe5dGjR0vds30pK7QfFWlky/ChG4TrJNYxLis0zlkbvxPjTMHRjuToaisunHClgvXKhvVYY2IFUoNxLyBAsGIgUEEuf/+FWU1UnN0oivo1j4WLy5cD10+wYkGxTuN6EK5qxpYvU8+GW9lj7JiXLY0+35smXMyky8tOxv3s+aWKCV0RP5N+Ah+P8TdwqxTiZuJ6GAe26JEw8g6wvAZ9KCWbv0kHio4I0recPowbN04i58IKAZJ15ZVX0l//+lcZWwz35v8+kMblopMto/zAb1iFYCWCS5+Lu52UNUg0SLGdUQceiDOiDIKcYHwVyqCMyS3yG4Sp/dq8xLFw+3RytWGy5aOTrTqdbDER5mOGz+hEtjZy3WH8bICZ9c5kC/KHzgHISife3w6/EAdyZdmR8Yd+DpRxoI4yD2LMI1/cxP0WPRLKhNCrX4Z+X7JkCf3ud7+T4RJeXl40c+ZMqXsQ8RJ1z7IDX9L7G17qMdk6f/CldP2ke8jdyYP+vewPtDltjb7n9AOh3B3sHMU9EC6BsxIuoumDLtQs6EdbqbGlXixeaw7/SDsyN8rvV2/6ioliBb208mnambWRhoaNoXtmPU7BXuEyn9f/NrxMPx/6Tr+DaZwM2Vq1YRcVl1XRtZfN0rdYFwxkq/99IQoWBQYbQ+FBb+EVV1xBn332Gb366qs0ZcoUqYBk8DEc3tGym0kpGQ0y71RQoAMNHuhEntz4mDquu6T1GWitgfzGNk7NTW1UV9dKVdUtVFbWTDl5jbRlRzVt3FYlaZO+NKTS0mYqK2+mqqoWJn+t1NrMmpF+rePdEt2/j7nky8rQnOkeVMekMjmtQRs7ZOI4JDN9IGc1MD5iw4YNFBwcTE8//bT8hjULkZwQKAMKKsbQIa9N5cnJpGPMnDVnUSJ/Jq4gupNHu5o81tLJy92GrlvgS/PneEkkSpEbMHkTx55S0t+vv+HAgQP05ZdfimvYwoULJdLc66+/TtOmTWuve1D2iAIpiWVLUi/XPfztJGT29X8Ip/teihXld8Yif0qc4E4+wQ7k5qmFzEbY8HRWTjd9V8YKcy699UQG/e36JHr5gVR658kM+vxfObTsvUJa/r9C2r+higozGyQc9zWPh1H8GDchWtj+3lOZYsFAUIQmIUXHn8XUs2LcECwlGKsFa9n//pxFGQfrRWkew7J38V3BEpAB16tl5b++tk06kMxdD6mvsD8pnVIy8/S104dHHnmEDh8+zOSIie0110gkS8hKbGysyArqnva86JwfvER9HDnYVcZjISIlwqrXVrRQ8s5aWrW4SMrsP3cn09+5vN/7YyZ98mw2rWBytOGbUilLWCeFbJdx0pcg4DJeD9WCUZbjp+Hex9sB7XeXZ+tmvb1e4AXOBYHC+KwF94XQZb/W0gU3B9L4eT4yRg+W2cqSZjq8rVrGpq3+pIhS99Qel0ET9+N//RIYn4W6By7xl112mdQ9iIo6Y8aMDnUP8r2nScZTtTWRp4uPkBxTx5yudJTbKURRxLixjcmr6F9Ln6Sb37qQPtj4CuVXZMu4LoyvWjj6JvrzZS/TM4ve0XOGuD5qoeqGStqevp6eX/ZHvkYZBbgH03mD55u8V4fE5/dWpFrbEAFYc6+2ZqgAGRZAfw6QAbM50uzZs2Uek5iYGLFQGKLLAXDDQ4AMc9EIK1gJGBTrLFHjwoMdKSuvifIKECRDP6AHmDTWnWIincTq9Mumqm7n2UI7ZEpnRTIH9GCOGuZKw7nBbWo+Sp9wI9obwEJ123UBNDTBlUq4of32p3ImfubHJoUE2dOU8edWgAxEHWxsbJSpAtAowRKBRsnYCvDd8nLLhn63GyByMWWch0w+7MkKx6jhrjQw2plqalupsJvJr08WsJ5OZUX87psCacYkT/4e0JM8gO/XJmP/JECGBTFtoke/DJBhqHsgSw8//LBMJQDSblz35HDdg+AAvY1GCOvFYFZA590aROdfHyDR+YJYjhB1EK5iDSw7mUys9q2vEoKz9O1C2riklPb+UimKdW5qI5UXNEpADYk+x3UGxlTBFVBzB+RKiP/NvyeUhk7xlIh0jfWs4LCMxI5wEwvKyJleZhPGCMFCVpLTKIr/3JuCaPJlvjR0qifFsnxjm5e/g1jzPX3tpW6DhaIn8AlykGdy7oMAGXsPpZGTo8Npj0Y4adIk2r17tyjIN9xwAwUGBko7ZVz3bF1aTtVcN5sCDgsb5CJuhuu/LqEf3y4QIrVvXaXIF0Ky11S0Suh347KGFREdSJh8OCLRRVwOQdIxvgvj8hD6vZWPD413poFj3MXyeWizRrSBoChHsRwhQAYsncVc3ieCB5f3IG47hkz2JL8QR8pLrac0fkbIwqjZ3jSMZcSf6wskRFeMHOJK8aNY5ng7iBesoxHcTkHWG2paqZFlGIqwKeAeQVFOYunrT0DbBYsoOpVh3QJp71z3HCnUQ793iEaoL02sw4VveJgW/v1w/j7KKEmWyH6G/YJuzhf0wToswXiOmsZKSirYSysPLqFdWZuFkEX4RpOrozs52mveXLCGjY+ZTpeOuo6Gho6mkRETyIvJI45BOPkf937e7b0CPUNp2sALehUgo43Jlqe7G4UE+upbrAsqGqEF0Z/JFiqXiIgISkhIkMoGPYedAbK1lxt6iUZoAnDXA+GKCneiqAgniotyprzCZiooauqWABlj0jh3imVlyJ0VBNwnLaNRSJElgIZ2MpO5RfP9yIOVMFx3MTe4PYW/rx3dc0sQTZ/oSfUNbbSKFbQly8q6fbdQVnimjPc4p8gWiBXmt/H19e1CsgxAvsg8WBaCRCNkpQZ5iV7k5paj5O5my+TEiSYzARs30lXW6xBlrvrk7wuCNTDGmebO8mJSHUiXXODDlb8Dv6eNBGaBcl3HipiQrWzLjhmbDrLF305/I1uoa05U92QfZkVzb624cfUEUDDHzfWhBb8OpbEXeLNC7EROLB9wFassbqZdqyrp548LafmHRbTz5wpRgEF4EJhCwnlz3XBcyeYLGhQJE5iywI+mLfQjR52MQxkGQfIL1RTh7hLGChWkN1DmoTqxWFz/+0gKYBnAPpyPkPFwacR14eIFC1xlaTMVmxkjaoy+JFtQjPz9vMjP5/RGI8ScWvPnzxerOqKimqp7MMZNyJaJMgPXgBwl76iW6HxwDzSEb0d5i0VeJyRwL4Sr6fAZXjT9Cn+aw0R4zg2BNIZJDAhN/Ch3ihvpJsFNjvD1YJUME7LlIfOpHdpSJeQKwPiwEXwdEDlEQYTbqTFQ9hg7NniCB02+1I/m/SqYZl0TIGQcRAsykJvaIM/exG0PnhBkEASqpqJF3hdxWzBO0MHJVjoSEMwFco9ohLVVLWKBNddZATnpj2QLdQ0iDg4ePLgLyTLgSMF+2p21RZtnq7NMmVh3sHekcTHTKNwnmg7m7aZkJmtyrr6/A07nuv4bdie4EDa1NFJhZR5tz1xPS3Z9LOHtw7yjyM89UKtvmHC5OrgJaQz2DpfxWw3N9bQpdTVtS1/X7b3gPjgN0QidPPQtJ4a3pxsFBnibrP+tAYpsWRD9mWwBqGhMVTYGaJatOgmZbg5wqYNbAshWWIgDDR/iSrWswOQVNAsZOxFg2YrlSh9K79AEF5ox2YN/20q4b4RXF8Wnl3B1tRHLxN3cWF61wJ+8PO2kMhHL1tcntmzBzz+CFZ87b9SIFsaBbd1ZQ2+yotZ4gnnEhGxxA3oukS3AHMky4HtYtixMtjAlAMhWbkETvfBGARUwkQc58fK0pUBWbkcPc6OLWBGazwQpcaALRUFh9XWQybYxzk7m3mLZdXOzoahwRyFR8dFONH60O82Z7kXXs0J1/RUBdOmFvmL9hBUTgVgyWDF6d3ExHWFlJ5LPA7neyco5gq9YEtMn9U+yBaCB7a7uyT5cR+n7allZ7P57g4I5lknWwvvCpPcf1gF7Bxtx+dq1qoJ+erdAxn4lba2WsTiNtUak6sTVUxfA8nTlQ+FyHyjQ21dUyHxgWUmcDnLi+lKSmXVYqeCyWFncIsE4Zl8TKM+C0ODlLOd4blhHnPg+IIogdG6e9rR/Y5U8d3foS7IV4OtFvt6alfl0A8FTuqt7tiwtbY/2aApHpbxZNzTRloAoD2EiNfPKAJp3a7AEooClCmQJ4+dAZFAOSCBlcNfD2K6U3ZpsdiBbHSxbx8lW5kGt0wBkbdIlfjSH25Xzrw+kcVxvDRrnQSExzuLiCMKE+0AGkpi47VxZQflMzDH2D2QbMrx7TSXt+rlCEgJgrP2imPatr5QxWng2nI8w9oiOmMvtt7nvp7+SLeBEdc9hkK1Okxp3B7gRjo/Wwr8XVObS4cL94o5njRDi1YaxW41i8ZoYN1OI0sH8PfT++hdlYmTIOULGZ5Wm0lc7PqDv93wqx3eHQI9Qmjbogl6RLRkna6VEC1Ch3y2I/h4g40T4YkkJfcCVedUJLAcIYnEZK6xXL/RnJdheSNYqbgA+X1Iq1gCMTTCH394bSnNmeAvBAkDcoFRgwtmSsmZKz2ykNG5ooGgXcWNiyqrkxkpLTJQjJxcK4vvHskKNQBp4LkNADaC6ppUuud5UWNbjcGRFDWTpjhuCKCjAQawbm7dX0/Ov5ZoNFGKMcSPd6LH7wymAyUB/wm0PJlMKKwaWghMrOYgA+eh94ZSZ00j/93wOpWc1sMIHN00Pmsxp+GAXcnK0lcahjeUCvdQQNakZOUGWDBAlUfunhfzmddTzspn/q6hqoX2sCMOVdQ8rz7CWzTvPm26+OlCLRvhBIa3ZaNkG9A8PRdD0yZ79MkDGibDh2xJa/kFBt9EIEZhiNpdPNJNuRwQP4MY7/UAtbfmhlFJ21UjYeBCZnlrZOwPzYbl52FJOcoNYQoBL7gyhqQv8xX3wxfuSqSCtQWQOcoUjerJEfQjFH4Ttz58PlQl5P/hrBmWzcoz9XoEOdMMTURIpEbIN5RukcfuK7gfsw6Jx7aORfRIgw5rxwr2HKdsQIKMHwHcP18LJTHwGjfXQwvtzOyH1AcsQ2p/S/CbK4PoA5VuQXi9kWOZi43scY5lCnQBSO+EiX5p/V6iQ6M+fz6ZCbq8AuIze9MdosUaBaIHUiXLJ90H9Y6h3ZMxebpOUPToYcg7XUxm3dajLpFOgB7Ir1+JrasorJrfmdovvifFliHBpCtc8GkEjud3tjwEyToQluxbTu+te0ObL6iEevvBpunjEItqYsoreW/ciZZSm6HusFxi/9cxVb1F84GBaefA7GadlM4C/BQgTA8Ss7WgbpxN3og4PH0e/v/Q5CvLsuZtxehbX7w2NNCwhWt9iXVABMhROM07cgsHy8+1PpfSv/+bQ/kN1UulfMNObnvljFN14VQAryCe2GCan1dPr7+fTXlaW0KBhguPwEEeaNtGTbr4qkAlMGP37LzH0n792TX99MpJuuz6YZk/1pCEJLkLcMDdWMZOz194voO+XG8+XYRoOrDxhDM1zf4mm3z8YLhMpIyDGl9+X0L9f7RnR6t/ooabTQwzofD0WCig4KNMlLGtPsHJ63V2H6S/PZdGSZeXtpB5kGeTFieUHcmBIWMd2R06wXoFcbdhaRe99WkSP/iWdfvVAMj39XDat2VBJZRWspLBMd4Rl30+hp0C+d00T5vnQIiarsAzA+pPHSvGHf8ugd/6QRjtXlYui2dqiBQgwdb65FDPclS69K4Qeem0QPfTqILr8gXBydkdze4w8/exo7Pk+QrS2/lROBRkNhIlt21ox0LvnSyjSx++p/d/afExcvjAJLZaGfgIo5J5+9jRpvi8rxgbKdqJkeRw4nEmpmfn6mjXCVD50TJhba8KFPvTAywPp18/H09g5Pkx47YQI1de00p61lfTxPzLpmVsP0b/vSqKvXsimjUuKhQhhMurECR40/XJ/GRvl6mXLV8R1jdH5nprlDGTOkesgWK7gxrh3XSV993oevfZICj1zyyF6ieueb7jtBJkuyGxgctYmJK2nsgtCjk4FyDvkB+Hny4uaWd5MH98xKVgCRdUFhEmAMamwl6t1jkHqDDtbexocMpJaj7ZQJpNDECuM8cI8W0gIB98TonWySM1ife9Qur5mvVBkS6HPIY2JdOVxQsWPZGYdFfuO3TX0539m0dc/logLINyyYBl4/bl4uuumICZPDmQzoNP5OrBp7aZK+u1T6XTjvYfp36/k0JffldAeJl+1da1iocJkxSYT3DzsBogFZPOOanrl3Ty6++FkuuGew/TVd50sc52e3dGexKUMRO7Pj0bRsERXaPp0kBvYv/C7vPNhgVjEjN/V+Pwu6/0UYmg3zg/j3yex3n49A/R1Q48vlNxSVqhXr6ugF1/PoTu5vC++9gBdduMB+vWjKSxHaVr6o5749wNPpNC1dxyi8xfupWtuT6I/P5tFH3xaSFtZZuAOi2vC5ajD8xgD6/rzte8/lXWl7JgFyr+7hMAEGOeEMVcrPihgkpVKu1djEtdW3UWw5ykk1okuui2EHn9/MN31TBxNvyJA3MNA4kJincnVA1b3YxSZ6MIKszaeatN3RUyKtAAEJ5uMy5+3dNp+TMbnpO2tkfshcmL0MNcO53dN+ql9gH2H05lsnf5ohD2B6bw4nojbHIzne+zdRLqSCXr4QC5HbjdgrdzyYym9zQT96Wv200d/z2CiXkZlBY3i1odxW7/6ayz94eOhdP+LA+n6J6Jo7i3BMsYKLoZy/fYM134fv6+2FW6Fu5j849p/47rpr9fxff6WQWu/KqKU3dVUVdrMxKpN6xhoA8k2vkZfJu35FLrCdH51nyrrymV8E6IR2trosmHlCaILNz6QrOKqApPH9DTxf3ru9RzauSfpdnAaociWQt8D348hGdDNOr43KMCvvp1PTzydLuOc4IYH0nXt5QF0/+0hFBrk2PV8HfCrRwMIl8HvlpXRK3wdKMoLbzpI57GCfPVth+g3rDA/9PvUDunSGw7Q7Mv20O0PHKHf/18Gff5NCSWloNeZFXMoXvr1BUYr9kzgJo/zpCe5AUa0Qlv+qoowp9M7+fTon9JoO5PHNhi0DOdgaXyxE633Jxje3fD+nfPiVNYNv03sR12NMoLcYGxDRUWrWFe376qR8tu+R1/yOtwDMZawGcdykjDafK60E6aubwxT+091XeGkAQKSn9ZAn/4rk37+pFDGzPSmvcckwpPm+9EDLw+iB14aJGOnQN4wwS0sS/s3VNLXL+eIclyY1SjXThjnwfsR0bCNhk3zpvNvCJLxN8Zp7AU++h1IxuR03j/72kCKGuKqH6EBLpDjL/RtP2bqQn9y97EXKwXG7FSXt0iUxdjhbvoZpx+aYqSvnEWANevWP8fQ1b+NlAAk8JDC2L0vX8iiv1yzj754IZsOba2S+gMBMkbN9qE7/xFHv/9wKF18e6hYszAGCmOhML4JtkVELuwcuMXT34EmX+LfXoaIRAhgzBYiH8LainnbcB/pDODTz8b87B+AX4XmW9HThAmN65lswY0O7nmmjrGmBEI4JHQU/4JbM5OtGiZb+r6TTb1FTEQwDUuI0desF4psKZwWGHofepPajrKyklRLj/45lZ78a5rMg4VIgztY8S2vaO5wbPtXykvjeyFsKa6DKFhwvUHKL2ykXftq+DrVHVIFX7MFx/CxOB7nHr8HLqzfg3F8OzeYLW38nDVUysoMSNZ/386jW+9Poi++K5Hw4sbH9ib1S5yEnHSf+Hr6pYGTkUOZY62DLPQ2HX8C0/tPLSmYB0ofIYpNp2OUeaiWvn4lm0lRhczJ13m/loy3aQnuX1CGf/tGIi36TQRFDXYV9y4QrAMbK2nxs5n0p6v30bt/SqN13xRRWWGTVqfwuQnjPcUtDJPZnn9tEM27OaRLAmnSxgoeo3EX+nXZf8ENwUK2DM8DYJ4uBE4wHDPzykBxHQTquR5K5ToOEzCHxrnItc29W1/K1NBB0RQX1fMJS08nOuZH5/zBPFUIkKSRrI//kUH/uOUArV9SLBH7ULZwCwXBfeK9wXT941EyjgvECqQIZHflxwX02qPJ9KdFe+nhC3bSfx86QsV5DZzfqJO0OgIRCjGWz1CGGA8FwGLV2MDyyfVQ12frnE7ffoXuoJWryXRUT522F1TlUXVjpXQCOdo5ydinzsdIMnN+e+rL/Ub7ABc9TLuQrWomW92di9Tdfv7rLVCfjBisyJaCQkdo+oN5mNjP36BYFWDl+tV9SfTdT6XiXmgMTFbcxIpOeJgjxcc4yVgrkziJ+wMebrY0fIiLvtYVCF3/yB9TaNGtB+kLboDr6tEQdbrQSd5bgXGSeQflpKGhB/7iJ3n9dpxo/4lwStc/lRv3ZxyjbctLmYTUmMnBrpmOQAATmAg99EoiXXRrKJMZBwmGkLavlj59LoueYkX67T+mynUxFxcUCGPAciHBDViZksTnmkzQ6vne+MNPU/vlEAasHCCNXa7Jv3H7msoWyk1FcIZGcaNGhEJT73Y6AKXodM+x1XMY50fn/DlGJdzGfMQk62837acdP5cJ4QBg5QqNd6F7nxtIV9wfQd6BjqxMEhVkNtLSd/PoL9fuo3/efpB+fCePDm+vkhD8UDYN54MIH9lZbbYMMQ4s40At5aQY5knr/Gydcab3K7RDsoo/VEOWyW/9wwUM6/r+xuYGam3V5noL8gwjd0fPDvtPdH7f7MfS8LvjPtsB9hTjP1BWMS6ruKpIfgsMx3d77W729xCGb8baociWQp9Deiw692YY1junE+zPzW+i+nqEcu+4feUvZTJeBgEx/u/3MfSnx6JpzHA3QhR+MeTzNZG6u75hP/+Q3xgXNijGmR68K4wWvzWEhg92k7Dv3/xY0uVcDETOEDehjts7JP36JvchGe/HUsu+fgWz+WOcN6aSmf1NjVwumQ0iM66sZA6Mc+5yjKSTvH57MrMf8hcc6EDennaUx7ILy2fnYySd5PW1fXrmKXSFfMrIo1NM/AdL0t3PDqSrfxst4dEReODg5kp64f5D9Mojh2nzj8XtBMtc8vLD/Ffao730YBL9ZvY2emBm1/TSb5LkeNwDvzvvf+TCHfTzJ9r4iFomU8/fe6jLMUgPzt5Oz/7qACVtq5RohIATrFux/B0YPVfHJIf1CQz3sEbgsTrmw/GE8Z2Ln82g7StLO2yHu+j0hQF0/38SKHKwq1igso/U0rt/TqFnbt1Pyz7Ik/FUxueYSrlMpMyV4ePzd9FXL2dJOZs690wm/k/PPYXO0LLHYAU0DLHV8s2wftxKqK1nlaZReZ02rYyXi49Yt3pzft/sN7+PaQ4FegRTSxuCY6SexLW77u+t4pOakUd7Dqbpa9YLRbYUThPka+qzVFbWQm/+L4/SMhoI46sQffCFfwykT98ZSv/6SxzddXMITRzjQYnxruTIDaSdLaLodEwDY1xo9Ah3+tX1wfSPp2Lps3eG0dsvJ9Ll8/0J83c1Nx+j75eV0lvv55l8Bksm6++n6TsYk2NLJFhBd+6rIT9fe7phUSBNmeBJtpzBkscmjj/VhOdHxYo5uq65IpAumetH9vYDKDe/kUpKmk2ec0pJwSy4+daWnE8nkwDMiTXvllC67el4ihnmRuhETWN5euWRI/TOUynyG5MZmzwfQqZ/zLJuBEQh7G0QjpNOrM3ADc0APInJ4zhpe/sG+5IyKCXDOqMR8tvLq5vKk84JAGm9/vEYWvjrCBkvV17YTN+8mk3/uvMg7VtfYfK8cy5JTih0C84nQ9LyDLl2fJtxMs5bkC0ne5eu+02cj+2GpfyZ2G5Yyp+J7Yal/Jnablg32j/AxpYCPIP551Gqbazpst94aUjG+42Ttq/3SMsuoP2HVTRCBQVG1w+rL9KmLZX0298n0+IvisStD+OvfLztadxoD7r+qiD611/j6a2XEmjVktH0yw9juqR3/ptILz0zkG69PoQmj/ckfz97GeMF98RVa8vpwSeO0AuvZJm8t6WTVhnp2dePoFlqOubFqaaS0iaWiQKqqW2jkGBHevLhKLr3jjAK8LMjOzuuBG34uFOVUT5/wIBjEhzFmYn5xPHuYl29+Zpg8vKwoz2skK9eV07FJU1dzz3lJFmnYAba2DZNrnqTkLF+IQ503aPRdN7VQRJZDhO+fv5CBr3xRDId2VEp47xMn8tyZUs0croXjZjuLdEHjfcJEFFVY/wdlh2voycTx2HZ5Vgzx8Ga5ugsK3wsJ/07M5f6CgeOZFBalpWGfuf3xjgkU/nROTk4EV3z2ygaNdOb2lqO0ZGdVfTao4dp7VeFJo8/V5PImIJJcA6J5caQS+2J/5PUebueYN2qqCujIK9QcnVy73oM/9f5fKB9Xd9gvN2wtPR+2wE2FO0XL5atA7m7uuzvvOy8v0vCf72EciNUUDBA/4r65M9wXX1ZWtZMb7yfQ1ffuo+e+lsaffVdEe07WCPWDZCm5uajEprbECzDkLAN++Am2NjYRknJdfTDshL6278z6LLr9tCf/5Em1+l8v5NenuAP//ojDFYt+bPQEi5AySl19OwLmVRY3ExurrZ09cJA+vDNofTsn+Ppogv8KCrCiTBHGixQCP9vy4oy6m+Mx+hQj2MbJyivUKZxLM5x5WsOG+xGtzBRf+Vfg+iffxkoJB/nb2VF7PX3cmn3vmrtuSz5x+/Yb4WlJ9CzxyjHevSHchs01lMsF8Omekuggz1ry+mNJ5Np0w/FVF/bcvzoTvIGuYge6ka/eXkw3fzHOLF8IBIdngJjCA2YemkADZ7gSQl8n4SxHu1L/1BHOsZEDNcLYLnsvN+wjBvpQTZ2fFU+Du5s5o7DMp5lMTDSWe4La1pjfav2zCb+gL6SKChFMjG4FULe2SArncrUsMRe5PWkiwNo1CyfdqL19lMpVJBVb/Y8s8uz/E/PMoVuIGXdi9TQUi/zVLk4uJK9rb3JY6whAQjgAUKITooa3bJ1KulkpCk2MoRGJMbqa9aLAfyCJt8ubuQMSt2zVl+zHpQu30lZ//2e/C4YTWG3z9W3nlnkL/6FMp//mmIeu4oCr5hCdq5O+h4F4LOvC+l/i/M7zlN1krCzHSC9RUY6S48REe5Enh52FMNKh7u7FlnKAIzpSc1ooNraVnFF7C1wLSjeCAVuCYwf40GPPxRDgQEO+pb+gVvuOUApafX6mmUBghQa4khXLQyieXP8RJYQMACTZyN8e3l5M6Wm11MOxlaVNFFWdqOcB/JdWNRM9Q1t5OfnQAGc7Lms/f0dKDLMmcLDnCg22pn8fB2kwYBs4nr5hU303dJiWrG6jCqr+m5Sx6cei6EZU31ksmWFjlj7VQEtfT9X5inqKYRojfGky+7CXEquVF/TRqs+y6eN3xWd8DqwYJ13VQjNvjpYotcheEXGwRr6+pUsymPCb+9kS099PJI8fe2FeJjCT/y8P7yXw6yI6LmfxpGzm+nJ3JtYLn9iEr+S61Yvrif+9tUYfY95QD7TD9TQ8/ce1Ld0xUAmZjc+GUc+gY76FsvhwJFMcnZyZAUpWN9iPfjnHfsp60htt/oeZGPgaE+6//lE6cQ5sqOK3vlzCjVx+9EfccOTsTR6li85slwrdMTX2z+iN9f8hyrry9pFyvDFd7c+PeECunPWwxQXmEBPfn4vrT60tFfnA5ZcN7fPzsaOpg6cTc9e8yZV1JXTI4t/RQfz9vTq2oDx+sjI8fTnhf8Rq965ggsW3EhvvPj3s5Nspf71E2praCKnIC0s6plGU3EVNeaV0qB/3kaBCycrstUJn7HC879P8s0qnA763CMYayVzFmG0pAnguAXzA6i4pJl27akWtzAz4nvagAoC0cUiI5xowUWB9P4neTJHk7nngmLvyEox3HgwT5O5dx3Pyt4TD0cz2bK8wmPNuOWe/UK2+rJYQbDgTjh3th9Nm+zFv53EkmXLZYPyASnrqVsCyhnkCrKLssTE1UlH6oRgbd9V1SVqZl/gqcdiaeY0RbZM4Reue0BIEJFPYK5YdXlDPQRl+tI7NaJVV91K37+VTTt+LpXJgU2ez+dCbly97Ona30bTkIlefB0buef3b+fQTj63yTBeis///f9GUnCUs3TQdJ5nCVjxcT4t+yBX6ohXN0wWGWtt7lhXIMw81g9sqqA3nzxCXkz8/7RYm+/GFHAvnIPr7N9YTm//KVnfwzBcVn+3Qfz+fUW2rBn/vGMfZR2u4+zgDEGeID+OZ7nkoaOLLd3/78EUOdhNojv+8879LBd6u2Y4vvPSgO7247cpWPn+G5+Io9GzFdkyBQPZqtADXvQUIyLG0f0XPEnDwkfTH764j34++MMJ9RzsNS6i07HuYOtAFw5fQH9Y8C8qqymhm9+8hEqqC9v39+Z6BoyKnEB/uvw/FNwLsoWpfXBBW/jwWyHOWrJVvv4AZTz7BdUeztG3WAdsXZxo2LsPkseoWBoAzU2hHZ+CbC3OoyozZOuGa0JoCisoGNfyw0/FlFfQpO85Drh4XXtlMF25IIiVSlv698uZtHZDOTU0nuEeRa4xQkOc6Jk/x1NEmDPt3FtN//evNCov05W7TohhJet3D0ZTbl6T5ElunmY96QwhW7+FZat/KTw3381kK9UQ4rjvAaIcwIrqiCHuNCTRTUgz8tzLU4saZ450odpEeOe6+jbKyGqgpMO1lJTMiYlWeYXpsu8rPPV4HJMtb/kuFDoCZOvH97J7ZNmC1SJhjJdYtCIGuVEhl+uXXM8c3lEprnfmgPPCYl3pyvujKWaYu3QUpB+opk+fT6firEaxxBtj4b2RNPPyYLnme0+nMKFrEcUDR2FZVtxEFUXNOJRe2zBFjvv8xXSJWIf9dkyacC+4BYJsvfHkYZm3KzLBrcN1tOUAiaYcFOFMix6Ioob6o7TswxwZW2QOIFs3PRlPPpg43sJobWuTZ7JGxejZ2/dSZjeWLdQH4+cGcN7EUSN/9x/8PZX2rC3T9/ZPIC9Gz/ZTZMsEvgLZWv28jL/qDSL9Yuh3Fz9N42On0VtM1r7Y9gFV1pXre60HjvZOdPfsR+i6ybdTUVU+Xfr8ZH3PyQOWrb9cAbIVpm85MZLTc6mmroHGDIvXt1gXzlqypXD2AZat9z8G2TKthD7xSCzNnxcg5Ont/+VQWnpHNzJYgq6+QiNa3l72lJ5RT8+xEnQoqUYsCmcacEl84J5ImsONDrBzdxX9498ZVFamhfw1xlBW6t98aagQiv/7ZxqlpJkmFuPHevVLsnXL3fsoGWTLwsUK0gSLFi7cho4wMxZFA5ycbCiA8x5up6bQ0HCUilgprqnpXonXLGVGrq+mq9tTwlNPgGzBsqUUns5Y82U+LX0v57hlywwgH+HxrnQFk5iBozyEnH3y7zTau76c2lq7Wp8MwHlhfN71v4sVgoYpINZ/W0jLPzKypnUCCN0dfx0kbobv/DmZdv9SKi5ppvD6xqlSx73wwAFK2VMl22BdeeD5IUKuDmwqp9eZbHUHF66fpi8IFhJZmNlAHz6TKmTQHAbx893cR2Rr1/5UcnF2pIS4cH2L9eCZ2/doli0z36gDt0MPvjyUohLdKSuplp69c6++p/8CpHzMeYpsmYKBbBlCube3aWiGADPrni7e9IcF/6SZiXPp441v0ceb39IsRt2db/gNnKZ1F0dXemrhczQj4QLakbGZ7v/fDR32t6O7dfwG9PVRURN6TbaWr91BxaUVdOMVc/Qt1gUD2bK+7iWFcw7SdnWnZOr75P9OhxmI1hWXaUQrLaOO/v1yBh08VG0VRAuAwv3ya1m0cjVXqvxIY0ZqLoC+vvb6EUYwzofu8qRzRvQTaLKi/bYkXF1taPIETxrDinSgv4ly6YTGxqOUnd1A+w/UmEypTJJPRLSAiDBHuW9slLP5ibYV+hTiFtZBqLquu7jb0uyrgil2mDvVVbXSD+9k0aFtFTrRMn++u7cdXXZnBIXFuQrR+uHdbPrx/WwmWpplSkPH8zMO1VBFSZPI+nlXh5Cjc2dFtePxwHECwEv+bVjVFsbH4rfxOitvfvY09nxfeb7c1DomWhpp09D5eP7dfi/LIyk1izJyzFvVziS0nDCRHzrcuP2JGeIhc2mtX1LAW0wd29/WFcxCvlPOI1PZ1s16VX0F1TfVSdAJjF1yc3Q/8fnGOE3rA5g+BHmGSkcinrkdvbkefndY73zwiQErud1Z4E2myJbCaYD2AaHiMZXagXVZaNsxBuWqyzWihRDuqel19J//ZtIBVlZAtIyvcaZTVXULvfx6Fq1gwsWrrNR7SoALuKhpr6YdZ4C8J5K+vXPqUAH1J+Dd+eVN5cmpJHH1fDqBHn84VsrG1DF9keac5y/3XTg/kLw87Uwec6pJyzdtoWACkk9YGPJMEzPDOiyPiC43aKyXbF/HivTutWVGExR3PN6wDte9+bdHUNxwD1E44K644btCqq/B5LPGxxvO0X431rfQ2m8KJahCVKIbDZviTd4BDkyKtATLFR8uxxrg5mnfvt/D117ubQCOgyujYb9xCgh3ojGz/Cg01lVcEzd83zk0ufYuxuu8pifLw87OlhUjK1U79MzQFob80BK8ieNGeMhvRCA8uLWSf3c+7mTWjbedfesKJ8bxfOt5glse5q3ydvUlJztMQG76uOPJUD6nb4lIhFH+cdTa1qIFxujheR2XnZKeZ71BXGQIDR9s/dEIFdlSOC3AXDddvyw9GUM/ztlxAF25IJCuvCxQiBbc7V54JZP2HajWeps7X8MKUlVlM73yegatXF3Cq8dozGhP+t1vomW+rg4T9bbDaFunhPP7I6QShoufUV5YLBlgap+e7G1J5sVyd7Mle3gQmjgGCVYqHIcw8pgQ29Qx7UlHn70XkoIZHENQP/7f/F9QlDMNHu9NXkxODmwup+0/l1BlWZPREab/hk72EoLm4GRLW5cX05ZlRVQHotXlfl3X136TT9nJNRLk4tY/DqJ/fDOenl2ipTnXYnC4fizvh/vr3f9I1PdPoL9+Nk5c2QC4H+J6iG5o2K8l7VpPfzqWLrktklqajlJGUjUl7aiQ4/Wrm/3rKwxPiKG4aOuMNIa3PtqeA4Y/Q14dZcLqIsfVVrVQRUmjvr1r2RqvnXj97P7D2yiYBnIGnTAn8wei1dzaRN4uvuRoz2TrhH8GuTp9S1tbe3J1dBMLXFV9Vfv23i07/Wk7eoWo8CAaMjBSX7NeKLKl0PcQhRALfEymUzv4JyaFvXJhsCRvHwcZw/PSqxm0b3+VEC1T51tLqqhsoVffzKQVq0pFURo7xosJlzb2ythVGb9MnW9I/Rum8+RUEv+nX1uDqWOQBie60b/+lkCPcJkNH6r1ZJtKk8Z7yXH33x1Jg+JdTR6D1BGmjznVZCRUCp2A7MF/pvINCRaLhHFeFBztQvXVrbRrTQkVZGrjdrpLsCyNnxNA3v6OVJLXQKs/z9NdA00fbyp9/062TJKM3wCs9TUVzRK5EJuwvTC7nuprW7ummlaq5bomkwkUjmvjuqaqrFlSdXmzEAJD9EJcNy+tTgJjGO7dbZKz+gaJ8REUzcqRVYLfHS9vKk9QeQfHuEhfYKFhPi2V9IxT6A7Ipt6mTH1iY1i2fNz8yM4G822ZPvZMJDzPiMD8jiAAAFCLSURBVHBtqom2o62UWZJq8rjeppNBS2srNTef3qBUJwNFthROC7hqNvzQkgEdfh8jFyZaVywIEqLl4+1AKam19N/XMmgviBbGaJk6v6/Wu9sHmFlHNDoQrp/hUsgKzzgmXA8heligg2bhMsDM+YKTrXnOdvB7t7+6ubwBertuBFESzBzv4W5HQ4d4UHysK/828gPvdDysrTguhpV0WLc67z++rm3U7ml0QPt+Hae6rmAWWt1jOrn72FPsMA8hTRijhXmWOo7TMp1ih3tQcJSLzK235qt8KitEVFHTx5pLR3ZV0NdctyGQBuSjhknSt29k0g4mfJoie4ye/81++u7tTJPpi/+m0y9fa2OHQNJeeewAvfr4QXrrT0m08pNcam5qE8JVxITt69czmHDVdri/2aT96xNAKWppOfFYxzMB7e31POiSiJxdjMeFmDqm/6X2dl2hKzhr2qt8Q5YZcIL14qpCqq6vJA9nT4n2Ny5mCrk7eYrrnuAE51t03ei3rY2dPNOg4CF03wWPST1V11RHVfys7TA+F+jtei+RmplPew+l62vWC0W2FE4LBsgHZfiqOOF3+7oGJydbWngpE60FIaLMJgvRyqQ9+2DRMj5e/218jb5YP4XrVLDy89pbsHCViMIzYSwTrvtiKDhQn4MNh8t/x8/psN5vcayjy6Vx3pzKumzToI12wbrxPkMyQP/deX/7emd03m9Yxz4N8rPLfgusK3QPPZtMJUT08wtxkvDqaQeqqLSgweRxnVP0EHdy9bQXK1Mq109YQvHQ9vd8uXV5EROmfLFSYYzV/NsiKSzGhdy5/rNhvaqiqJF+/jSHU27H5We5fG4hNdZr9wVBzEnWAm/48/vMuzmcHBxsqTS/kdZ9m09J2ys63FdbmkkiW32DvUkZlJKZp69ZGfQM0BZdlwbgl6n9J7c8u5OCeRiyR8ra8IffPVg/kLuHNiSvkbFbQ8NG0v8teknIzdDwkeTnHkBuTu5CfNqvb7iG4bcF121t7cjFketJvu+Y6PH06zmP0mu/+kRC1CPS4rc7PqGskvQu5/Vq3Whbb5GdV0yH07L1NeuFIlsKfY72j8hs0o4bOcKDzj/Pn3x9mGil1NGrrzPR2lup9TSbPI8TTrbS9bKyJnrjbRCuYgk3Pn6cF911ewQfo8P4PFMJ1+pnkFeH+5Ph/Tvnx0muy6oObdfxfcZJ7m2Aif3Hk+EYbbXrfj0Zw9R+S6T2h1HoDC5RziLzydHZhuwdbMTtrpyJjebCZ/pY44SAFXb2NuLmZyA8/O+klkvezKCfPsymiuIm8vBxoHufHUo3PBZPccM8ed1eAmYMGGDifH6/ATbHyMnVViY1HjLRh256YiDd+PhAsrOzEUvWt2+k00omaKbu213qKySn51BWbrG+Zl3gN9fG2EgykVf6cUDX/Se7PLtTh0xR6ARtInLJppNIize+Qx9zSis6QvZ29nTFuOvpdSY5/7j6Fbp52j00NnoShftEU4BHMHm5+pCLgxs52jmRzK2Huxtfrwfr9jYO5GDrRO5OHuTh4k2BfN0wnygaFTWerppwMxO+F/n+n9GV428kOyZ6OeWZ9Omm9+jN1S+e1P06rBsn3tcb2NvZkaODFojMmnHOka36hgYqKS2jmlrz82UonAFwWRz/oAyVtbZu+LwwT5A9Kwklpc30zZJ8KihsIH8/BwoKdOyQMPcRJpjseC3D9c7MOp6n83Mi2dsNoO9/LKS9+6rk/UKCneVdAT6907WM1rEXB/Q3IBPw9sZ5IenU1ltajrI8NVJxSRM1NEA5Nt6P39o6/y+PARi2Ge9vXzcuHMM24/36ek1Ni9y3urrFKILm8f2WWFfoBsgnoz/Z0L52jDx8HWQeqqryZqqvxQTpHfebWzegIEMnW/iTstCWhr8O693sX/ZxNn30zyMyBgtREEdN96P7nhtGNzw6kGZdEUqRie4UFOlCvkGOMv+Vb7CjuDHGMiE7/+pwJlmD6L5/DqPB47ypuqJZLFkfPHuEtq4oMnt//JZ1/c+wLos+gqODPTlI5Bnrg5Y9HfPjeN7JIRokizrv77TOfz3ab/T77FzXfyp0hZ4vUuYnkRpbGunDDW/S018/Skt2fE6pRYclJPyQsJF068xf02u3Lab37/6G/nntq/SbuU/SFeOvpwuGXUqDgodStH+cWJ4wXxXCx5tLUf6xcizS5IEz6fyhF9FN0+6me857mP51/Zv06f3L6M3bPqP75z4mc2BV1ldQTlkmrTm0nB5dfI9GtEw8+8mmk0FcVAgNT4zR16wX59Skxm1tbbRxyw5asWo9jR87guaeN4McHa2f8Z7r+OSzXHrvg2yzkxr//vGBdOklwfoaUQkrxOWsMMgYLRPYuLmcvv2ugEqZlFkLfJkUPvePIfpaVzg72VJ0tKu+RpScUktP//0wpaSYntR4wnhv+v1jAynQ4HbYT3DjrTvFfdTSDbiTsw1FR7kK6YJ8VVWZHjcyfZov/esfQykjo47efDeLVq8p0fd0xOULgumxRwbSgYPV9Na7mbRlq9E8I0bw93cgPz9HcSstLWum1hYLvxjjL39MoJkz/MQNV6EjVn2eQ9+9rY2LMoULrougC2+IoIxD1fTtmxniitcTXPNgPE2dH0w7fynh89KpoqhJ33NqcHS1o3n8POPOCyB3LwexWsGCBqCXPPNwtXwbtnYDKHKQh2xHEw65AknD2LH13+XTpp8KqbkB5LH3SBjrTbc9NZiJneXrnuT0XGmTI0MD9C3Wg6dv2S5k11TdY2tnQ797ZRTFDfekA1vK6IWH1ITGwK/+OJjGnR9gYq44hc+3fECvrnxOAl1YAhG+UTQmZhJNiJ1KcYGDyM3Zg5ztncnezpGc7J3IFn7HRmhoqhfrU3OreT0pIWQo2dl27fxoO9om0RCbmPA18bK+uY7yy3NoS+p6+iVpBWWXZuhHWhajoyfQ3656iUK8ez6psbXjnJzUuLyikgoKNRcFWLbKK7VBe62t3AiVV1JRcQll5eRRSlqGrIOcNTdDCSqngqJiSs/MprSMbD63VtwJmpqa5fjDyWmyr65Oi0KkcDI4ZvYPvf6Yp6qBlQMkNzc7igh3EeXYVPJn5RXhkOVsLg9rWNrx85h6VkMKYsXF8H519a1Uy4pRc3PXQMOGP/zrn8C767lgwSXy/RAr1Ai4UomABGb+QPBxbGPTUS3ypZm/1lbtuCYcB4uVmT9Y0g6xAgfrFoie8T6L/OnvqGAayBktGf46roOQILgEovtp5d398YZ1WLOqK7jOqmuV8V7yJ2XB+zvIX+/WG/l637yeRv+8dxct/TCTknZWiKtiJcsRntM/xJlCol3JJ9CJqsqaqKK4kfLS6+jA5jJa8nY6vfDwXlrzVS41ifW26/U7rOO3pI7r2n99g4ExYVZJtAR6BkhemMi7liauFzhfEXjE1P6TWm//w++zb93wv4J5SFlbIGUxwfl622J67JN76d73b6Q/fflbem/ta/Tj7q9of85uSitKFhKUx6SopLpICJKvmz+FeodTdEAcxQTES4rwi6Zg71AK9gqVyYjLakqosDKfcsuyKIdTcsEh2p+9m5bt/Y6v/yr97dsn6PY3F9E9715P/1v3esfxWRZOJyNOTc1cDzdaprOrL3HOWLbwGvsPHaEjKenk6uJMhUys4mOiaMrEsVRRWUWfff0D5eUXslJfI8u5502nBZfMFbfDL79dKscUlZRSfX0DXXPlpTRr2iQhZe988Bnl5BaQt7cn3XrDVTRp/Chydupf1oZTxSef5dC7/8sya9mKj3Oj6dP8KCjAUb41Q4h0c8v9B6pp3fpSIWjWAk8Pe7rvnpgePT8U9SPJNbRsRZEo66YwYbwP/f7xQRTUzyxbN9yyg5JTemZd6AtAFhddESpW03UbSujwEURw64rRI73owrmBlI8ABBtKKT3DtIXydOAvTyXSrBn+yrJlAj9/nkNL3kqnmkr07uILBPAVAgMonMs7PN5N9mccqpGxW8b7NXRdjxvmJW58CPuO+asw1qu74zX0fh1dSoGRrhSd6EFOLrbk7GZH/qHOVJRTz8Ssjeq4Djyyq1JcBzWc+r0Tx/rQ7X+CZeu4y7OlAKXIZsAAq/Q4+cvN26QsWZngNeP8GSBu4hdeH0n+4c6Un1ZLKz/L1fcBJ5/XGs7e9dufgmUrSFm2TODzzR/QKyv/ReWmLFuds7IzTmK/l4sPBXgEkruzB4X5RJKDnfaNuTi4UphvJNnb2st6WU0pFVcX0tFjxy3fpUy4SmTbMTqct1+WAlP374NnN2BM9AT6+9Uv98qydTA5i2pq62ni6ER9i3XBYNk6Z8gWrFDrNm0Vi9ZUJljbduyl1rY2On/mFGa+zfTW+59QSVk53Xr9IrKxtaWfVqyhkcMGU1hoEL3w6rsUGhLMZGoRk7U02rl7P02fPJ42bdtFCQNjafqU8ZScmkGlZRU0esQQ8vXx1u+q0BO0k612V57OX9uprBt+A2fTOn4DpteFbD2R0A/J1naNbB3rTV4Cp7KO38DZuf4XVnhmzVRkyxR+5rpnydtpYoUCLJvz2voxWdP2nE3r2hasazCsJ47zZrLF7VwfkK2tuw+Tq4sTDR0UpW+xHvzlJpCtKo1rMbrLO8uta9C2nH3rIOWKbJmGgWyV1ZbqW04jUFCGQjIFK90/Nnoi/f2a3pGt5Wt3UHFpBd14xRx9i3XhnHMjrKqpofyCYgmOkZNX0G6pAsECXF1daOTQwRQRHkJR4aHk5ekhxzQ2NTHRCqKxo4aRv68PDUmIJxsbG6qoqiIPdzeqqq6mg0kp8nvKhDHk4+0l11PoBfBhGSLMSdK3WWTd8PtsW8fv7tY59UfgvWWao0550afr+H0WryuYBZRbrT9RS4Y/S65rOPvWDX/G++SPVw1HWRqpmXmUk296HOSZhuH9jfNDQ1+uH/99Nq5jTcE0JH861NunMQGmthsSYGq7IQGmthsSYGq7IQGmthsSYGL7yUgUgu6cDd5m5wTZOnr0qLj67T1wiH5cvob+8fyr9O2PK2jv/kOUmZ1Lra1tZG9vTy4uzmRnZ0dtfDy2HcV08Ay4HTo7O9EAmwHU1oZ9rVyAjnTx3FlUUFhCL772Lr3y5ge0a++Bs8I31PqgfUmoeFTqWeq3kHc3nScqmUlazil0A5P5ppLJpNXXfQMXJ0dyctTcmawP/N74ZyJPVDKdFLoHsgi5dHzJ+da+ruejRfabWvKf1e/n30bbtf96B0QjHDHY+qMRnhNkC+OuDiYlU3hoCL354j/oyw9eo4/ffpFmTJ1IGZk5EjgDY7GKS0qprq6BqqtrqLqmhgYMgC+2DRWXlvO+MmppaaGy8gqq4+shGktjUzPdduNV9OGb/6GFl14o9ygttUxkmf4E+aC0/1TqYZL86oeQStcoH1TqQTqZFqrfQJMn9debv77DsMQYVo5C9TXrgpKTk/lTMAeteuY8MsiVLI3kDPs7rOP/k91vank27Oc/4+340UuEBftTfLR11inGOCfIFsZSVVRWUoC/H3l7eco2Oztb/u0h5Ck7N1+IFKxc23ftpc3bd8kA3djoSDE/1tbUUtKRFNq+cy9t4xQWHER+Pt60/Oe19OOKNbRl+24qKCiScV2ursfDdyv0AvJh6R+XJZfGH+rZtJQ/80v86rfoaR6e6lL++nLZk2NOccnvIj8UzEJyCv/0vMLCsutn67Kb9+ojoBc6PMRfX7MuyOu358XpXmoPYOn1nhxzauv4T6Fb6HllSGq9m3Ve7S3gbVZb16CvWS/OCbLV2NhIgUy0hiYObI9yBHfB+Nho8mHShAiEbm6u5GBvTz+v2UDrN22nkcOH0NDBg8jWxoaiIsOoubmFPv/mRxnvNW3yeBo2JIGmTBpH+w8eplfe+kACZCQOihUCp9BbdPqaLLkEzsYlfna71H/3N/B749W1//p4iZ99ujS1zcJLhW4hWSXZpeWVTlEtvH62LvG/qXVtW18ASlF9g7W64mvvr+WBIU9O1xL/W37d1DZLrmswLBU6w1BVG0Otd0Tn9d4iNTOf9ial62vWi3NqUmNzgHXrq++WMSHzpbnnzyAnR0d9D1FGZjb9sHw1jR4xlCaMG0V2tiqqjqXxzbe59OUXOdzQtsqHZYVBcNphLftHDPeie++Nl/m5+hPuu38n5eTU62sdYS1lYw7d7e/La99/30CaOlVNamwKa5fk0vJPMmXCX4WeAWHtr35gEPkFWz4a4aYdB8nN1ZmGJ1rfGIt/3b+D8jMtP6H6uYyr7h9Io6djUuOuE+P2dyzZ8QX9b+0bVNNYrW9ROBGGhI+gR+f/6ZyMRtgvyBbGZ23YtJ28vDxp7Kjh5OBwfIAuJjPeun0PxcdGSZh3W0W2LI7Dh6spLc30fEUKpuHlZU+DB3uSt7f1zUfTl/jpp3w6anrqMQUzGDjQnSIjXbheU3VXZ2QeqaacFKXs9AZung4UM8STPH2Od0paCh9/s4p8vDxo3qxx+hbrwUbUPW2q8ukNIuI9KCTKlewdVd3TGUfyD9JhTgo9h6eLFw0LH0W+7j13NV63dT+VVVTTwgun6FusC/2KbCkoKCgoKCicWSxZsYm8PNxoxsTh+hYFBQWFk0d+URk1NjZTTGSwvsW6cM7Ns6WgoKCgoKBgvYD74NkQOUxBQeHsQEigr9USLWMosqWgoKCgoKDQ54gODxLlSEFBQcESqKtvpKqaOn3NeqHIloKCgoKCgkKfA0rR2RCmWUFB4eyARCM8ZP3RCBXZUlBQUFBQUOhz7EvKEOVIQUFBwRIoLCmnrNxCfc16ociWgoKCgoKCQp8jO6+ICorL9TUFBQWFU4ObixN5urvpa9YLRbYUFBQUFBQU+hye7q4yz5aCgoKCJRAbFUojBlvfvH2dociWgoKCgoKCQp9DohFGhehrCgoKCqeGIH9vigwL1NesF2qeLYUzhvzCIioqLqXQ4EDy8/UhGxvr5v5tbUfp0OFkSsvI0rcwBgwgLw93Gjt6BLm6OFN1TS3t3LOfqqtr9AOIXF1dadzo4eTl6SHrrW1tVFhUQvsPHqampiZydHSk2OgITpHn/KTayanpVFNTR0MGDyRHBwfOvgH6HutEVVU1HTqSynJaom8h8uTyHjQwlkKCuq/gm5qaKScvn+zt7SksJMhs2dbW1lFufiH5eHvxd+Bt9d+BtaOktJzyCgolL1FGZ0N+JrGMHT16lBIHxbU/78GkZHmP8Vy3pGVkU1RkGPn6eMu+UwWa/Squo3LzCig8LERkuj/icHIa1dbV0/Ahg+Q7tfb6qKKyivILisjby5NCuN0EysorKDU9k5ydncndzZVaW1t5X5C0R5ZAG8tlOrd5aKeCAvzJwcFe36NgKaBMi0qgCwWdNW0A9JhDXEelZ2bLugO35xPHjZJ2DHVZaVk57dpzgFpYHoMCA2jksET5xiyNmtp6lvk2/iassw4zzLNl+2eGvq0DXnr9fXrg7lv1NQUFy6KxsYl+Wb+Flv+8ltzcXSmUlVE7Ozt9r3WitbWF3l/8JX23dCU18PPnsKKSlZ3HBCyF3F1dKCw0mHJy8+mfL7xB2bws4coG+5PT0qmxoVH229vbyTE/LltFO3fvFyU7KztXyJeXp7tUVOeqsl1bV0effPEdbdq6k4axcuPh7mb1yk1GVg599Nk3tHXHHqpk5TQ7J1+2QUHz9/Nh5ca8r3h1TQ0tX7VOlKG46Ciz8p3HMrCMvwOQT3wHimydPJqam2kbl9X3P/1MA/gPBKUvGnhL4+PPv6UjKWmirKD8QbS+XLKUCgqKaXBCPO3Zd5DlzVeUbEsAZKu8slLIhj8rd93JsSVRUVlDLS1trLif+TJBJ8eHn35DW7btopEjhghRsfb6KDUtk35a+QvZ8HPGxkRK3bJ+03batGWnThY5jyuqRWF3dnbSzzo1HGWl+mBSCivXreTL7dPZ8D2dTYAutGb9ZtaF1kmnBzqfrV0XamOZ2Lc/ib79YQXrNxms0xTQYa6/8E1FhIUIEVu7cStt3LqDMrNyWR/Kk/Y+MMDP4u3boeQsysorpqjwIH2LdQF1zPx55ymypXBmAJKRwh9pc2ur9IgE+PtKg9/ApARKR0FhCe07kEQHmcjY2AyQ3pPtu/ZRZVW1WIhwTmVVFa3btI127T0ohMfZyVEazLT0LNq4ZQftO3hEtiN58HY3JkToGVy5egPtP3RErE8BrMCw6kE79xzQGq7N2+SeaGBQMRgDFQyeYVB8LP3h0fvpgtnTaObUCWLd2rB5BytKI8Vqs3vfIf52bqYbr76cZs+YLD2QULqdnBwoKNCftu3cS5u5gf/t/XfQogUX07DBgyg5NZMrq3QmIQmsiDjodzy3gHLIYGKJ97OztaPI8DCx9tTU1grxBIFZu3GLkBlvLw/asn0P7dqzX3rJAvz96CgriCClICa4FhQPEB57bpj2sqxs4DI3lHcmXwMKB8gtyOzPv2xkucikltY2JrSeUvYHDiULKd68fbccAyXCYH00AL1zsMCeP3Mq/fqOm+i8mVMoOCiQld9Dcg1YI5tbWkSeDPevY1IJOczMyaO1G7awzFUz0Q6S60Npxv1wXCuf58kEGw0UGiwoM7l5hZTK8uvCipKriwsrxUflO9nC5+w9cJhKS8vIw8ONnBwdKSMzhxuznfLudZx33vxeuAfyEYQWFlZ8Z34+3pLn1q5IWgLFJaVcf6RTPdcjeGdYgkBQGpuaxDqEjo7DyalctxyW7xllu23XXirhfHVnZcDZyUms08hvfOsoJyi2yPNcPncTf7d7WMkwyJmjg72UNc5Zu2GrfPvlFZUiY7asVOznOgg91lv5epARWLIhl52tnLgf5HzS+NFC6D/98juRrTtvvZbc+PpNzS0UyHVkS0sr7di9j/IKiuQcwzfg4uws75ObX0AruH5LSeW6lYknPAZw3Uz9G4BlGfKm1XtcdXHCMS2tLdILjWvmsNza83t1/hYsga27D1NtfaNVzLV1gAktvnsn/tbsuDyiIsNFEURZbmeZqKtvoF/4+8UxHqwEowx38/d77Ogxaa+Qr5Af1O2QBVh/UBa4xt79h+TbNMhJDiubkEXcB/XbqrWb5HiUGeQT7RoIdhbnvZQBy5qp+gjyjfoBFiZ/fgYcm5aRSbOmT6IZUyawXNmJ3MOqBVnAtwCr6S5+7sbGRrme1BEsAzu4zt2yYw/XqcUiPy58Tg1vR8cSvolsfhZsQz2EjkYoyyADUmfq3wGu4y3tsSJgJwt02qbwdwwLEPIxgPUO1CnQhVBXoc3be+AQy1GqyBY8a9p1IZYdnAO9Zt3GbSKfkDe0H7gGLJ5ol1APGWQRwSTgbVNRWcl1xfrjuhDLEzc40hajDlvPupUpXQgdNahf31/8BcuuFz3x23tFF4qPjaLPvvpB2qHgwACR1UULL6bzZkyhGm4Tt+3YS2NHDxf5syT2JaVTQVEZjRgcq2+xLiiypXDGALeEA/yBYwniAhO6G1fo+KChmC7+/FtpUPKgCHHFj8odykUSf/gHko5QRFgoNwJOtGbdZqlgsG83Ey64bcEdDw3W1p3aeahsflqxhkaNHCINxTffL2eCtpWKWbk6yMo2KgY0gq+/8zEfm8FKSR5vP8KNZRJNnTSWGy5H/ak1soWGCL1OE8aOlG1ocAu4sQLBmzJxrDQ+aIgmjB3B7+MvChcaPvS4o9EbMTSRCotLKYkrUbwvjgEJRKPGdRhFR4QxKTt+z3MF6OlC7100KzRxMVGiuIwYliikAeX37AuviwKKBmUTNw4V3JBAQdx38LD0vo/n/Kxn5efr73+iHdzQwFVsOyudUI4jOc9AYrAOt6sDhw6zErKHy2OMEI8vvvlRSFthUSkrELmipECp+Oizb4WUofGCPMKtaigTX+PGAGQrmRVXNETxsdHS2LnpDRWIDFyw0HO3YtVaUWSh/ArBYQW2nBtAECs0mhHhoVTAz7aaZRZKP8of7wD3QpAgKE15+UXcQJXJO0OuQkMCWVZK2pU5KGC79h4Qwo58A+kE0YJlDD2HUZwP6M0GwUMnBJQtdFhAXnEfvNe5TLiQZ6g3KqqqKGFgnCgQcP1FGYHQf/vjClEkSssqhLCgHAoKi0W+UP4aMfPg73e3yCqUTbj6Qi4iufxQXugoSddlZuWaDSLPsDitZKVl9bpNXJfx9fg7x/fsy6Rq8edL5BqQ5YOHk6U3eNTwIUKgjMsC5Y/nDw4KoC+/+0nI+dVXzJcya2Al+ZU3PxB5AGl87qU3RXHG86OsYREHMcPzoacZpAl1Ujrvx7OhM+iHZatkexHLF1y30QEEZe3HZatZufOlkpJy+p6PQZ0J+UUHQgzXpZZWjDbuOMjveYzio0P1LWcGqI9WMfmM4286LiZSOufGjhwm74vv6e/PvSLfGAgQ6iN07KGjCCQdbcrY0cOkDkF7AtKC7xb5i3KHvKE+2sF1DuqjfQeTZB+slpAlWCyhFBey7MGNE/VRJdcVnzDBBhGDDENmUHfBqmlcBgayBXJUWo66KVPaojGjhsv+bSxHqD/Q1qEO+IXrm9JyTd7z+VngXYH2But4f8gx6iy4HkJW8L4ggqjT0FnkhA4LlmNYXaqYhEKBX712szw/5AR1UnhoiCj9lrZY9AdABwIRQkfioPgYyssrlDwO9IcuVCVtFDqa0TZs28kknOUF7SXag4OsC2l1viPrQpukvAt4HzqfoW+gTkA5QmfRdKEMWrriFxrDcg7i/PV3y1h/2kqlXG+g/vPx0dzYX33rQ0plucjkthLb8XzQbYw7gdGRA7mvYZmAqzZ0Gcg+5BKd3gkDY6Wdxzpc/PDM+K4m8DdgaWJeUlbJ/w+ggTFh2gYrgyJbCmcM9fX1oiSiQRg5fLCQrWP8h94Q9Nxu2LxdPt4brrlcev1w7JyZU+iSC8+ThsSXKwX0qMBF74LzptOiyy4SJQUECWMeYB2aMXUiTeRGCAQmPCyYpk4cJ5arxV98S/fecSNdtfAS6THauGWn9LZs3rZTKrnHH76XhiQOpM+/XUrTJ48Xtz4DQLZgMYDlDQ0hKiKkI6yMQ0nHvaHAGJMtDcfEBQ2NGnquXbmxK2aFZ8/+Q9JbnsWKMix10yaNk971cxGV1dVSsU8aP4oVLSZbO3aLu4GPtzcrINW05MeVdMHs6XT7zVcLwQFJefzhe2j8mJG05IeVvBxBNgNsRIG861fX0bw5M8SihYZl+pTxkv+zp0+iYYMHiiKVyMr2SFZqoTxsY+L9+EP30KQJo+lIcjorNLl872Dp2YZV8Y5brhWFBg0YzoEcGNCZbAGwdECxBeGCUgyrUiAToBuvWUjDQaZZrmxtbWj0yKHSAZCYECcKEUg2OheuW3SpLNFjjntB8UbehHF+3HbjVay8BEsDByUHLiYglAvnz5X8geyBjKN3Ee92zZXz6YpL50leQOEBsXv/k6+kcr/h6oUiV78wccA3cTa4bZ4KQErQoYG8GTd6hHyLcF2Faya2oTcY5XzdVZeJ7ME1CvXP5ZdeyEpjgZQZ6h3UR5C3q6+4RMgUrAMhwQFy7FT+RiHDcPkE6cX3jPt+xQRp4fwLOc8XiDyAPA2Ki5UygjXjvrtuFgV9+c/rxYU20N+/g3KK4zUFKlnk8rf33d4uhy1MfOByjXrJgZ9/2cpf6NpFl9ENVy1gpapJZBp1GBRgkMHfP/JrUY5ACtDxBOKPOuk39/xK6kvIga2NrdS5yfxuIAd4Z8jGQ7++jYYkDGTl76icB8JhSeQVlkpEwvCQAH3LmQFkA3mKugOkEm54cDk1WJm++X4ZXXzhbLr9pqvluwVJf/TBu+WbBkEdC3LDnxKU2LtuvY7zdZqUJ75bXHPY4ASaNW2ikCVYwgzt0v5Dh5lwH6ZHf3MXjeO6DfIKwgXyi9+QsdtuukpcYFHvjBg2WDp3DADZEovrEXQ8JosMXnjeDFGEQdZh7QahA6kCKUMH1s3XXSGdfJBxtD34BtAxAIX4Vzdezdd3Frlz4X2w9g+Kj6ZbblhEg/mZ7exspU3CNwBlGu8IOcU3A68MfAewzsNaYm5MqoJ5iC60/6B08qDs4dkAuUK54ruHdQm6zY3XXi76EnScufwNXzx3tuhF+EZR74NUoU28gnUhnAvPC8geZG4m60JofyCHqPdQh5WWlYnr8v1338K60MVioYUFDO0tOh5QRzzJ9Qiu8SXrQtMmj2vXhVBPoKzhNQKrGHQgtIfocAbBQl0EQB5BGGFRR/02mNtBPA86oC0JuCT7+3jyMx//TqwJBrKluiIUTjvwYcJsDgXgh59WCelA7zIsAQCUT1gr0AOHin5gXLQ0HvgNKxEUBbhDwDJy+Egaff7Nj0KCYPkwAD0v6KGDGR6VE3psSsoquCIKYOUrWJQIKE0YV1Vfx+cxKUNFgMYDLmvoWTIFKG14fjR2sDJ8/Nm3UinOO38mK7yme2zQa9XESnMzE0k0VlDg7uQGes6saVzJFUtvKdxVNm/fJdc6FwFiDNemVb9soiVLV4oFEY0FCCyAihxuCKjIfbkBGc5l4c9LuLDAiontIDxokGDp+ezrH6T31wCUC6yiy3gflI2L5s4SRQEuQbCEwjUDBB3EB25dIEGQr1i99w1l7tnJZcccpDxZyW3ka8CShAYG9wdhxLMVcMPVGVCYoNzgedAbvnrtRiFyBqCjAUoungG9lZATWGagCELJWc2y/MWSpUIU0VMI+QeZx3gNWO48PTykUcb1cV0o3Z9/+6Mo3CB/6IHEc5/LqOTyR70CF6gflq+m7ZwHUFhhyQE0q0Ow5B2UTvT8wpUVSgzqFbi2QskAqQH5+GrJT0KC0RlgACw+qGugNE8aN0rqJSjnvt7eYj2ELEEhR2cMrNyQi4RBsSLHkGfIsDllI4nrQMg53AXhAgprQ2dgPxSs2KgIUXggH4DmQljEdVOZjOlZunyNKDp4d5BzEM7lq9fRsp9/EWKO8T4GQPmG/GMc6mcsS/tYecIYQ+SLpTE8IYbios6sVQvAdwT33J/XbJDvFqQJ9RHKC0B5GjpXkN8gyHARlPqIyxjfJ1z5hiUOEgszvkEQFgOgaMIVC25akIULz58hZB4yAYUXcoBOw4FMbGAVQ32E9g0y6cL3wH5z+Q95wzeNZ8FYYBBqWEg6A3VTGLd1cGlF+wcvDgD1ZElphbzvkh9XCGmDxROdBBHhIWJNB9kEWUPHj/FzoJ5BhwTabrwzviMQRWPrm0LPYdCF4J78PetCKBPoNCgjAEMrYFWH54+7uzvrQjFSppAVIb8sU5ouNFhc/j7/5gfpOEanmwGaLrRROuogh5A76EKwSKHOAlFHpxHk0KBDDR+aIB070INQN3QGOpAmjRtNTzx8r3htgICjs2fpijUijwagsxBWLcg+SCTaIUsjwNeLwoINHdvWC0W2FE4r4JcMpQINUW1tvbjCQIFA4wGXBJANEB5UJFB+zAGKxA/LVouFBO5baCwNRAWKB3r/oGiiBwjKNhSTzsoLthkrPmiUTgS4ZM2ePpmefvJh+uOj90sPH56zrr5eP6IrYK0r4/e1tbORZ8RzQZEGCXz69w9LhTWSK0s0YHBNOdcAlwZYEFGpQ4lF44LGH710sA6B6WpjlMxHz4IShN63xV8sEaUGeQiiagAUhU1bdwjZuHz+hULeoDcZlzmLmRB1Q5mjZ+5kesNQniB0eK/m5lYZ37GCSRZcA+EGVFXdtUGBzzqIEXqU0bEAtzIoYQaILHKDBLsTSDncxfCtgIijocR4LYw5g3W2ra1VFL2pk8fJGKAjLP84Br3aeF97vhbGYeB4uMyNGjFElCJc+1wFCGhaZra4NkFxhQUUxAgWZZQJtkF5gIyh3M0B5frzLxukrNCbD8XBoLhAoYVbJspv2uTxYp3ENXFvg5IOQBFHeRqAaKWibJwAKCeMBb3s4jm0bOVaSubvpAu4EFE3InXFMVGsQCQgX1CAoYSFslKFcRNwVRM3XSaLsGgZALefIQnxYn1Bvu3cvU+OgVJvaYQGs/Lmd9xb4EwAsrB+83YmI9q4JtRHcOWDq59ByUX+dlcfgUzBpeuTr77X66MscUkFIAuox6UDkGVnwcUXiMUMIoIxowbAeoX6CPICQJaMrermAPIHK+qv77hROgdwH5DszkDnnybvXYkQnrG0rFLa3/KKKungQccBLKKoW2Bt28FygE4bYzkA0ZoycZzUgah30AkEV0R8awq9A+p3kBTIHOQFZQFZgAsw8h/tgGH8na2deathBZcfXIAx5AKdS9m5BR10IZQh2kt4BoHoiy7E14Zl2wCt/Tl+j+50IcgO9B1Yq0D477ntBtFjHr7/dtkPt0UA7wIifu/tN9C1iy7l7XgOo0jOFkJVdR2Vlmsd9dYMRbYUTitAMjCmYWjiIBlY+ecnHqTf/+4+zb+YFQQoOz0Bet9w/BWXzaMnf/trIS5QKA1ECw0nXDtgTTAoV+IHzRUTev7ROECRRaPq6NT7gBQgiLBWnD9rKhWXlsrYMSjBnYHnMYwLGT44QbZB4VmxBj2eGrFCw42KF9c0VtrOFcD1BdbLG6+5nAnqA1LmKPvm5hYh3hhXcyIgX2AdQ0/9735zFz36m7slnD40GPTGwd0ChPtKlgf04gOwbEHJQY8dFE0QMSgGsJyebE8sygqWK3QOBAfCFWyAyCEsZI8/dC/dePVCadA6A/fHcfCXx7tfteBiVmqO9xjCVQk+7VAEMZYDcgMXwKQjKWKNhRva/XfdQnGxUdIoglTgvW+9fhH94ZH75F3xTcCKAXfE6xZdRr/n7bdcfyUNZblD76dBqTsXgW8JltOQoABxGYWM/eF399OYEUNZLvJk3EpPAHIKqysC26CcLrtojhB3lDvqC4xTgKsN3LIMYyvRcQDijHoF5YdvHT2/Ts6OQvB7iqjwUFGsZk2fLFZ7jF01WOVOBPRwo36Ddf7h+26nxx66WwatQxahLFdUVIr8iILu4SEEwwAQAvQ+ow5+6rEH6JK5s6Vjo6oPyBaUosoqy/du9waYxgFjqn5141X0x8d+I7LyJJc1AmKgw6QndTDkISsnVzoN4V74yAN3yLcNQBbgCl/AdcTl8+eKwgmgHcL4OowXRpmgrcvMytHro55HnwMhQ90RHRVBkyeMkfGI6BzAsidwc3MRC++CS+aIjN96wyKpS2EJQ8fEKP5mHuNvCHKIZzWWA3SWIQAQ6nJ8XzgHdeG56pHRl6iqqpH2D67n6HAVXYjrbHi+oBygK/UEBl3oSm5ToAvhuwcJateF9h4QixamKzFEOQwM9BOSjToLZYdOJHh6GI/L6g6o5zBOFdYsA45yOw49BtdDZzi+AcgkvieQO9SJPel06i1SM/No76HjnUfWCkW2FE4rpOe5uVkGe+PjBqD4YswLepHR04iG7ESAawMSetbgUobKCSZrNJg/Ll8t0d0QIfDDz76hdz/6vH2sF/zyP+fj3/3wc+nxmXv+dDHV90or0gHlFWFaL7pgllQsGDgPoDGCSwDui/vAJQONLHoN0ROJAdmoSOGCiGM+YqVK/PO50jX2zz9XgN479O7D/cHQQwc3TriKooyg7Bl1spkESgdjmBCwBAPJv/5hGZWXV7IstYiC/PX3y6XBgRsf8vTTr74XxQDEC1Eg3+Fy+Iy3wW0DUbt62qgAaDgQMEHKkxNC/0Nm4Xoh7jlM6GBV+vSr76RXD72U6Pk1WNAwpgZWOETERICXT7/8XsgnlDI0TmiM7DlfMIbra5YV3AuuiQj2AhcSWHwhs7CKwQ0D+QXiCBc3yPf/PvlaiDqUOvROY7waxmlhmoL3P/5SZB/f3LlI5A1Azz6UV8wvhMhxAAgoLBZlLCcg2VA+TgQospBV9BJDXjCOpr6hQYgtXD8xPgHW9MUsg5AF9P7jm42MCBV3snc+/EzGPEwcP0oCDgwY0PsmFhYOWORRxm+897G4vZ4IcA2EZQrK1Nv/+0TKHcEySkq0fFnN8oBvAN8JrKGDBsboZ2rW34zsHHGbxHmIUId6zdtovKqlgMhhKawcnUnAbc6Hv1mpj/RvFPURrDsIOIJ25ETA92aILghrO1wRQbyghGI8LoKxoE6ATEBO4N4FUiL3ZIVT6iP+pmHVmIZATA697/DDs8MdFO6OsK4j4AUs6CcCxvSgXkGH5DsffEYfcv0Bt9Valje0QwjggXZrN+/HvE8YE2QA2le0dZgO44PFX0lbjWMc7Hv//P0d0HVaOutCDvbSuYa2LLeg0KR7aGcYdCF4N3z29fdyLsaRos6CxQsdKyDjH376tcgixlkhQi10IbSTKGuQMhAyEPETaUKQfbgxTuT2D7JgaBfRLqPjFOOe0d7gO4OO895HX8h3gGEC6NCxNEorqim/qGedUmcSKkCGwmkFQqN7eriJCw562wGQFvQSY0wJBo5jLg/4jouP+dFjYrGCEgl3F1TuGNANJRrrGHPV3NQiA0Ch3KDBBHHCcVCS4F6GBN/k6MgIUWIR3QeK7ugRQ8QyhfDNCKoQwxUBngnmdVRyUF7gn28AdFVYr3Bv+CkDeHYod3D7Qs8yCB0UbSjEuC+WaNgNA1dhlcA9MH4IhBCNLZTgEUMSaPaMKb0iAWcLQIZiosJFKTD04CIf0MBAscGYPASBSGCSgEhFba1aeHYpSy4LRC9DWaB8ESQDve4OdvY0Y9okuQYaDSg5KHNDeUOBRHnHREXIeVC2oYiCICH4AYuIKAhQktELCNlz5bLGPY3LANdsbmmW8SxSntyA+fn4SMh/+M+DdOHZ4VYBpRa9kokDY6Wsg4IQBGCAWPBEZsJCxQKDcRuwuOLZIJcga1DcfDiVVVSIJQXBWQyKDiKhQZHDtzFm5FCJ/oU8EwtXXiEr5TUyKBl5hHfBO8GaCosevrUFl8yVMWHGbiLnGlAuKDfUKxgbBUi9wko0lAN8g3CBwrg2EDCQe/TKg6CCYEHGUF7o8UcegmCj/hA3PFaQUf+IbB5ta5cFJIytgWyjXkGeV1bV0OBB8eK2h44VEDzUFShTPAfkCdZJ7MO6AegNxrNFsvwgAAss7ng2uATCxQ8WL9wDHUMgVgn8niCTeG58A7gmFC7MmXXwcKrUZwgaA4s/5AvnoL5BXYOxgejYwUeAbwBKEPIGMoZOAQQ8gMUE2yyNTTsPST16JqMRosMFHV6oj5CHgNRHLAeI8oi8hSyhHFFfafWRl3xXeHh0WeD71cj0ACl3dAJNnzJBlFUQGSibaEMMcoJe/yiWE3zziPqGNggEC/k8dtQwVBMsqw4iKyhrlJOQeF7vXB9hPYzrAHT0oFxRvgDkBmQO7RCmp0CbCvmEFQykH+8IGQ8O8Oey9acqrjfQIeXDbdFMPZgH6ht4IoDgY4waLF5Y4l1gyYcM4rtCpynqu9Ejhko+Gay8Cj0HrD74ZlFnGcYLI29RL0l9xOUmcscygDLWZMJF6iNNFzomepLoQo5O0uEEj52JY9HR46O3n1zn8HkddaFgrT3mskS7qOlCQ2nO7KnS0YO6AyQe4/Mg7ZDdzroQiD6s5mi/QeZAwtHxMH/e+SJHaBPxDLDyw5UbOs9lF50vLrCWRhmTLcj3mY5wag6GABkDuABNdnfGjZxBqXvW6msKCgoKCgoKCieP5Wt3SDTCiaOZ7CkoKCicIkrLq4VkWsPcfaZwwYIb6Y0X/67cCBUUFBQUFBT6HsMTrSMaoYKCwrkBPx8PqyVaxlBkS0FBQUFBQaHPERzgI8qRgoKCgiVQXllDRSU9C4B0JqHIloKCgoKCgkKfA0oRlCMFBQUFSyAtM5/2Jll/NEI1ZktBQeG0ASGPMfEhIr7NnDZJBgNjkDmi8q1Zt5ny8gvo0ovmyDZEUEL4fgy2PRVgUDkGDx9MSqExo4bK3FiY7NowyP1UgUHC+w4mSXQvDIzHhKjjxgyXweSWCEqBiHi4LiI59WQeHoWuQAAKzFWGUMX1RnPiIcw1wsMjCE93QERNjAvobRkgbDYiZCK0/7FjRykmKpJmTZ8oQTjwLWCOJARDQXAG44AZ5ypWrtspc9tNGKVNg2FtQBQ3RJI1npgc5XLFpcenlDAHBEnavfeABAEwTIh8IkAuESxj7cZt1NBwfFJ+L09PGjV8sATegJyMGj5EArScCAhkgbnSEDQHgU883I9PSKygcC4C40CLSyvoxivm6FusC2rMloKCwmkHFIclP66gb39cKRGvDH09mNz4B1ZyPv/mR5m4F7DUnByI2lRUUiYh1RFOGzotoj5ZQrkF0dq2a48QRUR1ArnKY0UN6wij3JNw4ycCnrM/KOJ9CUwmi/lmEKq9oaFJyqmxqVlC5G/ZsVuidHUHkPO9B5JOeJwxQLQgz6kZmMjzmNxz1579tPzndRK9Et/CTyt/kakC+guKyyqt2rKF7/nLJT9JhEGUFxLK6f2Pv5B58LoDIqJioteUXkzcCrnERK9r1m6SyLWGe8oE53odhbn8egp0LGEy8917D0pdp6BwrsPHy50C/S0f5dDSUKHfFRQUThuguOzcvZ98fXzI28tDQh0jjCzmnSooKJbe4RlTJ4rFCz2+CE8LxQOK7seff0uHjqRIiGpMTIqQxStWr6Pd+w7JpMaYGwgKNOaJ+fmXDTJxqYT/dnKgZSvX0mZWhBAqGWHZK/g50AON3uIjKen0xbdLZY4sECaE3G5ubuZ7pdKmLTtlDpu1G7ZKqGPMB2fcw4z3AYnD/CKYHHQmP3uQv5/MbYX51jDZMXqsMQfKdz+t1CZVdnGRUL/prGThmXA+FDnMFQflCr3RCF2P50HIXvS2Q4nClAjAmvWbxDoIawveAVYRzL/1/U8/04pV6+lIarq8I0L1KpKmAZZTlAnCwmPCZ0xaPHr4EJnUE6GLYeFE+H2EtP5h2SqRK8gPQlpDaV3KpAgTf0JmEVY7L7+Ivvl+Oa1at1FkE/PoIYwz5M0ATKb80Wff0qKFF8vkyJh2AOWIeQAHxsfQLyxTmJOLC0nCdYN44Vr7+TnjoiPlvh99+g0ft4WycvNlm4QiZwKP7+XjL74V5T6VlWuEYcaUE5AlhPz/keUDEzBjugMc++PyNfLdYNoMyCossTgf8yvhPpiCwBAGvS9RXFpJ3pxXoUGWDytvCYBs/bBsNX/LV9LC+RfKNBHDBg/ifN3C3381DU0cKMd1zn9MrYAJyL/+bpnM64YpIGAtxfxFmPsI3zLmVULYbUxHYADkMoflBHXLXbdeJ1MGYNJsTHSLcNmYjLq+vlE8ATBv0co16+kgL9FJBYs/LKNfffeThNhGvYTpUjBRMub0wkTe6EzAb4SbhzUVIbo3bt4h1jvIGp4F02zgeljHu6N+QT2I7wHyj29kydKVtHzVWsrNK9CvpeoWBeuAC8uov68nt6vHQ9NbEwyh35VlS0FB4bQCrjEJrGzu3Z8kyg1caaBgjhw+WBQItOHS688KI4gGGvsvmQyBAGHOm69YoYEiCSKCSa2hBINY1NbXizIChQDXKSmrYCV5jSiTUERAtBwcHFjprKLNrKTAtRATaUMxxW8QPSgiO1hBgrKxbeceIUhQUKC4YMLTlLQM/S004Jouzi6Uw/dEbzLmewoLDaLzZk6hxIR4eWZYTvB+UE7g4gOFGPPbgFxhYmLMa4PJnpOYPEFhAzkrYyULE+vC/exIShqff0TmK8GEurgG5jQpZMKJ9VJ+9mWsqON6eE+4Ha74eZ3koRkvcQUG5rIaJ3OuDRCFtJjzERNHoywhP1k5+aLMIh8dmORgfiPMq1bG8ohJOiETkLuU1Aw5rrOFCtfAPdayop7H5Q2SNGbUMJmw2MPNTRRdO1s7UWgx5xEmxwVRwnmQxcVffEfllZVyje0798o94U6Kcv7mhxVyLubFgbxCVjCH289rNgiBgzUEx2HSWpC+puYmWrdpmxCDgqJikTtYfCEesMBm5uTqT9230KIRhuhr1g/IBiZ3vmjuLCbfSWJ9wqSx7fnP3xsIFTpk7FhGIB+QE3x3ySnptIwJir0dOmeOSRnuZZLWU6BeREcACHEV12FYwrUahN1AuDExPyb+wtyDsKZnZGbLuZDlMq7/cI2NW3fQlm27pR7Ec2K9salRrHdyDstJNss83KBra2tl/i/UV9lM8CH7q7iOxTvD4gZChnoQ2xUUrAHesGz5eetr1gtFthQUFE47oiLDKSe3gMrKy4VYYKLR+Lgok72lBzFehpXMe26/ka658lIKCQrU95CQDkzeetO1l1NIYID0HF975WV05y3XSW8SlAJYG6BUD2KCN03Gx2jjc9CrLJNz8jE3XL2QbrrmcplYdtPWXTLx8DFWRmHxWDh/Ll218GLy9fWhIiY/xkDv9cRxo2T8189rN9I/X3ydXnvnY6pmYoT7occ66UiajN9Cz/WFc2bK/bKZ5EFpcudnufC8GTL5bGREmJAw5AcIFZTwoAB/UeAATIIJxQ4TGt9y/SK6/qoFMnEzLBawkE0YO4puv+kamn/heZxnybIdE1oqmAcmF4a1CLKASWExJuvqyy+hu391vYwXxATGsFoNH5JAUyaOlcmA3fkclPcNnP84bub0SWLNAEEyRoC/H1156TwhSK+zTDz7wuv00WffiNUC43+mTR4nE3LPnT1dSBvkFJPLQt7gSguL1lULLxG5mc33gJKLe6CzYhLL3N23XU+/uukqGpI4UKzAAEgWZBayMWfWVJG/6ZMn8DdxKXl5eAjpw4TNmHz5+qsuo9tuuprOnzlFJvQ+HQjw8xK3n7MJqJFgecTk5iA5ICP45iX/b7xK6h8Qk8SBcTLp+NRJ41iOIsTijPF4kJEbuW7BpPnZTOA7A5ZGuBK++vZH9Mx/XqNX3vpALGGdXZAH8F90VLhMHAvLNSzymNj4zluvpQUXXyDHg5xh3BYsmqP4WW669gqKCg8VTwC4aoMABnE9eSvXH4sWzJP6EZ0zufz8qGPnzJpGd/Hzzpk9TSbURcfDYd4/efxokUNY7jMyc6S+Rv2loHCmgXm28ovK9DXrhSJbCgoKpx0gNXDJKi2rEAUAFiK4BXamWughhlIB1y241bg4O8nAbwPQ2wpLEkgayImvjxd98uUSVmxfo0+//E4sTebQ2toipAjKKxRjuO9h1v3m5iZRat3dXWUd7mFQnLy8PPUzjwNKDRRvKOgXsKISERYq1gb0Qu/cc0CUGRCoFavX0wuvvCuuZ0dSM8SNETP1o9fcw4MVfr5OJCtFsKLBygJrA1wEoUyBBAAgaeWsKDs5Ocl94ToG5Q55BGvFN98vo3+99Ia4qUEhwr0x+7+CeYAIwVoBRRVlDEV66fI1ovSirAzjB40BeYClC+Ox/vH8q+LSCSLcGbBwnM+EBwrv8KEJQpwhV3BzhXW1s9XRm+Uf8guAEOUVFNL7H38p9wDRAlGqq4V7l5dYfP/98lv03EtvatYNHZA9dFrAmuLm6ioyEhIcINvhmmszwIZl3ZciwkPk2m//7xMqZcUZyvvpAJSikrIqfe3sAcbYYawf6hm40TUZ5z8To85AvYT6CvXbcy+/KcMy9uwzb9WChQzlGqC7s6Ke02jeccDCCSINiyieBZYpWLpefO09rvO+o0PJqUL64YLs7+fD8uYnroOQK9SNqAsh6978XOgwCA0J5n2efK1GKX/URd8vW0X/evENqmT5Q/0May3k7mv+Fp7/79u0fPU6SpMAHLWKbClYBdKy8mjvIeuPRqjIloKCwmmHEyuio0YMoQOHjtBWVhbjmEDBwtCFbTFgvTKHATYDRKlEw1+ijy0AYP3yY4UDSo95YPC5TTuZOcZ/uI7BGgQChLEJGFNmDnA/hDsPLCAYB4Se7uuuuowVLU9Kz8iS7VDiMZ4slEnhoIExNGf2VBoUFyPXhcuYvb2DXCsyIlTyICs7l5WZGlaA/OTdDBjAijKeVX/cDgBRDQ0OkvFmGA90xWXzZBxJbwbX90dUVdWIcgplF1bOzdt2CZFB7z+UXshAZ8CKJGOtGMhjWABMyRnG0UA20LGAcWKQjUULLhK3w5Kysi5kC9+Ek+PxyJuwpoSFBkuZwnoF6xSUZlxz89Zdonjj/h5M/gyAPLt1E1kR+3Hd2dMmiRUPynhSihb843RgX1I6pWbm6WtnB1BO6AARssr5t2d/kli/TeW/AU1MqhH5Eq7FILcgM+aiWGJMKkgxOmwgI9dcMZ+GDUmQ7cbQXJb5GfTt+B3CsgUZQf2JMh05LFFkEZ0GIPvGAFHE8xu8B/BeqO+wDGRiNnHsKLHOoZMHMgaLFqxdII0Y0wdrLOQQLpWoz3AtBYUzjcrqOiotr9TXrBfqa1FQUDgjiI2JlLEjIFwYhG6q8YZikDAoTsYMYOwWelpNKYZQW7EPva5wo4O7YQIrDlCkzQHKC3p4a+rqZPB6ZWW1FsCCCQ7cunqC1tY2ef7N23a2R6qDdQrXBOCC5u/rLa5jUKamTBgrBAthwA1KjwFQaqDoIAw0xowFigvhcWUfljYEMajg59TGc2TQ0uWrqam5RXqhJ44fJUr9pHGjxWpmrFgpdAVcRTGGBeUBZbeiokq2TZ00lonNfCEjpkhUASveINEgzVCMQYZMyS4UbgTbyMnNb3cJg6VDXBZPoKhCkfdmwn4eE/ibr72Sle9EsSag/LOy80SRvuHqBXTZxReIpaOnwPeQmZUr1uIFl1xAl150vhAuuIWdDpRVVItydLYARASdOBgvN33KeCExkv+8lPznPDSV/whWkptXKN80XDrhJtyZ/JwKQKhB4mBVB4E/b/pkJnNu4kJo7puHZQyEHlFgYTmFHFRUVUkdmJaeJWNA4WYN91i8H1xNYflCAI2J40dL3TJy2GCt80tVKwpWAj8fTwoJtM6AO8ZQZEtBQeGMAC4zGGSOKHtwEzSnJAxmsgXF4u//flWiu8EVqjNg8UHELrjivfn+J/SfV94W9z30/jY2NgppQcQ+KL/VrEQAGNAeHREmFqE331tML73+nijDGJcAi1ZPAKvG4IR4cemBC9+f/v4feu2dj1gXGUCjRw5jJT5UeoNByP767Ev0Bt8H4yAQqINfWL+KBozNgoskohhCScO1jZVyKFOTxo+hnbv30TP/eZXe/egLqmVih17zyRPHSrCQvz/3itwfZK17q17/BFzunv/vW1JOf/3nyzJucMK4kRQeCne7QMkzuAe+8taH4kII0oogLq5MwBFAYBOTapQNyNP7H31Jr7/7sfT+Nzc1S+hvY9cqjNEZkjBQrvc0lz3uid+IOAeXQoz3g1shtqGjwNjOBWvYeTMni5vfX555QUKPOzjai/soxv/ls7w98/yr9NnXPwjRBhFrZQX/RMA3BsstIng+/cyL8vxwI4MMnw6EBPpK5DBrx/8Wf0V//scLkp55/jXO80ghvvhG8Tu/qFjcOz/7Sst/1C0oe1ip0QGCMVhw1UTY/3++8IYE4ZGOndpaIdunCtwT9QrkAHL83zc/oMMpaUL8zNWjzk7ONGL4YJHrF155hz787Gvp0MGYM8g3XJ//8+o7XM++InIPS3tMVITsX7FqrcgL8kUj/fBCUIxL4cwjLjKERgyO0desFyr0u4KCwmkDXGNgvcFYKLjXBbFSOXrkUFZ2g0XRxbgBNPDobQfBiolCCGVXcQtE246xCIiyBcV4xLDB0vOKa+F4EBi4w2B8CpTVMUx2YBWD+4unh4cc6+fjRdF8fexHGGyMiQJZcWAlCS5B48eOoGFDBpG9g70ow3CXwfPCCgYlG/fFmB0DYGnAGA4EWgAxwj1A+DCAflBctDaOjO+BXmWMDUMoe4QAxzGwqEDZwTMber1xTzwXLGHYjjyBAoXnxXNGhAW3j79BWPkpE8YIacU7oscZ90GIcLg0Iq8U4dIA2UHeIvS7YSyckFTOv+GDEyQ/Yc3E+DlYNpH3Y0YNl/JCmcMlFdYEBGCBfKLMEWgFMjNx7EiRQcgKytug7MI6ABcvRP1DWGK4JcISAbIFeYHrooFUx7MCD5cwhAyHIgt5wzVhOYWbGjocLpg9TeQc50Bxh1saAmwgcAfIWyjfC/dAoBV0MuD+cEUNCwmRzgZ0RmCqBTyzFyvreE682/AhifKdncjaZgl4cJ75+3iKhcUagY4cP1+vdhlBggvdpfPmcH3kJ3JkyH+PzvnPx8k+Nzex2sNaijJCfYH1CSwncE+FG6chr3E9jMHEPfDd49s2AOUDmUTdh+8fshkSHCRju0D6UIa4NuQFAYdQ52AyZdQBkG3ULY4sY1gPDQmU+yJ5erpL3YPOgMnjx/B9g+Va+AZwPORx3OjhEnwHnU54b8gPvp9ElkO8L+qc0yEvCgonAuoS1HfWCkPo9wHHYCc3gbiRMyh1z1p9TUFBQeH0A9UTXPve++gLWYebjCcrOtcuukyUUQUFBQUFBYX+CczdB1f68JDTE+Snt7hgwY30xot/V26ECgoK1g30DsOKhTRu1HC69OI5imgpKJyFyMkvoaLSrhEeFRQUFE4GaVn5tDdJRSNUUFBQOGnAlQbuMJjnCglR9jAORkFB4ezDvsPplJrRda4pBQUFhZNBdW29BI2ydiiypaCgoKCgoNDnqKyqFeVIQUFBwRII8PWi8JAAfc16ociWgoKCgoKCQp8jPNifAv299TUFBQWFU0NcFKIRxupr1gtFthQUFBQUFBT6HMMTYyielSMFBQUFS8DdzYW8Pd30NeuFIlsKCgoKCgoKfQ4vVoqgHCkoKChYAoXF5ZSZW6SvWS8U2VJQUFBQUFDoc2SxUlTAypGCgoKCJZCalU/7DqlohAoKCgoKCgoKtC8J0Qjz9DUFBQWFU0NdfSNV1dTqa9YLRbYUFBQUFBQU+hyIRFjLypGCgoKCJRDk70NRYUH6mvVCkS0FBQUFBQWFPkdkWCAFB/roawoKCgqnBi0aYYy+Zr1QZEtBQUFBQUGhz6FFIwzV1xQUFBRODa4uTuTh7qqvWS8U2VJQUFBQUFDoc3i4uYhypKCgoGAJ5BeVUXpWgb5mvVBkS0FBQUFBQaHPAaUor7BUX1NQUFA4NaRm5tPepDR9zXqhyJaCgoKCgoJCn2Pf4XRKUdEIFRQULISGxiaqrWvQ16wXimwpKCgoKCgo9DkQprmhsVlfU1BQUDg1hAT6UkxkiL5mvVBkS0FBQUFBQaHPERMRTGHBfvqagoKCwqkB0QhHDo7V16wXimwpKCgoKCgo9DkQjTBORSNUUFCwEJydHM+KoDsDjjH03x0QN3IGpe5Zq68pKCgoKCgoKJwaMGZr9aY9lFdQQgNjwmnW5JEUGuRLSSnZtIa3F5aU0+D4KJo9ZSQF+HnR/sMZtHrjHiqrqGKyFivbfbzcafeBVLlOVXUtjR46kLePkBDQ2/ccke119Q00fmSibHdxdqLNOw/J9qamZpo8dijNnjyCHBzsaf3W/bK9ra2Npk8YIcfb2NjIsyANGDCAn3EUzZw0nFr5GDzLhm37yd7OjmZNGUVTxw2hRr7m6o17acuug6L84Z0mjk6UsSSrN+2lHXsPk7ubi2wfO3wgVfIz4zp7DqaSt6e7bB85JJZKy6vkWQ7wO/v7esn2oYOiqLC4XK5zODWLggN8+b4jKSE2nHI5D3Hf1MxcCg8J4HcaSbFRIZSZU8TH7+ZlIUVHBMt2zHGGYAKrN+6W8+KjwyQvQ4P8+Lo5ct/C4jJKjI+U4wP9vfk5MmV7aXklDUuIkeN9vT34udPk+pVVtTRqaLxs90Te702WPKutq6dxIxJkOxThzTuTZHtjUxNNGjNEru/oyHm/7YBsb21tpWkThst2W1vk/V7ZTnRM8n4Wl1Vb21F5lvVb95Ed8p6PnTZ+KDU1t0hebt55kJwctbyfNCZRXFaxfTvnvZurlvfjRgykqpo62b77QAp5ebrJ9Udx3pdVVMv19yelk5+PlvfDEqKoqKRCtielZFEQ8p6fJTEuQgK94DopGbkUFuwvzx4XHUpZucj7PZSRXUBR4UGyHcs05D1vz8kvprgo5P0IOe9wWo68a0FRGSXEIe9H8H186OARLe9LyippaEK0XMfPx5P2HkqXMqyoqmGZiZM89vJwox37Uvg6u6mmtp7Gjhgkx7u5OrNMHpbtGNs0cfRgOd7J0YE2bD8o21taWmnq+GFyvJ2dLf2yeZ9sBzWYOWmkHH/0KOc9y9m6rXu5fGwlb6ZPGEbNyHsuq007DnB5Osj2yWMGU31Dk+TNtj1JXP7Ocu1xIwdRdU29vNOu/cnkyc+M7aOGxlF5ZY0cvy8pjeXLU7YPS4ym4tJKOf5QcibLo49sT4yPkAiEOD45PYfll/OenzGe894accGCG+mNF/+uyJaCgoKCgoLC6QEUMSiKICggQT5MNqB4QznGdijPUNB8WBEGGQJhKeftUAqhPOJ4e3s7USrLWdmHog4ig+1QFqtZmcZ2kCcQAJAZKPCV1XVyfSiOUE69+fogVRV8LLZDFcKx2A6CBQUQ2wfwn7cXjneXY7AdZMmGj/Fm0odr4ZrllbWsyNeSLV8T23FvkLMK3l5dW0d2rKTiGh7uLtTSiu01VMOkBKQN98Q7NPM7YnstE0UHe3vZjndGnuBZkEeOnCe4DkgM8hDPX9/QKAo0trs4O4pije1Ygvxhu7OTQ5e8x/VxXue8x3bcB3mP7XiuznmP67d0yXtsr5H3BvFFGUI5r9Lzvo3zCUo2tiPvQdaw/SjnK/IRJBp5jzxAGYJs4drIT+O8xzHYDrIkec/HgnRL3vN2Tw9XKX9shzwY530r5z3kCe9gnPeQL2zHOzvwO+L443lfSyDvPct7bK8xyns3WfYs77Gdv4f2vK/lvG8hN5QJ5wGeq6ZWKxPJeyaRkE28R4e8d2O55+14b5BL5KfkPcqEryN5z/mF7V3ynq8BmT3Gf3gWbEfe41mwD8dgO54feY/t8j3oee8leY/tNXJvlD/KG/KAvMf2as57yAvK0JD3uI58D/yO2I68B5lDGSLvURdgO/KoqQnba7S8d+C852dE3lsjFNlSUFBQUFBQUFBQUFDoAxjIlhqzpaCgoKCgoKCgoKCg0AdQZEtBQUFBQUFBQUFBQaEPoMiWgoKCgoKCgoKCgoJCH0CRLQUFBQUFBQUFBQUFhT6AIlsKCgoKCgoKCgoKCgp9AEW2FBQUFBQUFBQUFBQU+gCKbCkoKCgoKCgoKCgoKPQBFNlSUFBQUFBQUFBQUFDoAyiypaCgoKCgoKCgoKCg0AdQZEtBQUFBQUFBQUFBQaEPoMiWgoKCgoKCgoKCgoJCH0CRLQUFBQUFBQUFBQUFhT6AIlsKCgoKCgoKCgoKCgp9AEW2FBQUFBQUFBQUFBQU+gCKbCkoKCgoKCgoKCgoKPQBFNlSUFBQUFBQUFBQUFDoAyiypaCgoKCgoKCgoKCg0AcYcIyh/+6AuJEzyNbWVl9TUFBQUFBQUFBQUFBQ6Ana2tpo5ZKPzJMtM5sVFBQUFBQUFBQUFBQUegCzZEtBQUFBQUFBQUFBQUHh5KHGbCkoKCgoKCgoKCgoKPQBFNlSUFBQUFBQUFBQUFDoAyiypaCgoKCgoKCgoKCg0AdQZEtBQUFBQUFBQUFBQaEPoMiWgoKCgoKCgoKCgoJCH0CRLQUFBQUFBQUFBQUFBYuD6P8BQB2ieY2tMRoAAAAASUVORK5CYII=;" vertex="1" parent="1">
          <mxGeometry x="29.99998779296874" y="37.00001220703125" width="859" height="410" as="geometry" />
        </mxCell>
        <mxCell id="S7oFmrqghf663vn2V5Jl-2" value="" style="shape=image;verticalLabelPosition=bottom;labelBackgroundColor=default;verticalAlign=top;aspect=fixed;imageAspect=0;image=data:image/png,iVBORw0KGgoAAAANSUhEUgAAAIcAAABMCAYAAABHyKR9AAAAAXNSR0IArs4c6QAAAARnQU1BAACxjwv8YQUAAAAJcEhZcwAADsMAAA7DAcdvqGQAAADLSURBVHhe7dIxAcAgEMDAL/49tx3YIA7ulhjI8/4GLtYuHMxBMgfJHCRzkMxBMgfJHCRzkMxBMgfJHCRzkMxBMgfJHCRzkMxBMgfJHCRzkMxBMgfJHCRzkMxBMgfJHCRzkMxBMgfJHCRzkMxBMgfJHCRzkMxBMgfJHCRzkMxBMgfJHCRzkMxBMgfJHCRzkMxBMgfJHCRzkMxBMgfJHCRzkMxBMgfJHCRzkMxBMgfJHCRzkMxBMgfJHCRzkMxBMgfJHCRzkMxBMgdh5gNa1gSUhjPSxQAAAABJRU5ErkJggg==;" vertex="1" parent="1">
          <mxGeometry x="47.99998779296874" y="298.00001220703126" width="135" height="76" as="geometry" />
        </mxCell>
        <mxCell id="S7oFmrqghf663vn2V5Jl-3" value="" style="shape=image;verticalLabelPosition=bottom;labelBackgroundColor=default;verticalAlign=top;aspect=fixed;imageAspect=0;image=data:image/png,iVBORw0KGgoAAAANSUhEUgAAAGAAAAAgCAYAAADtwH1UAAAAAXNSR0IArs4c6QAAAARnQU1BAACxjwv8YQUAAAAJcEhZcwAADsMAAA7DAcdvqGQAAABiSURBVGhD7dExAQAgDMCwgX/PwIGHPM1TAV3nmTD7N0gDsAZgDcAagDUAawDWAKwBWAOwBmANwBqANQBrANYArAFYA7AGYA3AGoA1AGsA1gCsAVgDsAZgDcAagDUAawA1cwH1NQQ8ChnZoAAAAABJRU5ErkJggg==;" vertex="1" parent="1">
          <mxGeometry x="826" y="124" width="60" height="20" as="geometry" />
        </mxCell>
        <mxCell id="S7oFmrqghf663vn2V5Jl-4" value="" style="shape=image;verticalLabelPosition=bottom;labelBackgroundColor=default;verticalAlign=top;aspect=fixed;imageAspect=0;image=data:image/png,iVBORw0KGgoAAAANSUhEUgAAAUQAAADACAYAAAB8vBq8AAAAAXNSR0IArs4c6QAAAARnQU1BAACxjwv8YQUAAAAJcEhZcwAADsMAAA7DAcdvqGQAAAJHSURBVHhe7dTBDcAgEMCwo/vvDKjKFtifbJC1rwFgvgrwPEMEiCECxBABYogAMUSAGCJADBEghggQQwSIIQLEEAFiiAAxRIAYIkAMESCGCBBDBIghAsQQAWKIADFEgBgiQAwRIIYIEEMEiCECxBABYogAMUSAGCJADBEghggQQwSIIQLEEAFiiAAxRIAYIkAMESCGCBBDBIghAsQQAWKIADFEgBgiQAwRIIYIEEMEiCECxBABYogAMUSAGCJADBEghggQQwSIIQLEEAFiiAAxRIAYIkAMESCGCBBDBIghAsQQAWKIADFEgBgiQAwRIIYIEEMEiCECxBABYogAMUSAGCJADBEghggQQwSIIQLEEAFiiAAxRIAYIkAMESCGCBBDBIghAsQQAWKIADFEgBgiQAwRIIYIEEMEiCECxBABYogAMUSAGCJADBEghggQQwSIIQLEEAFiiAAxRIAYIkAMESCGCBBDBIghAsQQAWKIADFEgBgiQAwRIIYIEEMEiCECxBABYogAMUSAGCJADBEghggQQwSIIQLEEAFiiAAxRIAYIkAMESCGCBBDBIghAsQQAWKIADFEgBgiQAwRIIYIEEMEiCECxBABYogAMUSAGCJADBEghggQQwSIIQLEEAFiiAAxRIAYIkAMESCGCBBDBIghAsQQAWKIADFEgBgiQAwRIIYIEEMEiCECxBABYogAMUSAGCJADBEghggQQwSIIQLEEAFiiAAxRIAYIkAMESCGCBBDBIghAsQQAWKIADFEgBgiwG/mAC3oBXwJcrJ1AAAAAElFTkSuQmCC;" vertex="1" parent="1">
          <mxGeometry x="547.9999877929688" y="236.00001220703126" width="324" height="192" as="geometry" />
        </mxCell>
        <mxCell id="S7oFmrqghf663vn2V5Jl-6" value="" style="shape=image;verticalLabelPosition=bottom;labelBackgroundColor=default;verticalAlign=top;aspect=fixed;imageAspect=0;image=data:image/png,iVBORw0KGgoAAAANSUhEUgAAABAAAAAnCAYAAAAGjMh0AAAAAXNSR0IArs4c6QAAAARnQU1BAACxjwv8YQUAAAAJcEhZcwAADsMAAA7DAcdvqGQAAAHzSURBVEhLpZZbj6JAEIUPIOqI99Edk9mH/f8/aifZmzoicpGLoMxWsbVPdLEJ+xFDcpCT7q4+1VgfBAwc3gNESYrRaIgvn19EbaMa5EWJqrrDcWx4k7GobVSDx6NG/VHDomswcERtY8u9RZYXCKMrkjQTxYxq4F8ivH0/4NfxLIoZ1eCa5jgFUTOKLlQDWh66/o1qMPOesF0vsVrMRDGjViG5ZihuFVyqwHIxFbVNZxn5kUXzcJweZSyrCimVMr+VophRDcI4xf4YwD9HopjRDah8P/YnHP1QFDOqQV7cEF9T2pG5KGZUAw7QejnHfOaJYkatwukcUilzirOL191G1Daqwa2scL8/YNsWnsYjUduoU+A+4LqDzigzqgGHyecwxT3DxC+/faM4H3rGOc1vuEQJlbJnQ3Fsu5n/oCMHjGqwmE6w267xvJqLYkYtY0ZTqChQPJIpmWmoBnX9J870l6akGuoTPhfiJEOa9czChdN48PFOW7oL1SCME/zck4Hfsx+UdKxlRUGZ6NmRZt4Enzar/l05CBNawKIJ1G67ErWNasAn84NKaVFbHg1dUduoU+AX//66UA3444I/Ms5BLIoZ1YDj/LU5nX1RzKgGvBMTGgUvZBeqAa/+eDzEsGMBGdVgOffw+rLB9nkhipn/7MrAb9e7C0sA0phMAAAAAElFTkSuQmCC;" vertex="1" parent="1">
          <mxGeometry x="839.9999877929688" y="118.00001220703125" width="16" height="39" as="geometry" />
        </mxCell>
        <mxCell id="S7oFmrqghf663vn2V5Jl-7" value="" style="shape=image;verticalLabelPosition=bottom;labelBackgroundColor=default;verticalAlign=top;aspect=fixed;imageAspect=0;image=data:image/png,iVBORw0KGgoAAAANSUhEUgAAAFoAAAAfCAYAAABnPdrdAAAAAXNSR0IArs4c6QAAAARnQU1BAACxjwv8YQUAAAAJcEhZcwAADsMAAA7DAcdvqGQAAABhSURBVGhD7dCxAYAwDMCw0P9/Boa+EE/S4t3P+xvWnVuWGR0xOmJ0xOiI0RGjI0ZHjI4YHTE6YnTE6IjREaMjRkeMjhgdMTpidMToiNERoyNGR4yOGB0xOmJ0xOiI0YmZD6SLBDpoeBkpAAAAAElFTkSuQmCC;" vertex="1" parent="1">
          <mxGeometry x="741.9999877929688" y="177.00001220703126" width="90" height="31" as="geometry" />
        </mxCell>
        <mxCell id="S7oFmrqghf663vn2V5Jl-10" value="" style="shape=image;verticalLabelPosition=bottom;labelBackgroundColor=default;verticalAlign=top;aspect=fixed;imageAspect=0;image=data:image/png,iVBORw0KGgoAAAANSUhEUgAAAG8AAABvCAYAAADixZ5gAAAAAXNSR0IArs4c6QAAAARnQU1BAACxjwv8YQUAAAAJcEhZcwAADsMAAA7DAcdvqGQAADKZSURBVHhe7X13uGZVdf6a3hswM8wMQ5emgKIosRsfo8YGEY0migoIFhQFC1gAawQCgvpDQMWCYAkRjbFEomKMRgVBVASGcZgKTGF6b/e33vdda+99vnsvDJP8k+fJe87eq6+9z9lnn7PP9313Zkifw/4P/ysxNOj/4X8hOPO2bdlp836/wXbuxCQcIgPrRFfqwE1DGvvDeLrxkfxC2yU9GEDbqNq+JKDJ28uQpg+JATX9lURVD+yg9F0bpHpmA4P4ddFoggXZ5ygJHLzVy7bZpafda1s37XRjnYz1QJ0m60g9TxT3esqG9tiEsLstKUnUpZnUyKn4ph/rtAUtiCT01h6oviDdwZPjUK94chtbe+xgJYXOCWIKwhctiA05eBGd2b4iF0s3hlWx5N7wQ+ykq6Vpbpu6NvtiS15IGmhF5yHuFOtFxhoLJB9aPGa9FM/WFZAT2daPvsErJnyASEIP7cWa+UVSC6QGp1Rc0ZVOqS3clLJ1+KZVkJR2yYorni7gHMlLNnE0FSQr2lNzlwSUwWMCVSx04g4ZKgjiZZNP8injIHeE307oaFMM1fSjqvC0SiEetVfgpA5d8mI6MYQUsBR1Rmow1D/wZXDAO9mJmjYqUclPHAts0PDp4gJiaA8Z0DGnWGMkBiVkA2UNmxRBawxKWLgn6sxLh3CWl18rENsI2mRt1QR9hR3O6WqGLrUtre1J69QZpZemC+ga36TOdGIk0INe2qVLF5GKMHAAS0B4ZRCh9kAxizQD2UoH0qTWacRIgxwN39DkWYtUvVdhYQ00t01HJJVz8jGApUEHMnP3jfq6KU52zEAnESIdrVCyhL34yUA7aZTQUU85aPiFWPgQCHpzhw4xQX3DLEEhQLGTiM886gdZR/KIJaGfYqKEusxCbFQnBcsI0fBJe+mjBHjJ7nyIBAdPriq0wil5v75CCn3whTrANiJ4iLwym5g2tsuDiBbPNANyIEuEL/3auvWDEElo1y65muLuUCylRkyVRHVSk9eZkae80tpyla8x2qCSDdIQsFKiilo02+1aysyrrnSWINpXH7PBFHvbOO3ck8ecjVsnxfAFFSuCynXiYQuja8RGxsKjRiVeMaHzOv0KgqU3d/RJSvDcoFcgtdiF5IuCfpJi5hHhR1vlw6IYiorBQOmWSyNq50GbGjttKCDFUtDcNlu1I5IKGZi6Ht+C/no8+zD8ugQaDzID5xk0+6AxrhssaABDXo5p6u/RPUni+3sBXAAFD3S8ysB0gfazBdQoOZid095gIHWzYMlAppCzK5IKsmkPXdMauSqK95KqnImIzfiSJzhK2S50aR4QTUzwNaZaMgk9Qh2Wkj/lgvBhn8HQIbxKp2SAiNwYFByfBqeL7F3GSAytJ8iLm7rGVi401CIFZfDkqsA2GAItYdDmKSnSg3oV7L4VP20lztl8jQCUM2OoCF/xpGmjBD5K6lFRFk9d2JInJCgOOu7QwVc0FzBaxMCBTn60EUU1KhBFC2FzqtsiZEbIX0blhhdUTYwI5OC91i1ZFw795Vwo0Nw24Vohn5pYUsvnNSFZaPhWDbicKtxKk2+5itqutE6diaYFOYTd0foGJR9+RJOAXtolVxNnT4UMqGtrQdFmCaxt5SyCmHyNKRVpxqSGOcUUW7UXL6KZeajgJOcQyadNUvKxCuUePkDxg6G1S8amq4ka+Xb8oKAy+PSjEqJoh5e1E+MMeYmoybcGenOHAjHgYmOOdJRf3vKxR0UUP1jpB9kLeOQJnkZJjFFYjaEIyACGrKTgi63zzAslHYJBHTxIBkrVXF8yhpd4EpawJ5xHJE8EYxo/onKFb/yoqw6BVpHxXnOHlDGyyCCedu1CmIpcUNtFTDcfYpKPW17Yq7YLydWat1tJXgrvFDxF6RKd2+YuoXQS6CZ7NNgRFOjepoDdz9vF7uXJ/gwUnbra54HbwAX6SK332iFjsNr2eZFTSntFZ+ZlMDfKoWFEWkHCEj64y1ODXc70gSy1b8WXTiyIwkM8FzH0oS1jlIdW6oNPG2lTUk8e1uCLr2hYaCOBzL3ZaFP/UFJGDFj0PcSoQBBJjgVqaDQTdbxSRnEoPzh41hipECOkDVyi3zOvAxdTw6Ry6vqWGOjVVHiQUwk0LOFyqrCISXTjRcFR8vakdZrmhByKX8c3qdTkiUhCD7BBgDANABk4GNU7SBuk9kDzUdGdkT2xRI0RgVz92vTNbbM6MyA15CVRAxKa9MsYsugeRFmEYpNfu6WMnZ+Fpi8od+ioYKE1adhop2cPT7aJCRvthQcRhSe9uUMHv6DBY6YQJSZ8KYbObXkctIatPNe88DKHPvzKDKdUYyTDrdoS/DJ21bKtduEb7uSXsXk3Zz3Yl4KoSfKLxcYyJL+m9FqMk2TSUgwdW15J+CI0tORJi58qkepHXdqCAhOmDLO/+8hU23PWCMqPFr+8YYP98psbyGe/2i9ta3tAt22g/VJ3aGNLP5H0kSbF5PEUTA/ke+MXR5PvLFg42qo0vjHarHtGnm6ypBB83ky8FkNCwI+7ti6PqzEe1qUtsK0fFFQGX/3oEQ68Sin02dT9R+z2wAEHPH6k90mtoDVuJX9o1ZQq8mkTK0kzLxyCKJ+coIBauWn2rV2FArXdngVLQcN2EEkHdGjjaW/kjq0is7XIF/hye+pgoIhOSx0gRZtm0Z+22G3/ttFu7y0/UvldU1ooBZKRGaA99Sv1pKXhrnerzVIQMR2dQ8/JXi0HVbfNT7z+j93bJklMVxdy2lIXNtYtz6rGCJCd5x66YgtdawMiB9zKTXiAmOCEiKEubMCBTxhjrz5/Kvl/u2qVD17cAlkNHAO854YZpA/M3WZffd9K8sU7+tLeBonUp66xZwwoxijbQw7cb8osCj8gfw8k1D6e/qUx1PRfsLB2niR0QcNCW2rolzzZSgXIPYsYJhBPHWPqVmRn/7s/qQgrIbXX6QsqpiemB6FWFHxFcUsDLxkqUdz+uVGUjn5BoUtb3hYVQwcVBxcxUFHq5gM6zzxYYSrOLW2S0kO7pGKqvklrTM8AAmFj3agJ+gqP9BpRtNkuZGdK0wOi8U1aYrqB8KCXdumC6Xo6wlBqMuHV6ZDaA8UAiat8AZxKWMYIMXhSMjCc5RPOXpFQlbzX5NPinBwoDRwTAxgygSDuvrU8GdHyWSjsDGn8oGKB1FApZU/QJrviwhdUDIv4/qA39/QL6lsu9QlQ7CTiM2l7HLSSFeWXtLAzJoqszJ1SQoPXp/WUAqlgYPJFl3wkJZxtpDA1fpmHhubjV+qDLxSc81Ukj4sKt3uo09TGdnkQ0dQWlCSNJfvndY1p7AD8I2bMxCE2bvJQL8Ns3BTQ4J1OSBl0yhAb73Ssy2OdH+1xbd7eAdSZiT54VT0b9ChjwbLFPv66P9iWjTvrg5VV7wMdCF1ji108apK0O9KXBvBhcVL5oA7qemzgWBr9wy5iwnaQL1j+7oLp5H9w5Uq7/YfryctdPpk/Y1C/959nkceC5dpzVpDf97Gj7GXvmoxX2V1GtGA7/Qr86TWb7N5fbw0Nmkurt+9sbV02csUH0ALnTV8eR6kz88j6sLNICD10FKsuKGvwIKmRQ0ioxMsAPh7P3GkJmyAbam3JIwoP+HYRAzNdVIWvaOELlCfcCt8vhkJ/TD9ouI2ZMNRGj9v1MioK4g4+dni0qAbKeYbWGS6AQgMFjpeGLC6XW7OjXEMY3xJIBO/O4hScPGmTiPZGlAlV9U0qyKY9dLCFnXWoCfAwS+IiJvuc8SVPcJRKey0G1pWYjj21rc5sxaLttuSerU3ZZvd7AU0eZdl9270Lih0yzEtJFfkGOR98VDgPmh694ODRuQ9/pyCJGgR6hWAI0lJQe6FrbeB0NYXkhL6hKb5h0OYtUKSHQDt234qftozDvis/qehFVcMvSk9Mb1SowVEG/v0La+26D6xkuf4Dq+z6Dzr18rUPrrKvn7fKvsay2r572dr61acjXyOYSkmd1DZppYAzg8UafDMmSoDPvJX+zPvYSb+3LfxDkzC0dd5/gcLrPk1K2dHYtBdL11dCD+/XkVh6nXDmDDv0yeOleJS473eb7DuXLSd/0DFj7e8/tDf571/5kN32g3Xk2Yo6oGZb3nHujbNJ75+71a59r3I9+WXj7TknTSL/9QtW2sI7m+cXIrlnBue9gSl7D7PXXzrFhg4b4s+7Lfavl8Uz18GXebp3Y0gbW7G6DbPtLddOoBjPPFU5yhzkaqAuuI6NF0HYqCu81+TT4pwcKIUQPKpYhYIPcuwLJ9vEPYfvVjn6uROYj6kb4CRUXdunlm99IsYVra6gMTCSO27nUjIvaYOIUV/Etx45CxlLP0nw19tA9S3PPKBJ0dS9tHrtCgb1Rs/ENCVR+Q1rttuCP22yRZ2yecCybmX7/TzQHmqVWl1/dK1F6gmqYv9s0njd3xTo7dfgSBtolkS/wWuN5eooNKxxdbTWwpdBcUhdIFOTKfP0DmSKjj/7LfCqsxfYZ6NcefZCu/JdC+yqdy1Uefcilqu9/OmX9ZZU0K8/yN/0vzEPDgaKLWjkSMKs2qt1sAaKH+54oWABCQoZO4l08hXK4GFxUl8UfXNZugiMJL2LGFrDVnRBUXOjHBo5hBUkLOGTWwcIUoisja9sycsdoA9sPYCGWsaQYQrRWgqchcTSo68WEFFmDTV4ygFwXLDQFw7gpaMRRRV9pIqNLlrEJDozD9BgZQokTjRaz9Q7gCjJk6K1Fi6mhh2RU9e3GEImku/Rty5Arxy4f+5mu+78B1nm/AZf9SgP3b0thTkdJJ4o/WqhGKnDFj7Iysyh7qCfTorOKjR03TbTVlEGD/o6q7JCgKdESXXU0LcDmDYXi45CsScvKc1hCVtYZC4ID0FB0kW+3B68b4vd9V/rvWzgscBz49oddu9v19vc326wNSu2KZxF9kK9ho320CS6ktD6dWIkEJm5IGzQ45yij1KkPmIohs5tMKctQ4AyeFxpFpq3S5UWra58LhPZJbH5Qsm3LTqbdtZy6PhlhgIXoSv64hdVqG/54Wq77iP323UfvZ9yXnTkB+AKX/xQO+9kkw/6prU7+ZFhWnoR3qrpEF4QpEhNAfxpdh7nuMCV+TxLnxqNgIYPdGYesLOTsT9ac00DdKXdRunkfw/IMvihPHIbn3z9Ypavf2hZaHYTPceDPmW/ensBOXWPMAyEXtKXbrEPv/Z2v8p8qV1eEqO4jIT5qsi6fZEEDXnGAWPs+SfNJN9F++oa6CiG+C1vs/3kep0omC686Sjyv//ZWrv+4wtdVx/P2R49mzz9X3DFzzxotO2x9wibvt9IKQMb1+20JXO22IpF22z7Fj/KEq+6NBOa446fYM99/RTy15+33Bb+cQv56ltpYsqM4XbyZXvZMH9Jn/OrzfYvl651bZzRjEFdG3PIRktRB+OGM6+bLLYM3mtu4ycsSgsfOedX8bqRdm2Ampb+dRccbMc8Zw/Ku4PPvfc+u/c2HNwQu6gM3hofvEXk1Zq3xD360NsX38dNGGb7HjHGjnzGBHvMk8bZ2InDwmNgbPZb48I/bLY7f7GB74trlu+I7J6RjKR28K5rBk8u2aOMAYb44A3zwZtaBu87l64JS3iH86P5ScWZ16sP3dUm7ruF1YIED9UduCg5rCqwocAX92cA9egx9SThH+TZldLnJYHvxTyto+pyUSSgNde4mO3SFvYhw/rsqS+bYu+59iB7zfmz7Oi/nNgZuOx3W4DRY4faIU8ZayecNdXe/vnZ9vxT/QLkiYCPqEoF9aiQJxTpG+rCJ0LFoijYRXEauGDMAFDo6CleMRVl5n3oNb+1rfFwJmLk+89AIK4b10kLDLE3X3ioHXGcPvv7+Gv/UHNkrSASmYbYvoeNtVefsx8Eu/4fFtrtP15F/uJ/P5r0jpsx83DbDJQ2/bpzJqUjnjrBnve6qTZt35Glz8CD87fYvbf6jLp7s688/VT4AegqNxszbqhNP2C0HXLsWJt9uH4Lmdiweof94ltr7Dff0Z0A+IsTJtaZ90HMvM3kZR74nOC2ecrlmnn34LZ5yWqeQ3pxl3f2GXXbf+QjiRrimdfr7lZXm156RxbgFRqUN1W6UKOVqRfElpVnYOmizbZs4SYvm8UvEr8cOpeXOg87frnWRTcPkX0gj10fJ2AfNtzs+SdPs1e/b5Y/00bxwNeu2G633bTGrjp7oX36LfPth9cs56cv8+/c6LfFTbbgzk220G+Pc27ZaD//5kq75t1L7NI3LLCff2OVPXT/NrTCu8BfnbyHveLcqTZ2Ek5Tn8dssZu/uppl1VJ/7VAv1LHoI6m6NgDCJznucTQIoiReMlTyE1q+Gbx0jnAoVKikJpayebvULQ00SwcRQ0vDF13hu1CTXYtUXjMPqO4QI0YPsVefu48965V7+iD6KfB7z5xb1ttlb5pnN1z6gC34k7+UN6l4Rfs+DFPP9zQh5zof8J98daV95vSF9rOvr7Id22U99Lhx9pbPzrLxew63Jfdstv/8pzX2ixvW2Jpl25WgHJujOc7aVxQqBcpSyB6PBshhktURftAkmy0A3WfeIKgpHgnVY3diHh367LXnzbYjnqavR9av3m5f+sBC+8r5i2zzhnr7HzVmiB397In2yvfOsFMv3MdOu2S2nfKP+9ipF8+yV567tz3xBZP6LWh+9rVV9rmzlnAVCuAb8dd9fLrtMXOwX17v7jH0ByYG0D9jO2xCDJ4MZao6iqvrkDCnMk6L/iAEDcFL+rS1SD0zJaU/RemkFOjT1UGuNSqvvdcnvmuWPeaJ+r4P//AdBm7ObfiXC+Wz58yR9lf+DDzrmgPtle+ZYUc9a4Lt99gxts+ho1lmHzbGHvu08faSM9zny/vbie+d7itUf+5hRvoMXnbfVvvS++63eb/bxDam+KvGS9+xl40YpS6gN9okJw+BuoYfEEqiKO65wcSa55OfFIUv8wULNDNP2jzh5EPXiSi8KAe2SBUl1tHmEaeIygsDcYCaRKWYQ4+dYE96nhYOG9dtt6vOmmdL7o1b5NA+O+4lU+zsLxxoz37VnjZ+sj8UHbgN4p+mxCcmKFs377Tt2zyfJx8+Yog99unj7fWfmGkvPM3fyVxGSxt90XL9hx/gV03w2+fQUT7I0/ygEce0jsI0qH3t2MnKRkQSeoZ6gKgeVEvzzNOyNPFIA5hXhX5LApuXxkXTP2Ply5nptLo538QQYb9/7iZ7wAsWBumHMnX2KHvtB/elKwbg8++d74seLB7wDDQ+A1/0Jv1aDFj70Ha76cvL7Yoz59snT7vPLn7dPJZPvnG+XfG2BfadzyyzZQvifc2fiU9+8SQ7+cJZNnzUULRqO7z5q9+x2BdB+q5w/8f7rD3cp1/0SQAfJfUskLqAjfa0SGAcddxRIY90qDuvEYHOzKvfKwkDDmDo9BkoL3Qi79UJqFWSUww50ODbuOLptktOv5vle1cviWjhGS+fasNHqts3f2O5LfEBRqZRY4baq86d7S/mE7ksxwcOP7luhV12+jz76ddW2APztvD2umn9Dpa1D23z1e5Wu/UHa+yKty+0b1++1Nb5QAMzHzPK3vypfWziVMzaPtuwaod99zPLOVOR+/h3TrWR/iyFTYPGMEEHIAK0NgKKjAljJAgLmbDQlOPAc9U01gxePMEaZ6AdwNQW6jY9YlprQInoLEt40DdQbC26fqwj/5S9R9pxL9I7zkMPbrWffXM5bcBzXzPN3zG1eME3CVedNd9u+soyDhQRfsqEnJXHoNz6ozV26evn29L5enXB4uT4d07jb0/g8+fbNtkdP9GXvZOmDbfHPXO8axPuQSEyFr4X0qU+/QgITR+1h43oxgJl8HDL1LUkDNR0WnPWJSD1qJpocSl3afUSXO5VNXjxafrLHXwy8+1PLbFtW3kjtoOPGW9Pfdme5IEvnLvAZ1q8QA+asL9+u+f9wnsW2YO+WAEOOHKMPf0V+hwR/r/5F320BRz5l1osDZqdBlQDeBTbriPPbxtVZ55rcSpyBSkvuXZmYuhqtvBhXQE5CxA3GfKiaUnqcLb1KG04hvpqftbB+tMmLDjm34lZ4LexkUPsxafP4KJj+7ad9pULFvqtFF+68p4Qe+TpHEdWAfr5rPXXjH+66AHORuDYF02KW6T5bXaL3fNr/YnYrINH2l77+quD55Sn0zZfoFWRp1NvTOMVSejBXVvRNRh644032saNG+XigfgcEz6Q+XkbBKjcloNYkqQMGnyiXASo3YaHbRnAcC+LmIAywB9E0UknTx3py38sFMx+/cNV/i6HFaDrp42w6ftKv2zRFrvr12tcrxjU5LAzKZQUpMNGX21pW+qDdPP1K2kbP3mYPevVe5KHy4+/+hBfJYYOH2KP99nnKsaQIosUwau0kAVV9W1jiIhxS1En3+YbeuKJJ9pfPu/ptmD5LfQD4pplvUuLmIKWz9lWtXWgGm0nPrWZPaj7HPfivagB/vNbS8Nu9sKTZ/C5BHz9wsW2Mz4ZYV7mRg61XPpMNHyrBlz+5XdX+Yu/npdHP2ecjRqr1ed6X3XiM1IAf7g51O9dDPe2lMapM2x6MLS+SUtMBEYCeNCLe9gCQ/fee2972UtebjMmH0lF1znknsCBBrBaBfjwEGlAhQvBafj2+guwB+sMmwl/vNsBWCWuWurPJNdjhXn4U6TH94EPzsMdxNG2wUr3Ae2yEWxAOsXUbZuvVh/0FSow0gdu/BR9CoNV7MZ1GlT8/QE+oosMkYMMi/guysxJX1AxqDp8CAHnuVfd0DvuuMPOOef9Nmp4+eiAwO0yRQZgb+y9A6iBIUuA1cKmLoTqjBbajlSoXVnCwxPMOkjPO/wOJTF5+sjy2rDgrg3R34hp+7eL/9SWbGCkvutXer6N8DYweDDhZX/9Sr1SjPSBG+HP3AwWEU0+uA6qJnuRMSGRhBeEyEldqIGhe+2l21Ee3kDIky800Y+AR/OTii66bYxrPntcv7oZPH/eJfDj3H7QWQjser8TKxbnN+X6cCCxCh9KO3C7xkLqfxa73s+y2sTYMixGGgI0WFTkl7GSpZdr0LJV0OY7Lgp+MuAlc8CWhU4Jl+FLTVKv2++38rNL2EaOqnq8gMOXKUFZowqeFBvvKTSqfflIFVv44gdIBX6mdC7csVErFDESQKQUT30ifWgDDZk2r2mjECIFATYQeROdV4U0tU7pGq+6DtdQGfa2gR7QFvb0ylncln7wGJ6f7HD7ZzYOxrhtey5OHPkZJqAmGVl8iaTUi08KrgMXh/Z8idDj0YOaBxwl9r+NaiQ5BGliUhe1aPCl/0IdPAS5rXPCkyLY+ZwVqAd7jShoZNhw+ttZjCws1c0hHVURA7q+uSVykFwHn3Wr6i2Uq0GmixzglYiajAknML55CxSpCJt46KbOqj9YWjrfX/qZo49/qpygJnKKh1J5mImVIJYOqsNBxOsSExQ2qckTEoh622wcsuZNKZxRs3hV7GQkDYRcXRYeNPzbGdiiqxOH96qHHtDzZ8KUEanlN/OJ/R+HTzzcor1AzXZPCuvoD++BEGkJhO3Qp+jPh7FI2Rgfsw0dij/b0pTkNxS++gRqfJOnwwvQZJ8Gg8yZMeoBYuol5GcTDn0ckeYgQWkQj5MfLrTTBKEHA+rcmaGkDCyDCZBrdU4y5q5b8FsSsz32Hllm2aZ12+2+P+jzxlkHj7Yx47EiZJAoC0XyIqGLKp/E3KMtAD+vwE8GAQzQmuXb6YdXgzHj6mvDts0aPEDnCXu2VaoKtp8690ObbDdjvKYsHmL6yyQeKIOXMwN+5Ogovk5PPatxuwTN2QNEcwOjaRCgVKuC9hrOfOnxy3/RHzgCz3z5tODMfvClB0iHjxhqf/te/ZAp0c3QoPQHNEsgbPjDzj1maIbNvX1D+YAbvzTD71uA+X/YxFnJBVk/POwZ6T0lgYFj5Nvf0o6LajAd53j2kCtehAbQtf1iBPiX7kRv88rpela0+tKexyxdsLE84457Eb4W0vxcePd6W4mXdschx0ywmQfqfZDGJlmegKJ2RVISSQTe6U48e6YN8VskPob7/lXL1G/fn3b8FP5eBrjl+2u4kENkef43eXolAHLx7LqmodqDdvkKDR7taQhniqKa1kI9+bD5AsR53XjSQ0g/oNhcx9mKfF44ixs/ucmW8RmLbxAW3aOX5kl7jfBbGgapj8+dH137AL9pGDl6qJ380QNtwp54Lsbm4cohHrRkRTtBpdtpw3yN8pI3780ZBvzh5+tsbbyUT9xrmD31BH2Dv3T+Flsyty5ikGKgf2pLuRtQjwgKYWYG6agIffilnjRqoMw8zi5lCkSC4gwqPm+xaa6vEV0MNAidNlqeaDrboeJ+/h3dOvGF6F+fPDO0ffbr762w3//HakpTpo+0kz9yoI0ck4fmXtolgacQWV1ICrzy3fvY456hj9zw4v+Dzy8tQce+QL9JBW7/iZ7BBMzB4pcFiXLMBZJZZ7vwKm7ZFwrFXuoSI8QR6rE92AAiRBQq+enKooWDqYGCg5C3EeBhB7AXNKHyEnl1k+qzO3+50u69Xf8gwKFPmmRPet4ekbHPvn3FIlvMr4LMZh861t519WF29LOnRKbIFRKgLkSPXJjhM/m0iw6wo545kR8K4OulL31gkS+KdGnu6a8Nx720/pT/sU8dHx+ZRd7Ij8VcHi9AWwDq6iuFrE6lFk8ZgvRplJk1UWYeTlGsuxRYnMAnjQReIzA9ePsDo7NM7NK3EcxXfQQN1p4zRnsZVV4NsnzvC/l3C2Z/fcosm+Dvfci9evlW++xZc+K7PI+fOcpO+uD+dsrHDrKDjhrvt9qR9RuAqMdNHsGBPuGd+9iZnz3YDjxarwb4/PSLH1hoi+Yo1zBft+BHvWMn1M/C8OuzN1482/aa2fzxiqfleQCb50pNVRQ57XkGUDvf+gc/gIoog8fA4AZFMzjoZCP2Q831iFkLWs8PXHs0ywlv1Qoy2/qzvxr8xw36a6I9po+ys646wl8R9OkKfkl22Vvvttt/qp/MA0ccN9HefOnBds5XDrcP33ikve+6I+ydVx1qH/724+zcaw+zt15+kB3313VG4QvXy9801/78u/r37X/z9pk240B9trlm+TZbv0rPQPy88Iwr9rNp8X1iYneO/ZEwUKY689zKQrd6VQi6IvQpVfBedX0cDc/bsIsP91loCB1wFrsfPslHwfONbSGW8X1242cX2OJ7tXiZPHWEnXTegTaRixSz7b6w+epH59nV5861e27TLRa3wRGj8M9JDfMBH8nFDt4JscDJ7wJXPrDV/vmTi+1TZ8y1DWt9cKKtl751b3vC8yYxx0P3b7Ur3jHfLj31zzbnVg0u+njKP+xjh/kLPY8JffUNzz6kaB8fgKzwg0CuUHk6LyU3ClRAn7zQmXmsneQJ11ilM2hNLDB9v6RArkLpS5PsOYCAohtEnh4t5SzAju077cpz5tiD8zfxpB7+5El2ykcPtmmzR9EHK8+7frXGrjx7jn3yLXfbr7+/wubfucGWL97CWbPRB+chH6zFflu842er7Uvnz7dPnHSX+620rZu8596H0X6LxM8I/yKec/hF9g2X3s/vEzdv2GnXf3Sx/f7mtWxr/JTh9or3zLAjnzHe++PO0Vmev0FQjzK4zrE7DTOI7KgKITh4dGBgumbwrixiZGs9CDfuyk8qBohkbAKcnsXgFIeZuXbFVvvMWXfbZvxBqGO/w8bZuz/3WH8H3IueiuyzhXdtsG9cvMA+/fZ77KI33GkfftUf7UOv+KN94nV32uVvvceu/ch8u/MXq6NJxex7xFj7wNcPs6OepdUlfqx71bvu06c57oI+bN3cZ9+8eInd9iP9KAlfDP/tOTPt2BdOcpfor/vV4xTKsXMHTyVEluRplVE8aJGFZub5JVP1BH1dWQZQCgjcO1RMQUqIFa+VWOs30IHVNrpoLmgCedc8tNU+9trf2xz+QabfwvzW+Kp37W9nX3m4PeOEafEyHSfG8+7wcd7hq0isJHdigkXnYMf3cgccOd5O/tiBdvrFB/ITG8xqALfWo56pgYyzwazI8a3LHuCPegH4v/jN0+wFJ08tfxK36sFtdvFJ99mFfz/PbrzcXzsC6pW4SkPrfS1aZ/KUyEaW6LltehACi5f4XIUSDZN+oOK7QBS2+l4Yvr4l2jAdblcHsE9ksoqcXlb7DPz0O+/yF/X7eTsEZh86zhcZ+9qHbjjaXn7mfr6sn2T7HDKOq9dxk4az4ItcvB4ccuwEe8EbZti7v3iYL2wOssOePIHfzuPZee9t6znrcBE876Rp9sJT9/ZnsH7Lol39wo96b7jkAb8wfBXuA/2ME/ew4982nd+07/BbDm6567xs9dtte8HqYo08UNOknFCQsg47bdICfg76+lY8uMnec+LPjX+THsirDqcUbPkjQFZdW2jtrE8+3o56mn4/efJxPyUFMgYLbb6SRDhyHnLMZDv7M/oT5ms+NMdu+ZFWkp/9xdNJb/3xQ3bNBfd4jAeh304UrhpXuA5niI32W9cZlx5u+x2hJX+iPWEDoR6rsGLJFl+43Gub1++0Jzx3ir36HP0jcsiDPyH78vkLfdaWjjgRP33/0fbWT+3PnyECc2/faF98/6JiBy2zxduEV9qC6+GDEs6H8P5vawXemXntIbbHC17W8ClGl6WI0qBJkC6gnMVgipJMQbcXgGQ9L/UOKE5IirybN+20S958p114yp323asX892PNpyEhykAVpg//cYyfzbea/946j3xct7Hv9S9+j338TNO+B5y7Hg75RP72+jxfuqiI+yz70vv22xfuWCxrYuP0w5+wlh740WzbfRYb0MuzWNEqMcLLpxS5+cGnCTnQ50og6cTCgcVOSM4eW/YS2qocORgsFAjgGeeMCAKC43+P6loISlaKFAeHbj+vAyDqBzsoxd9Rirdkrkb7Kbr7rfzTvydfcIXKf/8qYX2X/+63O74j1V+K1znz8h19rufrbLf3rTSvnvlYl+R3mPnnfAH/l3EgjvX85nIXOxGn8+gdb5gmcc/aMEAHuQv8yddMNsm7JVfQfkuZ5v72/V2zbkL/cLRh+j7P26snfH/9rcp0/NLZDw181woJo+PebAllZGFPG3igDrzioNQ+B4mE/Ox3SRNe0VrqTxQb86uaToDtJ1roQPUzEsMNAulqzkemLfBfvatpfaNf5xvXzz/z3bF2ffYZ718+YJ5dt0/3Gc//eYyW3y33hkLanh0DxfERrv63fM4I9GXA44cZ2/79IE2bmI8A+klunTBFrvotXNtub/wA5Onj7CXvk3/5ifhbtlEfhaK2NrvdJBGbLUm6szjUTcO4NlzUelTFp8DWFF5qDNeclDIzvefdVVO34JGhg3t4soFxQxUpC/xfVFyzHP3tCc+F7+IUwzr8AVtMilt6oKqyJYa+Zm/pG+2S96I98v4Vn+PEfaOqx5jsx4zxs3eQokRrvHn3cK79ceZjzlmrN9y/UU+fdgehTIDAR47d9+olk0sIwrK4PEDVXJKmk7FGfYiiNetK4TGJkiRHeCMiQSo2YYz0gQ6Qhe5uix8S72Ae8oLp9rrzzvYy0GU0Qb+UHKin+RJewznqwRyMBUC6dFQGqShh/aUaFrrryefOWOuzblVn95M8LynfmI/O+SJ+CYiY7Tho7TvX7WUL/LAQY8fK5+E3Nl/3ErT0nJk2afQlf61My/q6led6wwKe/DqUzbltRgCfuUnFeAVKBo8Bl8zpyL9WmQLLeCH2QRKe68L2/Er/vET7aM3PsE+8q0n2JNfsGe4tf7qHyoSqpL3OvOzULRtW3fY58+9z5+b+rsIfNR20of2tcPxJ2Z5JSHUCV41IpTfB1Zb5PV4DJxOVTg6dJ7SD4qGD9RnXqNunfujq0tpIE8oWzsKZyDgAk4+b2eBbG/gdgPNAQKQpPKqMYntPiPTnLbGvR9Ou+ggO93L8W+L14SmTnzzokV28zf0fy7g9eA15822p/9N/ZAbHTviqRPL/8Mw/4+6hQ7Ucp6LgS7egSPamQcrPcQkSyq28sm4Bjy8tbWgQaVY5KMiXVoAXbSuaZTZlvKnINoeaBNSAF2JAZzVFR3apMULtfhDnzjRb4UTbb/D/FYndYGa7eOL/A++8IDddO0y/pYFL+gvOm1v+/sP7mNPefEUe/lZM+25r9mLK1R8sXvHzWsjO8MrnIeIwkGM4yq+RDg1us7M4wafcBKplDyNotSTl7k/0le8/KpjywM5CzNzohOTNtdxsJ2i8KqlQZBf3toTEmiJGORJrbMsqgSKucHuG2u6iL/pKw/yX2nCYAKPe/pEn7Ez7EnP1x9m7vT3o+9e8aBtbH5/yjyeJDclL1LnNYLHzx081UTPMw8Al5ISJa3aQGEGQNsK4im2GcTnooNwdtB3P/fjQYBPjya2k8eRj55eILbqax5xqFt7L9yiXRJ4Cn32x1+ssav8VQL/sm4LfI10zbkL/B0zfjZRg5RHbAXMwXZWoUVbdWXw8ipO1DY8DFQVFOTlK6rEYQtQok9CeehNGjrSRCxgusqO18MNYBvIT2RakwMijrMskuDi8ZSSEpUj2GHZWZOXlMAPg/EvLl3+5jn26TP+bF98/wK74sx5dvEb7rW5d/h7pE/K9vwqJ3bfIl9umR99zVsowPgqts88aZmIfBSqmVIi7OAlCtQHH9hj2iibMn20TQH1Ijko5KlOvYyf3P2DANx4eOIDI315Dz/8ZWzmIh+6tuBrmUT9BqPmGjNhuE1yPxV/fXA6cRpixU/ey2mUFiVLe5DOSsL5SpPOzeJ7Ntjdv1nDPzvLry7yrIkTD6kAbCOCz9cHjUmqq5PfbfTB9FnH/6R8NwbkZ35DMP5kU0ZFbaVRv/tTT7LHP73+BeujxefOv8v+698eJH/Nr55Durt4yzN+yV4d/uQpdsYlh0u5G1h490a77C13k+93zNrFoyZJu6M5T9I7DWPxUlAj9+chsYTvBf96MGnnmdeOqmafdHlVFQ9cCUlpVFnpF8HuAqu1JfPWl3aXL979XMuXbGaPcM3jOz988767WL1sC4+zc8wgqMGDpEYOIaESLwN43DvJUiIURJm6sLU8ZiDvSOGbKDPvHcf/2LZs8JlXBl1MmYFBAdoohlfY8I+l/sVfzbTRY+PPrcKnreGKLrRa4J7bVtmiufpdCLQT9hhlxz0P/5KRS9p7oFxdSHH7zStszQp9owCnWQeMtUOP8ZUfzUomz84/fsyPCKUXtvoL9q03PWQ7tuqkqb16zNU3+yJN7VePb4lB7YW7NE2QdK0NKLFmH/neY0hj8DbaO16G2+b2GtAEtwNHLcWwNn5A8W0ao0c482T15NMelCMre9GFpNiofC//hK+jXGSpa9rocx6xSD3M+d6Lp/6vyDUG8dnXqg0+dSUOFlTpG7WUHd/uJNCl0zm/6dfwALNwH1IGT9G8sHR1xYSlGJzPbFGBBtIgpOQbWhkBKXDaqIZQcoKvVNp4hyuSAFrsZNLiXOTLmLaNfI3QwfIc0Cs8Gz41iqEUNO0d2rRBQAwWkKnxTRp8Tzah2LJq4HLrm8dD8AS0UY0zbKElVRuhoxBW+IXMmPBD6X4W6mgY+rWfhfrGk6wElMtngCGnX6L1TSQHG9d9TmmnIXkVqFSnOSTawQCuA1/8W95r8sWSDkEaSzE7w71YnIimTUQeqoQyeI2uOPdDJO3xFhgzELraboaeiEZEUxA7V5cjH945e4AB+xrIWZeg1OOeInICma83sifsYZEZBo+BpbeFRweem/4ppGHT3KtHXt3p02NttBXt+dOg5BYKwmXYpKQGlOvEJkGaNYCKKUrU4du0AGWHMqfbMFjtLTS8Br8wPF5SpYXPNgCpC2RqMmUeGqIUAga8KGTqKIYtUGcenCMpC2XslcoatqBiwwoeOvjRpkJ76snTTLkdHC0lwp7UK2olwBC2/j+pyJd7tSkoGkxj84J28fETlt+Zg22FTpHw1RKdRQmgkl2pqi4oam6UQyOH0IENS/ggOzXY5UyfRLGhCnSfeUErpMlAkdCVxNVWrKFKFL6HUYrekwI4FzZBFHVpn7UPQFBo2kUMT0r0sWQufXY4n7dJoJ2BQPXsxvQOIErypG0bgIupqaYe32IAZQvpIVvYqQs1UAcvHZzyoEFDVozsLd+eHG4UwxrxBHgaRTNKsvg8KWF0VBvVqmRJCmfnaQoZfM5AoONLpnC0od2cVTnzWeBXfDPCEb5tHthdrDoIwbMmHxJ4OVGTflRq9+ItgJejEHx4E/W2yVINTZijJ9BJ8p0G0l6tsQnF05nefunWpQgyhEvkpchaD+qq4w1HIrjODASyj2rB24IculzQFOoFnCRBckarr4THMJWEDiUfOQlnGykdih8o6+IkpsnmpBiJzm2ziRwU0dz/OLpZB2ijucdplnSRcp58Ydf7+nD/1BZMrfkR+7oLGDyqv2Uw32bwMFX9murz6zhGmDSvClDK2Bva2gpPjpQ8dAxIP5Uuz1q811Q4OCNh84pb8HnrUtHsw+0vFzFcwNDkFV2DxiahsfmeCxPpwzN0ipcOO3XUMIGo13LzKnXFL3XaqJEDpTYGbWnT7RMl+x9BRPPM4yE7o2tXaRjXg9Q75V49SgNhUxUeqRJb+WRcAz5PeA6OzFSqhAY0VY0XgUWMbm1eqAx7c+AZkx3o2nQWdCaEagXfxGQfk4a15bMNohoJmZqY9A2qM5F82ALNMw+jrAFUEt8zAWgUaCRjrzQTlxhssFEMa8SnQb6i1LOGLD4HUOjaQLMtoG0XxnYV2vsa0fEl07WhXbxGtK8i9A67EDEoEeNMq4VYdY2NmwvSiAdNTfpmW5CowR46oOeZhwF0wuAaKKpS0djDWHxLA2EguhlbD6IwglL0DiDg8WETQIMPvzRr0CTs0iImAF4zL2xewKVH8ohNXbF6bNrl0dCwCc5plwQ+BJEUYCDjRUeTqDOPPrrOEuTRILNKTx66wmOXreXrAIqXGFQVFOQzf+snOa98iKwDssEiCpXs6hMtjI2PSylnTCL7WHQhA+xLoc7RRI0G2ks7wHSJGOYJNRiIqKpNvPKiliRzWEhaP+zd8WlmntzEwTPl9s4/ONqkuwQ0MWBMV9eR2KcBwFwq7a0E1ykXMk67z69B8gA9bVSpy6UkXlL1AB71GXEMHqFsWQS/iPr6Vq/YbFd//Pb4fwpwmF6LEPzeyeVG1XHQCesE+N7K4qumYw1zavL7r1J1SIkMe0iOyoHtZ2l0teshy9igiSYTclfpRPqiJgaJJYeqIxVb06mOX6m1Eyedr/+Oh4NH7v/wvwxm/x+Y3OpztRag7QAAAABJRU5ErkJggg==;" vertex="1" parent="1">
          <mxGeometry x="747" y="93" width="93" height="93" as="geometry" />
        </mxCell>
      </root>
    </mxGraphModel>
  </diagram>
</mxfile>
